SplineFontDB: 3.2
FontName: Industrophe
FullName: Industrophe
FamilyName: Industrophe
Weight: Regular
Copyright: Copyright 2024-2025 Pinsiau19.
UComments: "2024-11-10: Created with FontForge (http://fontforge.org)"
Version: 0.1.1
ItalicAngle: 0
UnderlinePosition: -100
UnderlineWidth: 50
Ascent: 800
Descent: 200
InvalidEm: 0
LayerCount: 4
Layer: 0 0 "Back" 1
Layer: 1 0 "Fore" 0
Layer: 2 0 "Back 2" 1
Layer: 3 0 "Back 3" 1
XUID: [1021 293 -1482489819 7946]
StyleMap: 0x0000
FSType: 0
OS2Version: 0
OS2_WeightWidthSlopeOnly: 0
OS2_UseTypoMetrics: 1
CreationTime: 1731236793
ModificationTime: 1740069152
PfmFamily: 17
TTFWeight: 400
TTFWidth: 5
LineGap: 90
VLineGap: 90
OS2TypoAscent: 0
OS2TypoAOffset: 1
OS2TypoDescent: 0
OS2TypoDOffset: 1
OS2TypoLinegap: 90
OS2WinAscent: 800
OS2WinAOffset: 0
OS2WinDescent: 200
OS2WinDOffset: 0
HheadAscent: 800
HheadAOffset: 0
HheadDescent: -200
HheadDOffset: 0
OS2CapHeight: 720
OS2XHeight: 500
OS2Vendor: 'PfEd'
Lookup: 1 0 0 "'cv03' Five with a Hook lookup 9" { "'cv03' Five with a Hook lookup 9-1" ("cv03") } ['cv03' ('DFLT' <'dflt' > 'cyrl' <'BGR ' 'dflt' > 'grek' <'dflt' > 'latn' <'dflt' > ) ]
Lookup: 1 0 0 "'cv04' Zero with a Dot lookup 10" { "'cv04' Zero with a Dot lookup 10-1" ("cv04") } ['cv04' ('DFLT' <'dflt' > 'cyrl' <'BGR ' 'dflt' > 'grek' <'dflt' > 'latn' <'dflt' > ) ]
Lookup: 1 0 0 "'zero' Slashed Zero lookup 7" { "'zero' Slashed Zero lookup 7-1" ("zero") } ['zero' ('DFLT' <'dflt' > 'cyrl' <'BGR ' 'dflt' > 'grek' <'dflt' > 'latn' <'dflt' > ) ]
Lookup: 1 0 0 "'ss01' Style Set 1 lookup 6" { "'ss01' Style Set 1 lookup 6-1" ("ss01") } ['ss01' ('DFLT' <'dflt' > 'cyrl' <'BGR ' 'dflt' > 'grek' <'dflt' > 'latn' <'dflt' > ) ]
Lookup: 1 0 0 "'cv01' Zero with Thick Horizontials lookup 4" { "'cv01' Zero with Thick Horizontials lookup 4-1"  } ['cv01' ('DFLT' <'dflt' > 'grek' <'dflt' > 'latn' <'dflt' > ) ]

StartChar: zero
Encoding: 48 48 0
Width: 550
Flags: W
HStem: 0 50<160 390> 670 50<160 390>
VStem: 70 90<50 670> 390 90<50 670>
LayerCount: 4
Fore
SplineSet
160 50 m 1
 390 50 l 1
 390 670 l 1
 160 670 l 1
 160 50 l 1
70 0 m 1
 70 720 l 1
 480 720 l 1
 480 0 l 1
 70 0 l 1
EndSplineSet
Validated: 1
Substitution2: "'cv04' Zero with a Dot lookup 10-1" zero.cv04
Substitution2: "'zero' Slashed Zero lookup 7-1" zero.zero
Substitution2: "'cv01' Zero with Thick Horizontials lookup 4-1" zero.cv01
Substitution2: "'numr' Numerators lookup 0 subtable" zero.numr
Substitution2: "'dnom' Denominators lookup 0 subtable" zero.dnom
Substitution2: "'subs' Subscript lookup 0 subtable" zero.subscript
Substitution2: "'sups' Superscript lookup 0 subtable" zero.superior
EndChar

StartChar: one
Encoding: 49 49 1
Width: 550
Flags: W
HStem: 0 50<80 240 330 480> 670 50<80 240>
VStem: 240 90<50 670>
LayerCount: 4
Fore
SplineSet
80 0 m 1
 80 50 l 1
 240 50 l 1
 240 670 l 1
 80 670 l 1
 80 720 l 1
 330 720 l 1
 330 50 l 1
 480 50 l 1
 480 0 l 1
 80 0 l 1
EndSplineSet
Validated: 1
Layer: 2
SplineSet
120 0 m 1
 120 50 l 1
 240 50 l 1
 240 690 l 1
 290 680 l 1
 120 610 l 1
 120 670 l 1
 290 740 l 1
 330 740 l 1
 330 50 l 1
 440 50 l 1
 440 0 l 1
 120 0 l 1
EndSplineSet
Substitution2: "'ss01' Style Set 1 lookup 6-1" one.ss01
Substitution2: "'numr' Numerators lookup 0 subtable" one.numr
Substitution2: "'dnom' Denominators lookup 0 subtable" one.dnom
Substitution2: "'subs' Subscript lookup 0 subtable" one.subscript
Substitution2: "'sups' Superscript lookup 0 subtable" one.superior
EndChar

StartChar: two
Encoding: 50 50 2
Width: 550
Flags: W
HStem: 0 80<130 500> 320 50<130 390> 670 50<140 390>
VStem: 70 70<560 670> 70 60<80 320> 390 90<370 670>
LayerCount: 4
Fore
SplineSet
70 0 m 25xec
 70 370 l 25xec
 390 370 l 25
 390 670 l 25
 140 670 l 25
 140 560 l 25
 70 560 l 25xf4
 70 720 l 25
 480 720 l 25
 480 320 l 25
 130 320 l 25
 130 80 l 25
 500 80 l 25
 500 0 l 25
 70 0 l 25xec
EndSplineSet
Validated: 1
Substitution2: "'numr' Numerators lookup 0 subtable" two.numr
Substitution2: "'dnom' Denominators lookup 0 subtable" two.dnom
Substitution2: "'subs' Subscript lookup 0 subtable" two.subscript
Substitution2: "'sups' Superscript lookup 0 subtable" two.superior
EndChar

StartChar: three
Encoding: 51 51 3
Width: 550
Flags: W
HStem: 0 150<60 140> 0 50<140 390> 350 50<140 320> 580 140<70 140> 670 50<140 380>
VStem: 60 80<50 150> 70 70<580 670> 380 90<480 670> 390 90<50 350>
LayerCount: 4
Back
SplineSet
60 0 m 5xd9
 60 150 l 5
 140 150 l 5
 140 50 l 5
 390 50 l 5
 390 340 l 5xd9
 160 340 l 13
 160 380 l 29
 360 640 l 13
 70 640 l 29xd6
 70 720 l 29xe6
 450 720 l 21
 450 680 l 5xd6
 250 420 l 5
 480 420 l 5
 480 0 l 5
 60 0 l 5xd9
EndSplineSet
Fore
SplineSet
60 0 m 1xa480
 60 150 l 1
 140 150 l 1xa480
 140 50 l 1
 390 50 l 1
 390 350 l 1x6480
 140 350 l 9
 140 400 l 25
 320 400 l 17
 380 460 l 1
 380 670 l 9
 140 670 l 25x6b
 140 580 l 25
 70 580 l 25
 70 720 l 25x33
 470 720 l 17
 470 480 l 1x2b
 390 400 l 1
 480 400 l 1
 480 0 l 1x6880
 60 0 l 1xa480
EndSplineSet
Validated: 1
Layer: 2
SplineSet
60 0 m 1xd9
 60 170 l 1
 140 170 l 1
 140 50 l 1
 390 50 l 1
 390 350 l 1xd9
 140 350 l 9
 140 400 l 25
 320 400 l 17
 380 460 l 1
 380 670 l 9
 140 670 l 25xd6
 140 580 l 25
 70 580 l 25
 70 720 l 25xe6
 470 720 l 17
 470 480 l 1xd6
 390 400 l 1
 480 400 l 1
 480 0 l 1
 60 0 l 1xd9
EndSplineSet
Substitution2: "'ss01' Style Set 1 lookup 6-1" three.ss01
Substitution2: "'cv02' Three with Two Sharp Turnings lookup 5-1" three.cv02
Substitution2: "'numr' Numerators lookup 0 subtable" three.numr
Substitution2: "'dnom' Denominators lookup 0 subtable" three.dnom
Substitution2: "'subs' Subscript lookup 0 subtable" three.subscript
Substitution2: "'sups' Superscript lookup 0 subtable" three.superior
EndChar

StartChar: four
Encoding: 52 52 4
Width: 550
Flags: W
HStem: 0 21G<360 450> 210 50<150 360 450 510> 700 20G<60 150 360 450>
VStem: 60 90<260 720> 360 90<0 210 260 720>
LayerCount: 4
Fore
SplineSet
360 0 m 1
 360 210 l 1
 60 210 l 1
 60 720 l 1
 150 720 l 1
 150 260 l 1
 360 260 l 1
 360 720 l 1
 450 720 l 1
 450 260 l 1
 510 260 l 1
 510 210 l 1
 450 210 l 1
 450 0 l 1
 360 0 l 1
EndSplineSet
Validated: 1
Substitution2: "'ss01' Style Set 1 lookup 6-1" four.ss01
Substitution2: "'numr' Numerators lookup 0 subtable" four.numr
Substitution2: "'dnom' Denominators lookup 0 subtable" four.dnom
Substitution2: "'subs' Subscript lookup 0 subtable" four.subscript
Substitution2: "'sups' Superscript lookup 0 subtable" four.superior
EndChar

StartChar: five
Encoding: 53 53 5
Width: 550
Flags: W
HStem: 0 160<60 140> 0 50<140 390> 350 80<130 390> 640 80<130 490>
VStem: 60 80<50 160> 70 60<430 640> 390 90<50 350>
LayerCount: 4
Back
SplineSet
60 0 m 25xba
 60 160 l 25
 140 160 l 25xba
 140 50 l 25x7a
 390 50 l 25
 390 370 l 25
 70 370 l 25
 70 720 l 25
 490 720 l 25
 490 640 l 25
 130 640 l 25
 130 420 l 25
 480 420 l 25
 480 0 l 25x76
 60 0 l 25xba
EndSplineSet
Fore
SplineSet
60 0 m 25xba
 60 160 l 25
 140 160 l 25xba
 140 50 l 25x7a
 390 50 l 25
 390 350 l 25
 70 350 l 25
 70 720 l 25
 490 720 l 25
 490 640 l 25
 130 640 l 25
 130 430 l 25
 480 430 l 25
 480 0 l 25x76
 60 0 l 25xba
EndSplineSet
Validated: 1
Layer: 2
SplineSet
60 0 m 25xba
 60 160 l 25
 140 160 l 25xba
 140 50 l 25x7a
 390 50 l 25
 390 380 l 17
 180 380 l 1
 130 330 l 1
 70 330 l 9
 70 720 l 25
 490 720 l 25
 490 640 l 25
 130 640 l 25
 130 400 l 17
 160 430 l 1
 480 430 l 9
 480 0 l 25x76
 60 0 l 25xba
EndSplineSet
Layer: 3
SplineSet
60 0 m 25xba
 60 160 l 25
 140 160 l 25xba
 140 50 l 25x7a
 390 50 l 25
 390 350 l 25
 70 350 l 25
 70 720 l 17
 420 720 l 1
 420 800 l 1
 490 800 l 9
 490 640 l 25
 130 640 l 25
 130 430 l 25
 480 430 l 25
 480 0 l 25x76
 60 0 l 25xba
EndSplineSet
Substitution2: "'cv03' Five with a Hook lookup 9-1" five.cv03
Substitution2: "'ss01' Style Set 1 lookup 6-1" five.ss01
Substitution2: "'numr' Numerators lookup 0 subtable" five.numr
Substitution2: "'dnom' Denominators lookup 0 subtable" five.dnom
Substitution2: "'subs' Subscript lookup 0 subtable" five.subscript
Substitution2: "'sups' Superscript lookup 0 subtable" five.superior
EndChar

StartChar: six
Encoding: 54 54 6
Width: 550
Flags: W
HStem: 0 50<160 390> 370 50<160 390> 670 50<160 460>
VStem: 70 90<50 370 420 670> 390 90<50 370>
LayerCount: 4
Fore
SplineSet
160 50 m 1
 390 50 l 1
 390 370 l 1
 160 370 l 1
 160 50 l 1
70 0 m 1
 70 720 l 1
 460 720 l 1
 460 670 l 1
 160 670 l 1
 160 420 l 1
 480 420 l 1
 480 0 l 1
 70 0 l 1
EndSplineSet
Validated: 1
Substitution2: "'numr' Numerators lookup 0 subtable" six.numr
Substitution2: "'dnom' Denominators lookup 0 subtable" six.dnom
Substitution2: "'subs' Subscript lookup 0 subtable" six.subscript
Substitution2: "'sups' Superscript lookup 0 subtable" six.superior
EndChar

StartChar: seven
Encoding: 55 55 7
Width: 550
Flags: W
HStem: 0 21G<170 286.765> 640 80<120 450>
VStem: 60 60<470 640>
LayerCount: 4
Fore
SplineSet
170 0 m 1
 450 670 l 1
 470 640 l 1
 120 640 l 1
 120 470 l 1
 60 470 l 1
 60 720 l 1
 510 720 l 1
 510 680 l 1
 280 0 l 1
 170 0 l 1
EndSplineSet
Validated: 5
Layer: 2
SplineSet
170 0 m 1
 430 670 l 1
 460 640 l 1
 40 640 l 1
 40 720 l 1xa0
 500 720 l 1
 500 680 l 1
 280 0 l 1
 170 0 l 1
EndSplineSet
Substitution2: "'ss01' Style Set 1 lookup 6-1" seven.ss01
Substitution2: "'numr' Numerators lookup 0 subtable" seven.numr
Substitution2: "'dnom' Denominators lookup 0 subtable" seven.dnom
Substitution2: "'subs' Subscript lookup 0 subtable" seven.subscript
Substitution2: "'sups' Superscript lookup 0 subtable" seven.superior
EndChar

StartChar: eight
Encoding: 56 56 8
Width: 550
Flags: W
HStem: 0 50<160 400> 330 80<220 320 390 400> 670 50<160 380>
VStem: 70 90<50 250> 80 80<410 670> 380 90<490 670> 400 80<50 330>
LayerCount: 4
Fore
SplineSet
70 0 m 1xf2
 70 250 l 9xf2
 150 330 l 25
 80 330 l 9
 80 720 l 25
 470 720 l 17
 470 490 l 1xec
 390 410 l 1
 480 410 l 1
 480 0 l 1
 70 0 l 1xf2
160 50 m 1
 400 50 l 1
 400 330 l 1
 220 330 l 1
 160 270 l 1xea
 160 50 l 1
160 410 m 25
 320 410 l 17
 380 470 l 1
 380 670 l 9xec
 160 670 l 25
 160 410 l 25
EndSplineSet
Validated: 1
Substitution2: "'ss01' Style Set 1 lookup 6-1" eight.ss01
Substitution2: "'numr' Numerators lookup 0 subtable" eight.numr
Substitution2: "'dnom' Denominators lookup 0 subtable" eight.dnom
Substitution2: "'subs' Subscript lookup 0 subtable" eight.subscript
Substitution2: "'sups' Superscript lookup 0 subtable" eight.superior
EndChar

StartChar: nine
Encoding: 57 57 9
Width: 550
Flags: W
HStem: 0 21G<200 320.968> 0 21G<200 320.968> 310 50<160 380> 670 50<160 390>
VStem: 70 90<360 670> 390 90<360 670>
LayerCount: 4
Fore
SplineSet
390 670 m 1x3c
 160 670 l 1
 160 360 l 1
 390 360 l 1
 390 670 l 1x3c
200 0 m 1xbc
 380 310 l 1
 70 310 l 1
 70 720 l 1
 480 720 l 1
 480 310 l 1
 310 0 l 1
 200 0 l 1xbc
EndSplineSet
Validated: 1
Substitution2: "'ss01' Style Set 1 lookup 6-1" nine.ss01
Substitution2: "'numr' Numerators lookup 0 subtable" nine.numr
Substitution2: "'dnom' Denominators lookup 0 subtable" nine.dnom
Substitution2: "'subs' Subscript lookup 0 subtable" nine.subscript
Substitution2: "'sups' Superscript lookup 0 subtable" nine.superior
EndChar

StartChar: period
Encoding: 46 46 10
Width: 250
Flags: W
HStem: 0 130<65 185>
VStem: 65 120<0 130>
LayerCount: 4
Fore
SplineSet
65 0 m 1
 65 130 l 1
 185 130 l 1
 185 0 l 1
 65 0 l 1
EndSplineSet
Validated: 1
EndChar

StartChar: comma
Encoding: 44 44 11
Width: 250
Flags: W
HStem: 0 130<65 135>
VStem: 65 120<0 130>
LayerCount: 4
Fore
SplineSet
65 0 m 1
 65 130 l 1
 185 130 l 1
 185 0 l 1
 110 -140 l 1
 50 -140 l 1
 135 0 l 1
 65 0 l 1
EndSplineSet
Validated: 1
EndChar

StartChar: A
Encoding: 65 65 12
Width: 570
Flags: W
HStem: 0 21G<80 170 400 490> 230 50<170 400> 670 50<170 400>
VStem: 80 90<0 230 280 670> 400 90<0 230 280 670>
AnchorPoint: "bottom" 285 -30 basechar 0
AnchorPoint: "top" 285 770 basechar 0
AnchorPoint: "ogonek" 440 0 basechar 0
LayerCount: 4
Fore
SplineSet
170 280 m 1
 400 280 l 1
 400 670 l 1
 170 670 l 1
 170 280 l 1
80 0 m 1
 80 720 l 1
 490 720 l 1
 490 0 l 9
 400 0 l 25
 400 230 l 25
 170 230 l 25
 170 0 l 25
 80 0 l 1
EndSplineSet
Validated: 1048577
EndChar

StartChar: B
Encoding: 66 66 13
Width: 570
Flags: W
HStem: 0 50<170 400> 360 50<170 300 370 400> 670 50<170 380>
VStem: 80 90<50 360 410 670> 380 90<510 670> 400 90<50 360>
AnchorPoint: "bottom" 280 -30 basechar 0
AnchorPoint: "top" 280 770 basechar 0
LayerCount: 4
Fore
SplineSet
80 0 m 1xf4
 80 720 l 25
 470 720 l 17
 470 510 l 1xf8
 370 410 l 1
 490 410 l 1
 490 0 l 1
 80 0 l 1xf4
170 50 m 1
 400 50 l 1
 400 360 l 1xf4
 170 360 l 1
 170 50 l 1
170 410 m 25
 300 410 l 17
 380 490 l 1
 380 670 l 9xf8
 170 670 l 25
 170 410 l 25
EndSplineSet
Validated: 1048577
EndChar

StartChar: C
Encoding: 67 67 14
Width: 550
Flags: W
HStem: 0 120<410 490> 0 50<170 410> 670 50<170 410>
VStem: 80 90<50 670> 410 80<50 120 520 670>
AnchorPoint: "bottom" 290 -30 basechar 0
AnchorPoint: "top" 290 770 basechar 0
LayerCount: 4
Fore
SplineSet
80 0 m 1x78
 80 720 l 1
 490 720 l 1
 490 520 l 1
 410 520 l 1
 410 670 l 1
 170 670 l 1
 170 50 l 1
 410 50 l 1x78
 410 120 l 1
 490 120 l 1
 490 0 l 1xb8
 80 0 l 1x78
EndSplineSet
Validated: 1048577
EndChar

StartChar: D
Encoding: 68 68 15
Width: 570
Flags: W
HStem: 0 50<170 340> 670 50<70 340>
VStem: 80 90<50 520> 400 90<110 610>
AnchorPoint: "bottom" 280 -30 basechar 0
AnchorPoint: "top" 280 770 basechar 0
LayerCount: 4
Fore
SplineSet
80 0 m 1
 80 520 l 1
 170 520 l 1
 170 50 l 1
 340 50 l 1
 400 110 l 1
 400 610 l 1
 340 670 l 1
 70 670 l 1
 70 720 l 1
 380 720 l 1
 490 610 l 1
 490 110 l 1
 380 0 l 1
 80 0 l 1
EndSplineSet
Validated: 1048577
EndChar

StartChar: E
Encoding: 69 69 17
Width: 520
Flags: W
HStem: 0 50<170 460> 350 50<170 430> 670 50<170 460>
VStem: 80 90<50 350 400 670>
AnchorPoint: "bottom" 290 -30 basechar 0
AnchorPoint: "top" 290 770 basechar 0
AnchorPoint: "ogonek" 400 0 basechar 0
LayerCount: 4
Fore
SplineSet
80 0 m 1
 80 720 l 17
 460 720 l 1
 460 670 l 1
 170 670 l 9
 170 400 l 17
 430 400 l 1
 430 350 l 1
 170 350 l 1
 170 50 l 1
 460 50 l 1
 460 0 l 1
 80 0 l 1
EndSplineSet
Validated: 1048577
EndChar

StartChar: F
Encoding: 70 70 18
Width: 450
Flags: W
HStem: 0 21G<80 170> 280 50<170 400> 670 50<170 420>
VStem: 80 90<0 280 330 670>
AnchorPoint: "bottom" 125 -30 basechar 0
AnchorPoint: "top" 260 770 basechar 0
LayerCount: 4
Fore
SplineSet
80 0 m 1
 80 720 l 17
 420 720 l 1
 420 670 l 1
 170 670 l 9
 170 330 l 17
 400 330 l 1
 400 280 l 1
 170 280 l 1
 170 0 l 1
 80 0 l 1
EndSplineSet
Validated: 1048577
EndChar

StartChar: G
Encoding: 71 71 19
Width: 570
Flags: W
HStem: 0 50<170 400> 300 50<330 400> 570 150<410 490> 670 50<170 410>
VStem: 80 90<50 670> 400 90<50 300> 410 80<570 670>
AnchorPoint: "bottom" 285 -30 basechar 0
AnchorPoint: "top" 285 770 basechar 0
LayerCount: 4
Fore
SplineSet
80 0 m 1xda
 80 720 l 1xda
 490 720 l 1
 490 570 l 1
 410 570 l 1xea
 410 670 l 1xda
 170 670 l 1
 170 50 l 1
 400 50 l 1
 400 300 l 1xdc
 330 300 l 1
 330 350 l 1
 490 350 l 1
 490 0 l 1
 80 0 l 1xda
EndSplineSet
Validated: 1048577
EndChar

StartChar: H
Encoding: 72 72 20
Width: 570
Flags: W
HStem: 0 21G<80 170 400 490> 360 50<170 400> 700 20G<80 170 400 490>
VStem: 80 90<0 360 410 720> 400 90<0 360 410 720>
AnchorPoint: "top" 285 770 basechar 0
AnchorPoint: "bottom" 285 -30 basechar 0
AnchorPoint: "ogonek" 445 0 basechar 0
LayerCount: 4
Fore
SplineSet
80 0 m 1
 80 720 l 9
 170 720 l 17
 170 410 l 1
 400 410 l 1
 400 720 l 1
 490 720 l 1
 490 0 l 9
 400 0 l 25
 400 360 l 25
 170 360 l 25
 170 0 l 25
 80 0 l 1
EndSplineSet
Validated: 1048577
EndChar

StartChar: I
Encoding: 73 73 21
Width: 270
Flags: W
HStem: 0 21G<90 180> 700 20G<90 180>
VStem: 90 90<0 720>
AnchorPoint: "bottom" 135 -30 basechar 0
AnchorPoint: "top" 135 770 basechar 0
AnchorPoint: "ogonek" 135 0 basechar 0
LayerCount: 4
Fore
SplineSet
90 0 m 5
 90 720 l 13
 180 720 l 21
 180 0 l 29
 90 0 l 5
EndSplineSet
Validated: 1048577
EndChar

StartChar: J
Encoding: 74 74 22
Width: 520
Flags: W
HStem: 0 50<160 350> 670 50<140 350>
VStem: 80 80<50 200> 350 90<50 670>
AnchorPoint: "bottom" 260 -30 basechar 0
AnchorPoint: "top" 300 770 basechar 0
LayerCount: 4
Fore
SplineSet
80 0 m 1
 80 200 l 1
 160 200 l 1
 160 50 l 1
 350 50 l 1
 350 670 l 1
 140 670 l 1
 140 720 l 1
 440 720 l 1
 440 0 l 1
 80 0 l 1
EndSplineSet
Validated: 1048577
EndChar

StartChar: K
Encoding: 75 75 23
Width: 540
Flags: W
HStem: 0 21G<80 170 370 460> 350 50<170 270 360 370> 700 20G<80 170 373.125 480>
VStem: 80 90<0 350 400 720> 370 90<0 350>
AnchorPoint: "bottom" 280 -30 basechar 0
AnchorPoint: "top" 280 770 basechar 0
LayerCount: 4
Fore
SplineSet
80 0 m 17
 80 720 l 17
 170 720 l 9
 170 400 l 25
 270 400 l 17
 380 720 l 1
 480 720 l 1
 360 400 l 1
 460 400 l 1
 460 0 l 1
 370 0 l 1
 370 350 l 1
 170 350 l 1
 170 0 l 9
 80 0 l 17
EndSplineSet
Validated: 1048577
Layer: 2
SplineSet
70 0 m 17xbc
 70 720 l 17
 160 720 l 9
 160 400 l 25
 260 400 l 17
 360 500 l 1
 360 720 l 1
 450 720 l 1
 450 500 l 1
 350 400 l 1
 450 400 l 1
 450 0 l 1
 360 0 l 1
 360 350 l 1
 160 350 l 1
 160 0 l 9
 70 0 l 17xbc
EndSplineSet
EndChar

StartChar: L
Encoding: 76 76 24
Width: 450
Flags: W
HStem: 0 50<170 440> 700 20G<80 170>
VStem: 80 90<50 720>
AnchorPoint: "bottom" 270 -30 basechar 0
AnchorPoint: "top" 270 770 basechar 0
AnchorPoint: "dot" 390 400 basechar 0
AnchorPoint: "comma" 380 720 basechar 0
LayerCount: 4
Fore
SplineSet
80 0 m 1
 80 720 l 25
 170 720 l 25
 170 50 l 17
 440 50 l 1
 440 0 l 1
 80 0 l 1
EndSplineSet
Validated: 1048577
EndChar

StartChar: M
Encoding: 77 77 25
Width: 820
Flags: W
HStem: 0 21G<80 170 365 455 650 740> 670 50<170 365 455 620>
VStem: 80 90<0 670> 365 90<0 670> 650 90<0 640>
CounterMasks: 1 38
AnchorPoint: "bottom" 410 -30 basechar 0
AnchorPoint: "top" 410 770 basechar 0
LayerCount: 4
Fore
SplineSet
80 0 m 1
 80 720 l 1
 660 720 l 1
 740 640 l 1
 740 0 l 1
 650 0 l 1
 650 640 l 1
 620 670 l 1
 455 670 l 1
 455 0 l 1
 365 0 l 1
 365 670 l 1
 170 670 l 1
 170 0 l 1
 80 0 l 1
EndSplineSet
Validated: 1048577
EndChar

StartChar: N
Encoding: 78 78 26
Width: 570
Flags: W
HStem: 0 21G<80 170 400 490> 670 50<170 370>
VStem: 80 90<0 670> 400 90<0 640>
AnchorPoint: "bottom" 290 -30 basechar 0
AnchorPoint: "top" 290 770 basechar 0
LayerCount: 4
Fore
SplineSet
80 0 m 1
 80 720 l 1
 410 720 l 1
 490 640 l 1
 490 0 l 1
 400 0 l 1
 400 640 l 1
 370 670 l 1
 170 670 l 1
 170 0 l 1
 80 0 l 1
EndSplineSet
Validated: 1048577
EndChar

StartChar: O
Encoding: 79 79 27
Width: 570
Flags: W
HStem: 0 50<170 400> 670 50<170 400>
VStem: 80 90<50 670> 400 90<50 670>
AnchorPoint: "top" 285 770 basechar 0
AnchorPoint: "bottom" 285 -30 basechar 0
AnchorPoint: "horn" 480 570 basechar 0
AnchorPoint: "ogonek" 285 0 basechar 0
LayerCount: 4
Fore
SplineSet
170 50 m 1
 400 50 l 1
 400 670 l 1
 170 670 l 1
 170 50 l 1
80 0 m 1
 80 720 l 1
 490 720 l 1
 490 0 l 1
 80 0 l 1
EndSplineSet
Validated: 1048577
EndChar

StartChar: P
Encoding: 80 80 28
Width: 520
Flags: W
HStem: 0 21G<80 170> 290 50<170 360> 670 50<170 360>
VStem: 80 90<0 290 340 670> 360 90<340 670>
AnchorPoint: "bottom" 260 -30 basechar 0
AnchorPoint: "top" 260 770 basechar 0
LayerCount: 4
Fore
SplineSet
170 340 m 1
 360 340 l 1
 360 670 l 1
 170 670 l 1
 170 340 l 1
80 0 m 1
 80 720 l 1
 450 720 l 1
 450 290 l 9
 170 290 l 25
 170 0 l 25
 80 0 l 1
EndSplineSet
Validated: 1048577
EndChar

StartChar: Q
Encoding: 81 81 29
Width: 570
Flags: W
HStem: 0 50<170 230 330 400> 670 50<170 400>
VStem: 80 90<50 670> 400 90<50 670>
AnchorPoint: "bottom" 285 -180 basechar 0
AnchorPoint: "top" 285 770 basechar 0
LayerCount: 4
Fore
SplineSet
170 50 m 1
 400 50 l 1
 400 670 l 1
 170 670 l 1
 170 50 l 1
80 0 m 1
 80 720 l 1
 490 720 l 1
 490 0 l 1
 330 0 l 1
 400 -150 l 1
 290 -150 l 1
 230 0 l 1
 80 0 l 1
EndSplineSet
Validated: 1048577
EndChar

StartChar: R
Encoding: 82 82 30
Width: 570
Flags: W
HStem: 0 21G<80 170 431.515 540> 330 50<170 300 390 400> 670 50<170 400>
VStem: 80 90<0 330 380 670> 400 90<380 670>
AnchorPoint: "bottom" 300 -30 basechar 0
AnchorPoint: "top" 290 770 basechar 0
LayerCount: 4
Fore
SplineSet
170 380 m 1
 400 380 l 1
 400 670 l 1
 170 670 l 1
 170 380 l 1
80 0 m 1
 80 720 l 1
 490 720 l 1
 490 330 l 1
 390 330 l 1
 540 0 l 1
 440 0 l 1
 300 330 l 1
 170 330 l 9
 170 0 l 25
 80 0 l 1
EndSplineSet
Validated: 1048577
Layer: 2
SplineSet
160 360 m 1x3c
 390 360 l 1
 390 670 l 1
 160 670 l 1
 160 360 l 1x3c
70 0 m 1xbc
 70 720 l 1
 480 720 l 1
 480 310 l 1
 380 310 l 1
 480 200 l 1
 480 0 l 1
 390 0 l 1
 390 200 l 1
 290 310 l 1
 160 310 l 9
 160 0 l 25
 70 0 l 1xbc
EndSplineSet
Layer: 3
SplineSet
80 0 m 5
 80 570 l 5
 170 570 l 5
 170 380 l 5
 400 380 l 5
 400 670 l 5
 70 670 l 5
 70 720 l 5
 490 720 l 5
 490 330 l 5
 390 330 l 5
 520 0 l 5
 420 0 l 5
 300 330 l 5
 170 330 l 13
 170 0 l 29
 80 0 l 5
EndSplineSet
EndChar

StartChar: S
Encoding: 83 83 31
Width: 570
Flags: W
HStem: 0 150<70 150> 0 50<150 400> 330 80<170 400> 600 120<410 490> 670 50<170 410>
VStem: 70 80<50 150> 80 90<410 670> 400 90<50 330> 410 80<600 670>
AnchorPoint: "bottom" 280 -30 basechar 0
AnchorPoint: "top" 280 770 basechar 0
LayerCount: 4
Fore
SplineSet
70 0 m 25xa480
 70 150 l 25
 150 150 l 25xa480
 150 50 l 25x6480
 400 50 l 25
 400 330 l 25
 80 330 l 25
 80 720 l 25x6b
 490 720 l 25
 490 600 l 17
 410 600 l 1x3280
 410 670 l 1
 170 670 l 9
 170 410 l 25
 490 410 l 25
 490 0 l 25x6a80
 70 0 l 25xa480
EndSplineSet
Validated: 1048577
EndChar

StartChar: T
Encoding: 84 84 32
Width: 470
Flags: W
HStem: 0 21G<190 280> 670 50<30 190 280 440>
VStem: 190 90<0 670>
AnchorPoint: "bottom" 235 -30 basechar 0
AnchorPoint: "top" 235 770 basechar 0
LayerCount: 4
Fore
SplineSet
190 0 m 1
 190 670 l 1
 30 670 l 1
 30 720 l 9
 440 720 l 17
 440 670 l 1
 280 670 l 1
 280 0 l 1
 190 0 l 1
EndSplineSet
Validated: 1048577
EndChar

StartChar: U
Encoding: 85 85 33
Width: 570
Flags: W
HStem: 0 50<200 400> 700 20G<80 170 400 490>
VStem: 80 90<80 720> 400 90<50 720>
AnchorPoint: "bottom" 285 -30 basechar 0
AnchorPoint: "horn" 480 570 basechar 0
AnchorPoint: "top" 285 770 basechar 0
AnchorPoint: "ogonek" 285 0 basechar 0
LayerCount: 4
Fore
SplineSet
160 0 m 1
 80 80 l 1
 80 720 l 1
 170 720 l 1
 170 80 l 1
 200 50 l 1
 400 50 l 1
 400 720 l 1
 490 720 l 1
 490 0 l 1
 160 0 l 1
EndSplineSet
Validated: 1048577
EndChar

StartChar: V
Encoding: 86 86 34
Width: 540
Flags: W
HStem: 0 50<170 270> 700 20G<80 170 380 470>
VStem: 80 90<50 720> 380 90<160 720>
AnchorPoint: "bottom" 275 -30 basechar 0
AnchorPoint: "top" 275 770 basechar 0
LayerCount: 4
Fore
SplineSet
80 0 m 1
 80 720 l 1
 170 720 l 1
 170 50 l 1
 270 50 l 1
 380 160 l 1
 380 720 l 1
 470 720 l 1
 470 160 l 1
 310 0 l 1
 80 0 l 1
EndSplineSet
Validated: 1048577
EndChar

StartChar: W
Encoding: 87 87 35
Width: 820
Flags: W
HStem: 0 50<170 365 455 620> 700 20G<80 170 365 455 650 740>
VStem: 80 90<50 720> 365 90<50 720> 650 90<80 720>
CounterMasks: 1 38
AnchorPoint: "bottom" 410 -30 basechar 0
AnchorPoint: "top" 410 770 basechar 0
LayerCount: 4
Fore
SplineSet
80 0 m 1
 80 720 l 1
 170 720 l 1
 170 50 l 1
 365 50 l 1
 365 720 l 1
 455 720 l 1
 455 50 l 1
 620 50 l 1
 650 80 l 1
 650 720 l 1
 740 720 l 1
 740 80 l 1
 660 0 l 1
 80 0 l 1
EndSplineSet
Validated: 1048577
EndChar

StartChar: X
Encoding: 88 88 36
Width: 570
Flags: W
HStem: 0 21G<60 157.692 402 510> 700 20G<60 168.485 411.892 510>
AnchorPoint: "bottom" 285 -30 basechar 0
AnchorPoint: "top" 285 770 basechar 0
LayerCount: 4
Fore
SplineSet
410 0 m 25
 270 350 l 25
 420 720 l 1
 510 720 l 1
 350 360 l 1
 510 0 l 9
 410 0 l 25
60 0 m 1
 220 380 l 1
 60 720 l 9
 160 720 l 17
 300 390 l 1
 150 0 l 25
 60 0 l 1
EndSplineSet
Validated: 1048581
Layer: 2
SplineSet
60 0 m 1xac
 60 190 l 9
 180 310 l 25
 60 430 l 9xac
 60 600 l 17
 140 600 l 9
 140 450 l 17
 240 350 l 1
 270 350 l 1
 360 440 l 1
 360 600 l 1
 430 600 l 1
 430 440 l 1
 310 320 l 1
 430 200 l 1xb2
 430 0 l 1
 350 0 l 1
 350 180 l 1
 250 280 l 1
 220 280 l 1
 130 190 l 1
 130 0 l 1
 60 0 l 1xac
EndSplineSet
EndChar

StartChar: Y
Encoding: 89 89 37
Width: 520
Flags: W
HStem: 0 21G<215 305> 310 50<160 215 305 360> 700 20G<70 160 360 450>
VStem: 70 90<360 720> 215 90<0 310> 360 90<360 720>
CounterMasks: 1 1c
AnchorPoint: "bottom" 260 -30 basechar 0
AnchorPoint: "top" 260 770 basechar 0
AnchorPoint: "ogonek" 260 0 basechar 0
LayerCount: 4
Fore
SplineSet
215 0 m 1
 215 310 l 1
 70 310 l 1
 70 720 l 1
 160 720 l 1
 160 360 l 1
 360 360 l 1
 360 720 l 1
 450 720 l 1
 450 310 l 1
 305 310 l 1
 305 0 l 1
 215 0 l 1
EndSplineSet
Validated: 1048577
EndChar

StartChar: Z
Encoding: 90 90 38
Width: 520
Flags: W
HStem: 0 50<160 450> 670 50<70 350>
AnchorPoint: "bottom" 260 -30 basechar 0
AnchorPoint: "top" 260 770 basechar 0
LayerCount: 4
Fore
SplineSet
70 0 m 25
 70 70 l 25
 350 670 l 17
 70 670 l 1
 70 720 l 25
 440 720 l 25
 440 650 l 25
 160 50 l 25
 450 50 l 25
 450 0 l 25
 70 0 l 25
EndSplineSet
Validated: 1048577
Layer: 2
SplineSet
60 0 m 25x6a80
 60 170 l 25
 340 450 l 25
 340 550 l 17
 60 550 l 1
 60 600 l 25
 420 600 l 25x6b
 420 430 l 25
 140 150 l 25
 140 50 l 25
 430 50 l 25x6480
 430 0 l 25xa480
 60 0 l 25x6a80
EndSplineSet
EndChar

StartChar: colon
Encoding: 58 58 39
Width: 250
Flags: W
HStem: 0 130<65 185> 370 130<65 185>
VStem: 65 120<0 130 370 500>
LayerCount: 4
Fore
SplineSet
65 370 m 1
 65 500 l 1
 185 500 l 1
 185 370 l 1
 65 370 l 1
65 0 m 1
 65 130 l 1
 185 130 l 1
 185 0 l 1
 65 0 l 1
EndSplineSet
Validated: 1
EndChar

StartChar: semicolon
Encoding: 59 59 40
Width: 250
Flags: W
HStem: 370 130<65 185>
VStem: 65 120<40 130 370 500>
LayerCount: 4
Fore
SplineSet
65 370 m 1
 65 500 l 1
 185 500 l 1
 185 370 l 1
 65 370 l 1
65 0 m 1
 65 130 l 1
 185 130 l 1
 185 40 l 1
 130 -100 l 1
 70 -100 l 1
 115 0 l 1
 65 0 l 1
EndSplineSet
Validated: 1
EndChar

StartChar: exclam
Encoding: 33 33 41
Width: 250
Flags: W
HStem: 0 110<75 175> 700 20G<75 175>
VStem: 75 100<0 110 370 720> 85 80<220 570>
LayerCount: 4
Fore
SplineSet
85 220 m 1xd0
 75 720 l 9
 175 720 l 17xe0
 165 220 l 25
 85 220 l 1xd0
75 0 m 1
 75 110 l 1
 175 110 l 1
 175 0 l 1
 75 0 l 1
EndSplineSet
Validated: 1
EndChar

StartChar: quotedbl
Encoding: 34 34 42
Width: 400
Flags: W
HStem: 440 280<90 150 250 310>
VStem: 70 260
LayerCount: 4
Fore
SplineSet
240 720 m 1
 330 720 l 1
 310 440 l 1
 250 440 l 1
 240 720 l 1
70 720 m 1
 160 720 l 1
 150 440 l 1
 90 440 l 1
 70 720 l 1
EndSplineSet
Validated: 1
EndChar

StartChar: quotesingle
Encoding: 39 39 43
Width: 250
Flags: W
HStem: 440 280<95 155>
VStem: 95 60<440 538>
LayerCount: 4
Fore
SplineSet
75 720 m 1
 175 720 l 1
 155 440 l 1
 95 440 l 1
 75 720 l 1
EndSplineSet
Validated: 1
EndChar

StartChar: hyphen
Encoding: 45 45 44
Width: 400
Flags: W
HStem: 250 80<60 340>
VStem: 60 280<250 330>
LayerCount: 4
Fore
SplineSet
60 250 m 1
 60 330 l 1
 340 330 l 1
 340 250 l 1
 60 250 l 1
EndSplineSet
Validated: 1
EndChar

StartChar: question
Encoding: 63 63 45
Width: 400
Flags: W
HStem: 0 110<75 175> 320 80<140 280> 640 80<50 280>
VStem: 75 100<0 110> 80 60<190 320> 280 60<400 640>
LayerCount: 4
Fore
SplineSet
80 190 m 25xec
 80 400 l 25
 280 400 l 25
 280 640 l 25
 50 640 l 25
 50 720 l 25
 340 720 l 25
 340 320 l 25
 140 320 l 25
 140 190 l 25
 80 190 l 25xec
75 0 m 1xf4
 75 110 l 1
 175 110 l 1
 175 0 l 1
 75 0 l 1xf4
EndSplineSet
Validated: 1
EndChar

StartChar: numbersign
Encoding: 35 35 46
Width: 500
Flags: W
HStem: 0 21G<120 200 300 380> 0 21G<120 200 300 380> 180 50<50 120 200 300 380 450> 490 50<50 120 200 300 380 450> 700 20G<120 200 300 380>
VStem: 120 80<0 180 230 490 540 720> 300 80<0 180 230 490 540 720>
LayerCount: 4
Fore
SplineSet
200 230 m 1x3e
 300 230 l 1
 300 490 l 1
 200 490 l 1
 200 230 l 1x3e
50 180 m 1
 50 230 l 1
 120 230 l 1
 120 490 l 1
 50 490 l 1
 50 540 l 1
 120 540 l 1
 120 720 l 1
 200 720 l 1
 200 540 l 1
 300 540 l 1
 300 720 l 1
 380 720 l 1
 380 540 l 1
 450 540 l 1
 450 490 l 1
 380 490 l 1
 380 230 l 1
 450 230 l 1
 450 180 l 1
 380 180 l 1
 380 0 l 1
 300 0 l 1
 300 180 l 1
 200 180 l 1
 200 0 l 1
 120 0 l 1xbe
 120 180 l 1
 50 180 l 1
EndSplineSet
Validated: 1
EndChar

StartChar: dollar
Encoding: 36 36 47
Width: 570
Flags: W
HStem: 0 150<70 150> 0 50<150 240 320 400> 330 80<170 400> 600 120<420 490> 670 50<170 240 320 420>
VStem: 70 80<50 150> 80 90<410 670> 240 80<-60 0 720 780> 400 90<50 330> 420 70<600 670>
LayerCount: 4
Fore
SplineSet
70 0 m 1xa540
 70 150 l 1
 150 150 l 1xa540
 150 50 l 1x6540
 400 50 l 1
 400 330 l 1
 80 330 l 1
 80 720 l 1
 240 720 l 1
 240 780 l 1
 320 820 l 1
 320 720 l 1x6b80
 490 720 l 1
 490 600 l 1
 420 600 l 1x3340
 420 670 l 1
 170 670 l 1
 170 410 l 1
 490 410 l 1
 490 0 l 1
 320 0 l 1
 320 -60 l 1
 240 -100 l 1
 240 0 l 1x6b40
 70 0 l 1xa540
EndSplineSet
Validated: 1
EndChar

StartChar: slash
Encoding: 47 47 48
Width: 340
Flags: W
VStem: 20 300
LayerCount: 4
Fore
SplineSet
245 780 m 1
 320 780 l 1
 95 -60 l 1
 20 -60 l 1
 245 780 l 1
EndSplineSet
Validated: 1
EndChar

StartChar: parenleft
Encoding: 40 40 49
Width: 380
Flags: W
VStem: 90 90<104.536 495.464>
LayerCount: 4
Fore
SplineSet
210 -165 m 17
 120 -25 90 140 90 300 c 3
 90 460 120 625 210 765 c 9
 310 765 l 17
 220 625 180 460 180 300 c 3
 180 140 220 -25 310 -165 c 9
 210 -165 l 17
EndSplineSet
Validated: 1
EndChar

StartChar: parenright
Encoding: 41 41 50
Width: 380
Flags: W
VStem: 200 90<104.536 495.464>
LayerCount: 4
Fore
SplineSet
170 765 m 17
 260 625 290 460 290 300 c 3
 290 140 260 -25 170 -165 c 9
 70 -165 l 17
 160 -25 200 140 200 300 c 3
 200 460 160 625 70 765 c 9
 170 765 l 17
EndSplineSet
Validated: 1
EndChar

StartChar: asterisk
Encoding: 42 42 51
Width: 540
Flags: W
LayerCount: 4
Fore
SplineSet
236 500 m 1
 50 475 l 1
 50 565 l 1
 236 540 l 1
 121 688 l 1
 199 733 l 1
 270 559 l 1
 341 733 l 1
 419 688 l 1
 304 540 l 1
 490 565 l 1
 490 475 l 1
 304 500 l 1
 419 352 l 1
 341 307 l 1
 270 481 l 1
 199 307 l 1
 121 352 l 1
 236 500 l 1
EndSplineSet
Validated: 1
EndChar

StartChar: plus
Encoding: 43 43 52
Width: 540
Flags: W
HStem: 250 80<60 230 310 480> 480 20G<230 310>
VStem: 230 80<80 250 330 500>
LayerCount: 4
Fore
SplineSet
60 250 m 1
 60 330 l 1
 230 330 l 1
 230 500 l 1
 310 500 l 1
 310 330 l 1
 480 330 l 1
 480 250 l 1
 310 250 l 1
 310 80 l 1
 230 80 l 1
 230 250 l 1
 60 250 l 1
EndSplineSet
Validated: 1
EndChar

StartChar: less
Encoding: 60 60 53
Width: 540
Flags: W
HStem: 268 44<60 90> 480 20G<430.588 480>
LayerCount: 4
Fore
SplineSet
60 250 m 1
 60 312 l 1
 90 312 l 1
 480 163 l 1
 480 80 l 1
 60 250 l 1
60 330 m 1
 480 500 l 1
 480 417 l 1
 90 268 l 1
 60 268 l 1
 60 330 l 1
EndSplineSet
Validated: 5
EndChar

StartChar: equal
Encoding: 61 61 54
Width: 540
Flags: W
HStem: 160 80<60 480> 340 80<60 480>
LayerCount: 4
Fore
SplineSet
60 340 m 1
 60 420 l 1
 480 420 l 1
 480 340 l 1
 60 340 l 1
60 160 m 1
 60 240 l 1
 480 240 l 1
 480 160 l 1
 60 160 l 1
EndSplineSet
Validated: 1
EndChar

StartChar: greater
Encoding: 62 62 55
Width: 540
Flags: W
HStem: 268 44<450 480> 480 20G<60 109.412>
LayerCount: 4
Fore
SplineSet
480 330 m 1
 480 268 l 1
 450 268 l 1
 60 417 l 1
 60 500 l 1
 480 330 l 1
480 250 m 1
 60 80 l 1
 60 163 l 1
 450 312 l 1
 480 312 l 1
 480 250 l 1
EndSplineSet
Validated: 5
EndChar

StartChar: bracketleft
Encoding: 91 91 56
Width: 380
Flags: W
HStem: -160 50<190 320> 710 50<190 320>
VStem: 100 90<-110 710>
LayerCount: 4
Fore
SplineSet
320 -160 m 1
 100 -160 l 1
 100 760 l 1
 320 760 l 1
 320 710 l 1
 190 710 l 1
 190 -110 l 1
 320 -110 l 1
 320 -160 l 1
EndSplineSet
Validated: 1
EndChar

StartChar: backslash
Encoding: 92 92 57
Width: 340
Flags: W
VStem: 20 300
LayerCount: 4
Fore
SplineSet
95 780 m 1
 320 -60 l 1
 245 -60 l 1
 20 780 l 1
 95 780 l 1
EndSplineSet
Validated: 1
EndChar

StartChar: bracketright
Encoding: 93 93 58
Width: 380
Flags: W
HStem: -160 50<60 190> 710 50<60 190>
VStem: 190 90<-110 710>
LayerCount: 4
Fore
SplineSet
60 760 m 1
 280 760 l 1
 280 -160 l 1
 60 -160 l 1
 60 -110 l 1
 190 -110 l 1
 190 710 l 1
 60 710 l 1
 60 760 l 1
EndSplineSet
Validated: 1
EndChar

StartChar: asciicircum
Encoding: 94 94 59
Width: 540
Flags: W
HStem: 700 20G<220.556 319.444>
LayerCount: 4
Fore
SplineSet
310 720 m 1
 480 360 l 1
 397 360 l 1
 270 641 l 1
 143 360 l 1
 60 360 l 1
 230 720 l 1
 310 720 l 1
EndSplineSet
Validated: 1
EndChar

StartChar: underscore
Encoding: 95 95 60
Width: 540
Flags: W
HStem: -130 80<20 520>
LayerCount: 4
Fore
SplineSet
20 -130 m 1
 20 -50 l 1
 520 -50 l 1
 520 -130 l 1
 20 -130 l 1
EndSplineSet
Validated: 1
EndChar

StartChar: grave
Encoding: 96 96 61
Width: 320
Flags: W
HStem: 560 160
VStem: 40 230
LayerCount: 4
Fore
SplineSet
200 560 m 1
 40 720 l 1
 150 720 l 1
 270 560 l 1
 200 560 l 1
EndSplineSet
Validated: 1
EndChar

StartChar: braceleft
Encoding: 123 123 62
Width: 380
Flags: W
HStem: -160 60<275.585 340> 275 50<40 95.1562> 700 60<275.585 340>
VStem: 150 90<-59.3077 208.75 391.25 659.308>
CounterMasks: 1 e0
LayerCount: 4
Fore
SplineSet
340 760 m 1
 340 700 l 1
 260 700 240 645 240 540 c 0
 240 433 226 337 133 300 c 1
 226 263 240 167 240 60 c 0
 240 -45 260 -100 340 -100 c 1
 340 -160 l 1
 200 -160 150 -105 150 60 c 0
 150 180 130 265 40 275 c 1
 40 325 l 1
 130 335 150 420 150 540 c 0
 150 705 200 760 340 760 c 1
EndSplineSet
Validated: 1
EndChar

StartChar: bar
Encoding: 124 124 63
Width: 340
Flags: W
HStem: 740 20G<130 210>
VStem: 130 80<-160 760>
LayerCount: 4
Fore
SplineSet
130 760 m 1
 210 760 l 1
 210 -160 l 1
 130 -160 l 1
 130 760 l 1
EndSplineSet
Validated: 1
EndChar

StartChar: braceright
Encoding: 125 125 64
Width: 380
Flags: W
HStem: -160 60<40 104.415> 275 50<284.844 340> 700 60<40 104.415>
VStem: 140 90<-59.3077 208.75 391.25 659.308>
CounterMasks: 1 e0
LayerCount: 4
Fore
SplineSet
40 -160 m 1
 40 -100 l 1
 120 -100 140 -45 140 60 c 0
 140 167 154 263 247 300 c 1
 154 337 140 433 140 540 c 0
 140 645 120 700 40 700 c 1
 40 760 l 1
 180 760 230 705 230 540 c 0
 230 420 250 335 340 325 c 1
 340 275 l 1
 250 265 230 180 230 60 c 0
 230 -105 180 -160 40 -160 c 1
EndSplineSet
Validated: 1
EndChar

StartChar: asciitilde
Encoding: 126 126 65
Width: 520
Flags: W
HStem: 210 70<304.596 395.168> 300 70<124.832 215.404>
VStem: 40 70<210 285.746> 410 70<294.254 370>
LayerCount: 4
Fore
SplineSet
160 300 m 0
 133 300 110 274 110 210 c 1
 40 210 l 1
 40 313 95 370 160 370 c 0
 245 370 301 280 360 280 c 0
 387 280 410 306 410 370 c 1
 480 370 l 1
 480 267 425 210 360 210 c 0
 275 210 219 300 160 300 c 0
EndSplineSet
Validated: 1
EndChar

StartChar: v
Encoding: 118 118 66
Width: 500
Flags: W
HStem: 0 50<158 240> 480 20G<70 158 352 440>
VStem: 70 88<50 500> 352 88<162 500>
AnchorPoint: "bottom" 260 -30 basechar 0
AnchorPoint: "top" 260 550 basechar 0
LayerCount: 4
Fore
SplineSet
70 0 m 1
 70 500 l 1
 158 500 l 1
 158 50 l 1
 240 50 l 1
 352 162 l 1
 352 500 l 1
 440 500 l 1
 440 160 l 1
 280 0 l 1
 70 0 l 1
EndSplineSet
Validated: 1048577
EndChar

StartChar: at
Encoding: 64 64 67
Width: 750
Flags: W
HStem: 0 50<148 322 410 592> 250 50<148 322> 450 50<70 322> 590 150<70 145> 690 50<145 592>
VStem: 60 88<50 250> 70 75<590 690> 322 88<50 250 300 450> 592 88<50 690>
LayerCount: 4
Fore
SplineSet
60 0 m 1xed80
 60 300 l 1xed80
 322 300 l 1
 322 450 l 1
 70 450 l 1
 70 500 l 1
 410 500 l 1
 410 50 l 1
 592 50 l 1
 592 690 l 1
 145 690 l 1xeb80
 145 590 l 1
 70 590 l 1
 70 740 l 1xf380
 680 740 l 1
 680 0 l 1
 60 0 l 1xed80
148 50 m 1
 322 50 l 1
 322 250 l 1
 148 250 l 1
 148 50 l 1
EndSplineSet
Validated: 1
EndChar

StartChar: r
Encoding: 114 114 68
Width: 400
Flags: W
HStem: 0 21G<70 158> 400 100<285 360> 450 50<158 285>
VStem: 70 88<0 450> 285 75<400 450>
AnchorPoint: "bottom" 130 -30 basechar 0
AnchorPoint: "top" 210 550 basechar 0
LayerCount: 4
Fore
SplineSet
70 0 m 1xb8
 70 500 l 17xb8
 360 500 l 1
 360 400 l 1
 285 400 l 1xd8
 285 450 l 1
 158 450 l 1
 158 0 l 1
 70 0 l 1xb8
EndSplineSet
Validated: 1048577
EndChar

StartChar: a
Encoding: 97 97 69
Width: 480
Flags: W
HStem: 0 50<148 322 410 450> 250 50<148 322> 450 50<70 322>
VStem: 60 88<50 250> 322 88<50 250 300 450>
AnchorPoint: "bottom" 240 -30 basechar 0
AnchorPoint: "top" 230 550 basechar 0
AnchorPoint: "ogonek" 380 0 basechar 0
LayerCount: 4
Fore
SplineSet
60 0 m 1
 60 300 l 1
 322 300 l 1
 322 450 l 1
 70 450 l 1
 70 500 l 1
 410 500 l 1
 410 50 l 1
 450 50 l 1
 450 0 l 1
 60 0 l 1
148 50 m 1
 322 50 l 1
 322 250 l 1
 148 250 l 1
 148 50 l 1
EndSplineSet
Validated: 1048577
EndChar

StartChar: b
Encoding: 98 98 70
Width: 500
Flags: W
HStem: 0 50<158 342> 450 50<158 342>
VStem: 70 88<50 450 500 720> 342 88<50 450>
AnchorPoint: "bottom" 250 -30 basechar 0
AnchorPoint: "top" 114 790 basechar 0
LayerCount: 4
Fore
SplineSet
158 50 m 1
 342 50 l 1
 342 450 l 1
 158 450 l 1
 158 50 l 1
70 0 m 1
 70 720 l 1
 158 760 l 1
 158 500 l 1
 430 500 l 1
 430 0 l 1
 70 0 l 1
EndSplineSet
Validated: 1048577
EndChar

StartChar: c
Encoding: 99 99 71
Width: 480
Flags: W
HStem: 0 100<355 430> 0 50<158 355> 350 150<355 430> 450 50<158 355>
VStem: 70 88<50 450> 355 75<50 100 350 450>
AnchorPoint: "bottom" 250 -30 basechar 0
AnchorPoint: "top" 250 550 basechar 0
LayerCount: 4
Fore
SplineSet
70 0 m 1x4c
 70 500 l 1x5c
 430 500 l 1
 430 350 l 1
 355 350 l 1x2c
 355 450 l 1
 158 450 l 1
 158 50 l 1
 355 50 l 1x5c
 355 100 l 1
 430 100 l 1
 430 0 l 1x8c
 70 0 l 1x4c
EndSplineSet
Validated: 1048577
EndChar

StartChar: d
Encoding: 100 100 72
Width: 500
Flags: W
HStem: 0 50<158 342> 450 50<158 342>
VStem: 70 88<50 450> 342 88<50 450 500 720>
AnchorPoint: "bottom" 250 -30 basechar 0
AnchorPoint: "top" 386 790 basechar 0
LayerCount: 4
Fore
SplineSet
158 50 m 1
 342 50 l 1
 342 450 l 1
 158 450 l 1
 158 50 l 1
70 0 m 1
 70 500 l 1
 342 500 l 1
 342 720 l 1
 430 760 l 1
 430 0 l 1
 70 0 l 1
EndSplineSet
Validated: 1048577
EndChar

StartChar: e
Encoding: 101 101 73
Width: 500
Flags: W
HStem: 0 90<355 430> 0 50<158 355> 250 50<158 342> 450 50<158 342>
VStem: 70 88<50 250 300 450> 342 88<300 450> 355 75<50 90>
AnchorPoint: "bottom" 250 -30 basechar 0
AnchorPoint: "top" 250 550 basechar 0
AnchorPoint: "ogonek" 310 0 basechar 0
LayerCount: 4
Fore
SplineSet
70 0 m 1x7a
 70 500 l 1
 430 500 l 1
 430 250 l 1
 158 250 l 1
 158 50 l 1
 355 50 l 1x7a
 355 90 l 1
 430 90 l 1
 430 0 l 1xba
 70 0 l 1x7a
158 300 m 1
 342 300 l 1
 342 450 l 1x3c
 158 450 l 1
 158 300 l 1
EndSplineSet
Validated: 1048577
EndChar

StartChar: f
Encoding: 102 102 74
Width: 320
Flags: W
HStem: 0 21G<70 158> 0 21G<70 158> 450 50<158 310> 690 50<158 310>
VStem: 70 88<0 450 500 690>
AnchorPoint: "bottom" 160 -30 basechar 0
AnchorPoint: "top" 200 790 basechar 0
LayerCount: 4
Fore
SplineSet
70 0 m 1xb8
 70 740 l 17
 310 740 l 1
 310 690 l 1
 158 690 l 9
 158 500 l 17
 310 500 l 1
 310 450 l 1
 158 450 l 1
 158 0 l 1
 70 0 l 1xb8
EndSplineSet
Validated: 1048577
EndChar

StartChar: g
Encoding: 103 103 75
Width: 500
Flags: W
HStem: -200 50<100 342> 50 50<158 342> 450 50<158 342>
VStem: 70 88<100 450> 342 88<-150 50 100 450>
AnchorPoint: "bottom" 290 -230 basechar 0
AnchorPoint: "top" 250 550 basechar 0
LayerCount: 4
Fore
SplineSet
100 -200 m 1
 100 -150 l 1
 342 -150 l 1
 342 50 l 1
 70 50 l 1
 70 500 l 1
 430 500 l 1
 430 -200 l 1
 100 -200 l 1
158 100 m 1
 342 100 l 1
 342 450 l 1
 158 450 l 1
 158 100 l 1
EndSplineSet
Validated: 1048577
EndChar

StartChar: h
Encoding: 104 104 76
Width: 500
Flags: W
HStem: 0 21G<70 158 342 430> 450 50<158 342> 740 20G<114 158>
VStem: 70 88<0 450 500 720> 342 88<0 450>
AnchorPoint: "bottom" 255 -30 basechar 0
AnchorPoint: "top" 120 790 basechar 0
LayerCount: 4
Fore
SplineSet
70 0 m 1
 70 720 l 1
 158 760 l 1
 158 500 l 1
 430 500 l 1
 430 0 l 1
 342 0 l 1
 342 450 l 1
 158 450 l 1
 158 0 l 1
 70 0 l 1
EndSplineSet
Validated: 1048577
EndChar

StartChar: i
Encoding: 105 105 77
Width: 260
Flags: W
HStem: 0 21G<86 174> 480 20G<86 174> 610 130<70 190>
VStem: 70 120<610 740> 86 88<0 500>
AnchorPoint: "bottom" 130 -30 basechar 0
AnchorPoint: "top" 130 770 basechar 0
LayerCount: 4
Fore
SplineSet
70 610 m 1xf0
 70 740 l 1
 190 740 l 1
 190 610 l 1
 70 610 l 1xf0
86 0 m 1xe8
 86 500 l 1
 174 500 l 1
 174 0 l 1
 86 0 l 1xe8
EndSplineSet
Validated: 1048577
EndChar

StartChar: j
Encoding: 106 106 78
Width: 350
Flags: W
HStem: -200 150<0 75> -200 50<75 192> 450 50<30 192> 610 130<160 280>
VStem: 0 75<-150 -50> 160 120<610 740> 192 88<-150 450>
AnchorPoint: "bottom" 135 -230 basechar 0
AnchorPoint: "top" 220 770 basechar 0
LayerCount: 4
Fore
SplineSet
0 -200 m 1xba
 0 -50 l 1
 75 -50 l 1xba
 75 -150 l 1
 192 -150 l 1
 192 450 l 1
 30 450 l 1
 30 500 l 1
 280 500 l 1
 280 -200 l 1x7a
 0 -200 l 1xba
160 610 m 1x3c
 160 740 l 1
 280 740 l 1
 280 610 l 1
 160 610 l 1x3c
EndSplineSet
Validated: 1048577
EndChar

StartChar: k
Encoding: 107 107 79
Width: 500
Flags: W
HStem: 0 21G<70 158 342 430> 250 50<158 240 330 342> 480 20G<339 450> 740 20G<114 158>
VStem: 70 88<0 250 300 720> 342 88<0 250>
AnchorPoint: "bottom" 250 -30 basechar 0
AnchorPoint: "top" 114 790 basechar 0
LayerCount: 4
Fore
SplineSet
70 0 m 17
 70 720 l 17
 158 760 l 9
 158 300 l 25
 240 300 l 17
 350 500 l 1
 450 500 l 1
 330 300 l 1
 430 300 l 1
 430 0 l 1
 342 0 l 1
 342 250 l 1
 158 250 l 1
 158 0 l 9
 70 0 l 17
EndSplineSet
Validated: 1048577
EndChar

StartChar: l
Encoding: 108 108 80
Width: 260
Flags: W
HStem: 0 21G<86 174> 740 20G<130 174>
VStem: 86 88<0 720>
AnchorPoint: "bottom" 130 -30 basechar 0
AnchorPoint: "top" 130 790 basechar 0
AnchorPoint: "dot" 300 290 basechar 0
AnchorPoint: "comma" 280 720 basechar 0
LayerCount: 4
Fore
SplineSet
86 0 m 17
 86 720 l 17
 174 760 l 9
 174 0 l 9
 86 0 l 17
EndSplineSet
Validated: 1048577
EndChar

StartChar: m
Encoding: 109 109 81
Width: 700
Flags: W
HStem: 0 21G<70 158 306 394 542 630> 450 50<158 306 394 510>
VStem: 70 88<0 450> 306 88<0 450> 542 88<0 418>
CounterMasks: 1 38
AnchorPoint: "bottom" 350 -30 basechar 0
AnchorPoint: "top" 350 550 basechar 0
LayerCount: 4
Fore
SplineSet
70 0 m 1
 70 500 l 1
 550 500 l 1
 630 420 l 1
 630 0 l 1
 542 0 l 1
 542 418 l 1
 510 450 l 1
 394 450 l 1
 394 0 l 1
 306 0 l 1
 306 450 l 1
 158 450 l 1
 158 0 l 1
 70 0 l 1
EndSplineSet
Validated: 1048577
EndChar

StartChar: n
Encoding: 110 110 82
Width: 500
Flags: W
HStem: 0 21G<70 158 342 430> 450 50<158 310>
VStem: 70 88<0 450> 342 88<0 418>
AnchorPoint: "bottom" 250 -30 basechar 0
AnchorPoint: "top" 250 550 basechar 0
AnchorPoint: "comma" 70 720 basechar 0
LayerCount: 4
Fore
SplineSet
70 0 m 1
 70 500 l 1
 350 500 l 1
 430 420 l 1
 430 0 l 1
 342 0 l 1
 342 418 l 1
 310 450 l 1
 158 450 l 1
 158 0 l 1
 70 0 l 1
EndSplineSet
Validated: 1048577
EndChar

StartChar: o
Encoding: 111 111 83
Width: 500
Flags: W
HStem: 0 50<158 342> 450 50<158 342>
VStem: 70 88<50 450> 342 88<50 450>
AnchorPoint: "bottom" 250 -30 basechar 0
AnchorPoint: "horn" 410 350 basechar 0
AnchorPoint: "top" 250 550 basechar 0
AnchorPoint: "ogonek" 250 0 basechar 0
LayerCount: 4
Fore
SplineSet
158 50 m 1
 342 50 l 1
 342 450 l 1
 158 450 l 1
 158 50 l 1
70 0 m 1
 70 500 l 1
 430 500 l 1
 430 0 l 1
 70 0 l 1
EndSplineSet
Validated: 1048577
EndChar

StartChar: p
Encoding: 112 112 84
Width: 500
Flags: W
HStem: -220 21G<70 114> 0 50<158 342> 450 50<158 342>
VStem: 70 88<-180 0 50 450> 342 88<50 450>
AnchorPoint: "bottom" 114 -230 basechar 0
AnchorPoint: "top" 250 550 basechar 0
LayerCount: 4
Fore
SplineSet
158 50 m 1
 342 50 l 1
 342 450 l 1
 158 450 l 1
 158 50 l 1
70 -220 m 1
 70 500 l 1
 430 500 l 1
 430 0 l 1
 158 0 l 1
 158 -180 l 1
 70 -220 l 1
EndSplineSet
Validated: 1048577
EndChar

StartChar: q
Encoding: 113 113 85
Width: 500
Flags: W
HStem: -220 21G<342 386> 0 50<158 342> 450 50<158 342>
VStem: 70 88<50 450> 342 88<-180 0 50 450>
AnchorPoint: "bottom" 388 -230 basechar 0
AnchorPoint: "top" 250 550 basechar 0
LayerCount: 4
Fore
SplineSet
158 50 m 1
 342 50 l 1
 342 450 l 1
 158 450 l 1
 158 50 l 1
70 0 m 1
 70 500 l 1
 430 500 l 1
 430 -180 l 1
 342 -220 l 1
 342 0 l 1
 70 0 l 1
EndSplineSet
Validated: 1048577
EndChar

StartChar: s
Encoding: 115 115 86
Width: 500
Flags: W
HStem: 0 100<60 140> 0 50<140 342> 231 78<158 342> 420 80<350 430> 450 50<158 350>
VStem: 60 80<50 100> 70 88<309 450> 342 88<50 231> 350 80<420 450>
AnchorPoint: "bottom" 250 -30 basechar 0
AnchorPoint: "top" 250 550 basechar 0
LayerCount: 4
Fore
SplineSet
60 0 m 25xa480
 60 100 l 25
 140 100 l 25xa480
 140 50 l 25x6480
 342 50 l 25
 342 231 l 25
 70 231 l 25
 70 500 l 25x6b
 430 500 l 25
 430 420 l 17
 350 420 l 1x3280
 350 450 l 1
 158 450 l 9
 158 309 l 25
 430 309 l 25
 430 0 l 25x6a80
 60 0 l 25xa480
EndSplineSet
Validated: 1048577
EndChar

StartChar: t
Encoding: 116 116 87
Width: 300
Flags: W
HStem: 0 21G<106 194> 450 50<20 106 194 280>
VStem: 106 88<0 450 500 600>
AnchorPoint: "bottom" 150 -30 basechar 0
AnchorPoint: "top" 150 670 basechar 0
AnchorPoint: "comma" 290 720 basechar 0
LayerCount: 4
Fore
SplineSet
106 0 m 1
 106 450 l 1
 20 450 l 1
 20 500 l 1
 106 500 l 1
 106 600 l 1
 194 640 l 1
 194 500 l 1
 280 500 l 1
 280 450 l 1
 194 450 l 1
 194 0 l 1
 106 0 l 1
EndSplineSet
Validated: 1048577
EndChar

StartChar: u
Encoding: 117 117 88
Width: 500
Flags: W
HStem: 0 50<190 340> 480 20G<70 158 340 430>
VStem: 70 88<82 500> 340 90<50 500>
AnchorPoint: "bottom" 250 -30 basechar 0
AnchorPoint: "horn" 410 350 basechar 0
AnchorPoint: "top" 250 550 basechar 0
AnchorPoint: "ogonek" 370 0 basechar 0
LayerCount: 4
Fore
SplineSet
150 0 m 1
 70 80 l 1
 70 500 l 1
 158 500 l 1
 158 82 l 1
 190 50 l 1
 340 50 l 1
 340 500 l 1
 430 500 l 1
 430 0 l 1
 150 0 l 1
EndSplineSet
Validated: 1048577
EndChar

StartChar: w
Encoding: 119 119 89
Width: 700
Flags: W
HStem: 0 50<158 306 394 510> 480 20G<70 158 306 394 542 630>
VStem: 70 88<50 500> 306 88<50 500> 542 88<82 500>
CounterMasks: 1 38
AnchorPoint: "bottom" 350 -30 basechar 0
AnchorPoint: "top" 350 550 basechar 0
LayerCount: 4
Fore
SplineSet
70 0 m 1
 70 500 l 1
 158 500 l 1
 158 50 l 1
 306 50 l 1
 306 500 l 1
 394 500 l 1
 394 50 l 1
 510 50 l 1
 542 82 l 1
 542 500 l 1
 630 500 l 1
 630 80 l 1
 550 0 l 1
 70 0 l 1
EndSplineSet
Validated: 1048577
EndChar

StartChar: x
Encoding: 120 120 90
Width: 500
Flags: W
HStem: 0 21G<40 140.769 349.167 460> 480 20G<40 150.833 359.231 460>
AnchorPoint: "bottom" 250 -30 basechar 0
AnchorPoint: "top" 250 550 basechar 0
LayerCount: 4
Fore
SplineSet
360 0 m 25
 230 240 l 25
 370 500 l 1
 460 500 l 1
 310 250 l 1
 460 0 l 9
 360 0 l 25
40 0 m 1
 190 250 l 1
 40 500 l 9
 140 500 l 17
 270 260 l 1
 130 0 l 25
 40 0 l 1
EndSplineSet
Validated: 1048581
EndChar

StartChar: y
Encoding: 121 121 91
Width: 500
Flags: W
HStem: -200 50<70 342> 50 50<158 342> 480 20G<70 158 342 430>
VStem: 70 88<100 500> 342 88<-150 50 100 500>
AnchorPoint: "bottom" 250 -230 basechar 0
AnchorPoint: "top" 250 550 basechar 0
AnchorPoint: "ogonek" 500 0 basechar 0
LayerCount: 4
Fore
SplineSet
70 -200 m 1
 70 -150 l 1
 342 -150 l 1
 342 50 l 1
 70 50 l 1
 70 500 l 1
 158 500 l 1
 158 100 l 1
 342 100 l 1
 342 500 l 1
 430 500 l 1
 430 -200 l 1
 70 -200 l 1
EndSplineSet
Validated: 1048577
EndChar

StartChar: z
Encoding: 122 122 92
Width: 450
Flags: W
HStem: 0 50<140 390> 450 50<60 300>
VStem: 60 330<70 120>
AnchorPoint: "bottom" 230 -30 basechar 0
AnchorPoint: "top" 230 550 basechar 0
LayerCount: 4
Fore
SplineSet
60 0 m 25
 60 70 l 25
 300 450 l 17
 60 450 l 1
 60 500 l 25
 380 500 l 25
 380 430 l 25
 140 50 l 25
 390 50 l 25
 390 0 l 25
 60 0 l 25
EndSplineSet
Validated: 1048577
EndChar

StartChar: percent
Encoding: 37 37 93
Width: 960
Flags: W
HStem: 0 50<670 810> 290 50<670 810> 380 50<150 290> 670 50<150 290>
VStem: 70 80<430 670> 290 80<430 670> 590 80<50 290> 810 80<50 290>
LayerCount: 4
Fore
SplineSet
670 50 m 1
 810 50 l 1
 810 290 l 1
 670 290 l 1
 670 50 l 1
590 0 m 1
 590 340 l 1
 890 340 l 1
 890 0 l 1
 590 0 l 1
250 -40 m 1
 630 760 l 1
 710 760 l 1
 330 -40 l 1
 250 -40 l 1
150 430 m 1
 290 430 l 1
 290 670 l 1
 150 670 l 1
 150 430 l 1
70 380 m 1
 70 720 l 1
 370 720 l 1
 370 380 l 1
 70 380 l 1
EndSplineSet
Validated: 1
EndChar

StartChar: ampersand
Encoding: 38 38 94
Width: 620
Flags: W
HStem: 0 50<170 420> 360 50<170 200 270 420 510 580> 670 50<190 400>
VStem: 80 90<50 360> 100 90<510 670> 420 90<50 360 410 560>
LayerCount: 4
Fore
SplineSet
80 0 m 1xf4
 80 410 l 1xf4
 200 410 l 1
 100 510 l 1
 100 720 l 9
 400 720 l 17
 400 670 l 9
 190 670 l 17
 190 490 l 1xec
 270 410 l 9
 420 410 l 17
 420 560 l 1
 510 600 l 1
 510 410 l 1
 580 410 l 1
 580 360 l 1
 510 360 l 1
 510 0 l 1
 80 0 l 1xf4
170 50 m 1
 420 50 l 1
 420 360 l 1
 170 360 l 1
 170 50 l 1
EndSplineSet
Validated: 1
EndChar

StartChar: uni02BB
Encoding: 699 699 95
Width: 250
Flags: W
HStem: 530 130<115 185>
VStem: 65 120<530 660>
LayerCount: 4
Fore
SplineSet
65 530 m 1
 65 660 l 1
 140 800 l 1
 200 800 l 1
 115 660 l 1
 185 660 l 1
 185 530 l 1
 65 530 l 1
EndSplineSet
Validated: 1
EndChar

StartChar: uni02BC
Encoding: 700 700 96
Width: 250
Flags: W
HStem: 670 130<65 135>
VStem: 65 120<670 800>
LayerCount: 4
Fore
SplineSet
65 670 m 1
 65 800 l 1
 185 800 l 1
 185 670 l 1
 110 530 l 1
 50 530 l 1
 135 670 l 1
 65 670 l 1
EndSplineSet
Validated: 1
EndChar

StartChar: circumflex
Encoding: 710 710 97
Width: 320
Flags: W
HStem: 560 160
VStem: 10 300
LayerCount: 4
Fore
SplineSet
148 690 m 1
 172 690 l 1
 83 560 l 1
 10 560 l 1
 120 720 l 1
 200 720 l 1
 310 560 l 1
 237 560 l 1
 148 690 l 1
EndSplineSet
Validated: 5
EndChar

StartChar: caron
Encoding: 711 711 98
Width: 320
Flags: W
HStem: 560 160
VStem: 10 300
LayerCount: 4
Fore
SplineSet
172 590 m 1
 148 590 l 1
 237 720 l 1
 310 720 l 1
 200 560 l 1
 120 560 l 1
 10 720 l 1
 83 720 l 1
 172 590 l 1
EndSplineSet
Validated: 5
EndChar

StartChar: uni02C8
Encoding: 712 712 99
Width: 220
Flags: W
HStem: 500 220<80 140>
VStem: 80 60<500 720>
LayerCount: 4
Fore
SplineSet
140 720 m 1
 140 500 l 9
 80 500 l 17
 80 720 l 1
 140 720 l 1
EndSplineSet
Validated: 1
EndChar

StartChar: uni02C9
Encoding: 713 713 100
Width: 400
Flags: W
HStem: 560 70<50 350>
VStem: 50 300<560 630>
LayerCount: 4
Fore
SplineSet
50 560 m 5
 50 630 l 5
 350 630 l 5
 350 560 l 5
 50 560 l 5
EndSplineSet
Validated: 1
EndChar

StartChar: uni02CA
Encoding: 714 714 101
Width: 320
Flags: W
HStem: 560 160
VStem: 50 230
LayerCount: 4
Fore
SplineSet
120 560 m 5
 50 560 l 5
 170 720 l 5
 280 720 l 5
 120 560 l 5
EndSplineSet
Validated: 1
EndChar

StartChar: breve
Encoding: 728 728 103
Width: 400
Flags: W
HStem: 550 50<140.879 259.121>
VStem: 40 75<626.076 690> 285 75<626.076 690>
LayerCount: 4
Fore
SplineSet
360 690 m 1
 360 598 290 550 200 550 c 3
 110 550 40 598 40 690 c 1
 115 690 l 1
 115 638 145 600 200 600 c 3
 255 600 285 638 285 690 c 1
 360 690 l 1
EndSplineSet
Validated: 1
EndChar

StartChar: dotaccent
Encoding: 729 729 104
Width: 180
Flags: W
HStem: 570 130<30 150>
VStem: 30 120<570 700>
LayerCount: 4
Fore
SplineSet
30 570 m 1
 30 700 l 1
 150 700 l 1
 150 570 l 1
 30 570 l 1
EndSplineSet
Validated: 1
EndChar

StartChar: ring
Encoding: 730 730 105
Width: 280
Flags: W
HStem: 550 40<96.745 183.255> 710 40<96.745 183.255>
VStem: 40 45<600.225 699.775> 195 45<600.225 699.775>
LayerCount: 4
Fore
SplineSet
140 590 m 3
 180 590 195 620 195 650 c 3
 195 680 180 710 140 710 c 3
 100 710 85 680 85 650 c 3
 85 620 100 590 140 590 c 3
140 550 m 3
 80 550 40 590 40 650 c 3
 40 710 80 750 140 750 c 3
 200 750 240 710 240 650 c 3
 240 590 200 550 140 550 c 3
EndSplineSet
Validated: 1
EndChar

StartChar: ogonek
Encoding: 731 731 106
Width: 250
Flags: W
HStem: -160 50<150 220>
VStem: 90 60<-110 10>
LayerCount: 4
Fore
SplineSet
90 -160 m 1
 90 10 l 1
 150 10 l 1
 150 -110 l 1
 220 -110 l 1
 220 -160 l 1
 90 -160 l 1
EndSplineSet
Validated: 1
EndChar

StartChar: tilde
Encoding: 732 732 107
Width: 440
Flags: W
HStem: 560 70<232.234 334.821> 610 70<105.179 207.766>
VStem: 40 60<560 606.576> 340 60<633.424 680>
LayerCount: 4
Fore
SplineSet
140 610 m 3x70
 113 610 100 594 100 560 c 9
 40 560 l 17xb0
 40 633 85 680 140 680 c 3x70
 215 680 241 630 300 630 c 3xb0
 327 630 340 646 340 680 c 9
 400 680 l 17x70
 400 607 355 560 300 560 c 3xb0
 225 560 199 610 140 610 c 3x70
EndSplineSet
Validated: 1
EndChar

StartChar: hungarumlaut
Encoding: 733 733 108
Width: 500
Flags: W
HStem: 560 160
LayerCount: 4
Fore
SplineSet
120 560 m 1
 50 560 l 1
 150 720 l 1
 260 720 l 1
 120 560 l 1
320 560 m 1
 250 560 l 1
 350 720 l 1
 460 720 l 1
 320 560 l 1
EndSplineSet
Validated: 1
EndChar

StartChar: acutecomb
Encoding: 769 769 110
Width: 0
Flags: W
HStem: 560 160
VStem: -100 230
AnchorPoint: "Altnidrig-mktop" 0 750 basemark 0
AnchorPoint: "Altnidrig-mktop" 0 560 mark 0
AnchorPoint: "top" 0 530 mark 0
LayerCount: 4
Fore
SplineSet
-30 560 m 1
 -100 560 l 1
 20 720 l 1
 130 720 l 1
 -30 560 l 1
EndSplineSet
Validated: 1
EndChar

StartChar: uni0307
Encoding: 775 775 115
Width: 0
Flags: W
HStem: 570 130<-60 60>
VStem: -60 120<570 700>
AnchorPoint: "Altnidrig-mktop" 0 730 basemark 0
AnchorPoint: "Altnidrig-mktop" 0 560 mark 0
AnchorPoint: "top" 0 530 mark 0
LayerCount: 4
Fore
SplineSet
-60 570 m 1
 -60 700 l 1
 60 700 l 1
 60 570 l 1
 -60 570 l 1
EndSplineSet
Validated: 1
EndChar

StartChar: uni0308
Encoding: 776 776 116
Width: 0
Flags: W
HStem: 570 130<-160 -70 60 150>
VStem: -160 90<570 700> 60 90<570 700>
AnchorPoint: "Altnidrig-mktop" 0 730 basemark 0
AnchorPoint: "Altnidrig-mktop" 0 560 mark 0
AnchorPoint: "top" 0 530 mark 0
LayerCount: 4
Fore
SplineSet
60 570 m 1
 60 700 l 1
 150 700 l 1
 150 570 l 1
 60 570 l 1
-160 570 m 1
 -160 700 l 1
 -70 700 l 1
 -70 570 l 1
 -160 570 l 1
EndSplineSet
Validated: 1
EndChar

StartChar: hookabovecomb
Encoding: 777 777 117
Width: 0
Flags: W
HStem: 560 40<-10 30> 660 40<-90 30>
VStem: -10 100<560 600> 30 60<600 660>
AnchorPoint: "Altnidrig-mktop" 0 730 basemark 0
AnchorPoint: "Altnidrig-mktop" 0 560 mark 0
AnchorPoint: "top" 0 530 mark 0
LayerCount: 4
Fore
SplineSet
-10 560 m 1xe0
 -10 600 l 1xe0
 30 600 l 1
 30 660 l 1
 -90 660 l 1
 -90 700 l 1
 90 700 l 1xd0
 90 560 l 1
 -10 560 l 1xe0
EndSplineSet
Validated: 1
EndChar

StartChar: uni030F
Encoding: 783 783 121
Width: 0
Flags: W
HStem: 560 160
AnchorPoint: "Altnidrig-mktop" 0 560 mark 0
AnchorPoint: "Altnidrig-mktop" 0 750 basemark 0
AnchorPoint: "top" 0 530 mark 0
LayerCount: 4
Fore
SplineSet
-20 560 m 1
 -90 560 l 1
 -230 720 l 1
 -120 720 l 1
 -20 560 l 1
180 560 m 1
 110 560 l 1
 -30 720 l 1
 80 720 l 1
 180 560 l 1
EndSplineSet
Validated: 1
EndChar

StartChar: uni0311
Encoding: 785 785 122
Width: 0
Flags: W
HStem: 650 50<-59.1214 59.1214>
VStem: -160 75<560 623.924> 85 75<560 623.924>
AnchorPoint: "Altnidrig-mktop" 0 560 mark 0
AnchorPoint: "Altnidrig-mktop" 0 720 basemark 0
AnchorPoint: "top" 0 530 mark 0
LayerCount: 4
Fore
SplineSet
-160 560 m 1
 -160 652 -90 700 0 700 c 3
 90 700 160 652 160 560 c 1
 85 560 l 1
 85 612 55 650 0 650 c 3
 -55 650 -85 612 -85 560 c 1
 -160 560 l 1
EndSplineSet
Validated: 1
EndChar

StartChar: uni031B
Encoding: 795 795 126
Width: 0
Flags: W
HStem: 320 40<-20 80> 480 20G<80 140>
VStem: 80 60<360 500>
AnchorPoint: "horn" -20 350 mark 0
LayerCount: 4
Fore
SplineSet
-20 320 m 1
 -20 360 l 1
 80 360 l 1
 80 500 l 1
 140 500 l 1
 140 320 l 1
 -20 320 l 1
EndSplineSet
Validated: 1
EndChar

StartChar: dotbelowcomb
Encoding: 803 803 127
Width: 0
Flags: W
HStem: -160 90<-45 45>
VStem: -45 90<-160 -70>
AnchorPoint: "bottom" 0 -30 mark 0
LayerCount: 4
Fore
SplineSet
-45 -160 m 1
 -45 -70 l 1
 45 -70 l 1
 45 -160 l 1
 -45 -160 l 1
EndSplineSet
Validated: 1
EndChar

StartChar: uni0326
Encoding: 806 806 128
Width: 0
Flags: W
HStem: -160 90<-45 5>
VStem: -45 90<-160 -70>
AnchorPoint: "bottom" 0 -30 mark 0
LayerCount: 4
Fore
SplineSet
-45 -160 m 1
 -45 -70 l 1
 45 -70 l 1
 45 -160 l 1
 0 -240 l 1
 -50 -240 l 1
 5 -160 l 1
 -45 -160 l 1
EndSplineSet
Validated: 1
EndChar

StartChar: dotlessi
Encoding: 305 305 184
Width: 260
Flags: W
HStem: 0 21G<86 174> 480 20G<86 174>
VStem: 86 88<0 500>
AnchorPoint: "bottom" 130 -30 basechar 0
AnchorPoint: "top" 130 550 basechar 0
LayerCount: 4
Fore
SplineSet
86 0 m 1
 86 500 l 1
 174 500 l 1
 174 0 l 1
 86 0 l 1
EndSplineSet
Validated: 1048577
EndChar

StartChar: uni0237
Encoding: 567 567 185
Width: 350
Flags: W
HStem: -200 50<75 192> -20 20G<0 75> 450 50<30 192>
VStem: 0 75<-150 0> 192 88<-150 450>
AnchorPoint: "bottom" 135 -230 basechar 0
AnchorPoint: "top" 220 550 basechar 0
LayerCount: 4
Fore
SplineSet
0 -200 m 1
 0 0 l 1
 75 0 l 1
 75 -150 l 1
 192 -150 l 1
 192 450 l 1
 30 450 l 1
 30 500 l 1
 280 500 l 1
 280 -200 l 1
 0 -200 l 1
EndSplineSet
Validated: 1048577
EndChar

StartChar: multiply
Encoding: 215 215 186
Width: 500
VWidth: 1040
Flags: W
LayerCount: 4
Fore
SplineSet
110 93 m 1
 53 150 l 1
 193 290 l 1
 53 430 l 1
 110 487 l 1
 250 347 l 1
 390 487 l 1
 447 430 l 1
 307 290 l 1
 447 150 l 1
 390 93 l 1
 250 233 l 1
 110 93 l 1
EndSplineSet
Validated: 1
EndChar

StartChar: divide
Encoding: 247 247 187
Width: 500
VWidth: 1040
Flags: W
HStem: 50 110<190 310> 250 80<40 460> 420 110<190 310>
VStem: 190 120<50 160 420 530>
CounterMasks: 1 e0
LayerCount: 4
Fore
SplineSet
190 420 m 1
 190 530 l 1
 310 530 l 1
 310 420 l 1
 190 420 l 1
190 50 m 1
 190 160 l 1
 310 160 l 1
 310 50 l 1
 190 50 l 1
40 250 m 1
 40 330 l 1
 460 330 l 1
 460 250 l 1
 40 250 l 1
EndSplineSet
Validated: 1
EndChar

StartChar: Oslash
Encoding: 216 216 188
Width: 570
Flags: W
HStem: 0 50<170 400> 670 50<170 400>
VStem: 80 90<50 670> 400 90<50 670>
AnchorPoint: "bottom" 290 -30 basechar 0
AnchorPoint: "top" 290 770 basechar 0
AnchorPoint: "ogonek" 290 0 basechar 0
LayerCount: 4
Back
SplineSet
375 780 m 1
 430 780 l 1
 195 -60 l 1
 140 -60 l 1
 375 780 l 1
170 50 m 1
 400 50 l 1
 400 670 l 1
 170 670 l 1
 170 50 l 1
80 0 m 1
 80 720 l 1
 490 720 l 1
 490 0 l 1
 80 0 l 1
EndSplineSet
Fore
SplineSet
375 780 m 1
 430 780 l 1
 195 -60 l 1
 140 -60 l 1
 375 780 l 1
EndSplineSet
Refer: 27 79 N 1 0 0 1 0 0 2
Validated: 1048581
EndChar

StartChar: AE
Encoding: 198 198 189
Width: 820
Flags: W
HStem: 0 50<480 760> 230 50<170 390> 350 50<480 730> 670 50<170 390 480 760>
VStem: 80 90<0 230 280 670> 390 90<50 230 280 350 400 670>
AnchorPoint: "top" 435 770 basechar 0
AnchorPoint: "bottom" 435 -30 basechar 0
LayerCount: 4
Fore
SplineSet
80 0 m 1
 80 720 l 1
 760 720 l 1
 760 670 l 1
 480 670 l 1
 480 400 l 1
 730 400 l 1
 730 350 l 1
 480 350 l 1
 480 50 l 1
 760 50 l 1
 760 0 l 1
 390 0 l 1
 390 230 l 1
 170 230 l 1
 170 0 l 1
 80 0 l 1
170 280 m 1
 390 280 l 1
 390 670 l 1
 170 670 l 1
 170 280 l 1
EndSplineSet
Validated: 1048577
EndChar

StartChar: Eth
Encoding: 208 208 190
Width: 570
Flags: W
HStem: 0 50<170 340> 330 60<40 310> 670 50<70 340>
VStem: 80 90<50 520> 400 90<110 610>
CounterMasks: 1 e0
AnchorPoint: "top" 280 770 basechar 0
AnchorPoint: "bottom" 280 -30 basechar 0
LayerCount: 4
Fore
SplineSet
40 330 m 1
 40 390 l 1
 310 390 l 1
 310 330 l 1
 40 330 l 1
80 0 m 1
 80 520 l 1
 170 520 l 1
 170 50 l 1
 340 50 l 1
 400 110 l 1
 400 610 l 1
 340 670 l 1
 70 670 l 1
 70 720 l 1
 380 720 l 1
 490 610 l 1
 490 110 l 1
 380 0 l 1
 80 0 l 1
EndSplineSet
Validated: 1048581
EndChar

StartChar: eth
Encoding: 240 240 191
Width: 500
Flags: W
HStem: 0 50<158 342> 450 50<158 342> 720 20G<132 246.667>
VStem: 70 88<50 450> 342 88<50 450>
AnchorPoint: "top" 180 790 basechar 0
AnchorPoint: "bottom" 290 -30 basechar 0
LayerCount: 4
Fore
SplineSet
120 560 m 1
 120 620 l 1
 430 660 l 1
 430 600 l 1
 120 560 l 1
158 50 m 1
 342 50 l 1
 342 450 l 1
 158 450 l 1
 158 50 l 1
70 0 m 1
 70 500 l 1
 342 500 l 1
 132 740 l 1
 230 740 l 1
 430 500 l 1
 430 0 l 1
 70 0 l 1
EndSplineSet
Validated: 1048581
EndChar

StartChar: Dcroat
Encoding: 272 272 192
Width: 590
Flags: W
HStem: 0 50<170 340> 330 60<30 260> 670 50<70 340>
VStem: 80 90<50 520> 400 90<110 610>
CounterMasks: 1 e0
AnchorPoint: "bottom" 270 -30 basechar 0
AnchorPoint: "top" 270 770 basechar 0
LayerCount: 4
Fore
SplineSet
30 330 m 1
 30 390 l 1
 260 390 l 1
 260 330 l 1
 30 330 l 1
EndSplineSet
Refer: 15 68 N 1 0 0 1 0 0 2
Validated: 1048581
EndChar

StartChar: oslash
Encoding: 248 248 194
Width: 500
Flags: W
HStem: 0 50<158 342> 480 20G<70 430>
VStem: 70 88<50 450> 342 88<50 450>
AnchorPoint: "bottom" 250 -30 basechar 0
AnchorPoint: "horn" 410 350 basechar 0
AnchorPoint: "top" 250 550 basechar 0
AnchorPoint: "ogonek" 250 0 basechar 0
LayerCount: 4
Fore
SplineSet
315 560 m 1
 370 560 l 1
 185 -60 l 1
 130 -60 l 1
 315 560 l 1
158 50 m 1
 342 50 l 1
 342 450 l 1
 158 450 l 1
 158 50 l 1
70 0 m 1
 70 500 l 1
 430 500 l 1
 430 0 l 1
 70 0 l 1
EndSplineSet
Validated: 1048581
EndChar

StartChar: ae
Encoding: 230 230 195
Width: 750
Flags: W
HStem: 0 90<605 680> 0 50<148 321 409 605> 250 50<148 321 409 592> 450 50<70 321 409 592>
VStem: 60 88<50 250> 321 88<50 250 300 450> 592 88<300 450> 605 75<50 90>
AnchorPoint: "top" 360 550 basechar 0
AnchorPoint: "bottom" 360 -30 basechar 0
LayerCount: 4
Fore
SplineSet
60 0 m 1x7d
 60 300 l 1
 321 300 l 1
 321 450 l 1
 70 450 l 1
 70 500 l 1
 680 500 l 1
 680 250 l 1
 409 250 l 1
 409 50 l 1
 605 50 l 1x7d
 605 90 l 1
 680 90 l 1
 680 0 l 1xbd
 60 0 l 1x7d
409 300 m 1
 592 300 l 1
 592 450 l 1x3e
 409 450 l 1
 409 300 l 1
148 50 m 1x7c
 321 50 l 1
 321 250 l 1
 148 250 l 1
 148 50 l 1x7c
EndSplineSet
Validated: 1048577
EndChar

StartChar: Thorn
Encoding: 222 222 196
Width: 560
Flags: W
HStem: 0 21G<80 170> 150 50<170 410> 540 50<170 410> 700 20G<80 170>
VStem: 80 90<0 150 200 540 590 720> 410 90<200 540>
AnchorPoint: "bottom" 125 -30 basechar 0
AnchorPoint: "top" 125 770 basechar 0
LayerCount: 4
Fore
SplineSet
170 200 m 1
 410 200 l 1
 410 540 l 1
 170 540 l 1
 170 200 l 1
80 0 m 1
 80 720 l 1
 170 720 l 1
 170 590 l 1
 500 590 l 1
 500 150 l 9
 170 150 l 25
 170 0 l 25
 80 0 l 1
EndSplineSet
Validated: 1048577
EndChar

StartChar: thorn
Encoding: 254 254 197
Width: 500
Flags: W
HStem: -220 21G<70 114> 0 50<158 342> 450 50<158 342> 720 20G<114 158>
VStem: 70 88<-180 0 50 450 500 700> 342 88<50 450>
AnchorPoint: "top" 114 790 basechar 0
AnchorPoint: "bottom" 114 -230 basechar 0
LayerCount: 4
Fore
SplineSet
70 -220 m 1
 70 700 l 1
 158 740 l 1
 158 500 l 1
 430 500 l 1
 430 0 l 1
 158 0 l 1
 158 -180 l 1
 70 -220 l 1
158 50 m 1
 342 50 l 1
 342 450 l 1
 158 450 l 1
 158 50 l 1
EndSplineSet
Validated: 1048577
EndChar

StartChar: dieresis
Encoding: 168 168 198
Width: 450
Flags: W
HStem: 610 130<70 160 290 380>
VStem: 70 90<610 740> 290 90<610 740>
LayerCount: 4
Fore
SplineSet
290 610 m 5
 290 740 l 5
 380 740 l 5
 380 610 l 5
 290 610 l 5
70 610 m 5
 70 740 l 5
 160 740 l 5
 160 610 l 5
 70 610 l 5
EndSplineSet
Validated: 1
EndChar

StartChar: exclamdown
Encoding: 161 161 199
Width: 250
Flags: W
HStem: 410 110<75 175>
VStem: 75 100<-200 150 410 520> 85 80<-50 300>
LayerCount: 4
Fore
SplineSet
165 300 m 1xa0
 175 -200 l 9
 75 -200 l 17xc0
 85 300 l 25
 165 300 l 1xa0
175 520 m 1
 175 410 l 1
 75 410 l 1
 75 520 l 1
 175 520 l 1
EndSplineSet
Validated: 1
EndChar

StartChar: cent
Encoding: 162 162 200
Width: 480
Flags: W
HStem: 0 100<355 430> 0 50<158 210 290 355> 350 150<355 430> 450 50<158 210 290 355>
VStem: 70 88<50 450> 210 80<-120 0 500 620> 355 75<50 100 350 450>
LayerCount: 4
Back
SplineSet
210 -120 m 1x8380
 210 30 l 1
 290 30 l 1
 290 -120 l 1
 210 -120 l 1x8380
210 470 m 1x0780
 210 620 l 1
 290 620 l 1
 290 470 l 1
 210 470 l 1x0780
EndSplineSet
Refer: 71 99 N 1 0 0 1 0 0 2
Fore
SplineSet
210 -120 m 1x4e
 210 0 l 1
 70 0 l 1
 70 500 l 1
 210 500 l 1
 210 620 l 1
 290 620 l 1
 290 500 l 1x5e
 430 500 l 1
 430 350 l 1
 355 350 l 1x2e
 355 450 l 1
 158 450 l 1
 158 50 l 1
 355 50 l 1x5e
 355 100 l 1
 430 100 l 1
 430 0 l 1x8e
 290 0 l 1
 290 -120 l 1
 210 -120 l 1x4e
EndSplineSet
Validated: 8388609
EndChar

StartChar: sterling
Encoding: 163 163 201
Width: 500
Flags: W
HStem: 0 80<130 470> 330 60<30 100 190 330> 670 50<190 380>
VStem: 100 90<140 330 390 670> 380 80<520 670>
AnchorPoint: "bottom" 260 -30 basechar 0
AnchorPoint: "top" 260 770 basechar 0
LayerCount: 4
Fore
SplineSet
30 0 m 1
 30 50 l 1
 100 120 l 1
 100 330 l 1
 30 330 l 1
 30 390 l 1
 100 390 l 1
 100 720 l 1
 460 720 l 1
 460 520 l 1
 380 520 l 1
 380 670 l 1
 190 670 l 1
 190 390 l 1
 330 390 l 1
 330 330 l 1
 190 330 l 1
 190 140 l 1
 130 80 l 1
 470 80 l 1
 470 0 l 1
 30 0 l 1
EndSplineSet
Validated: 1048577
EndChar

StartChar: currency
Encoding: 164 164 202
Width: 600
Flags: W
HStem: 160 70<222.575 377.425> 490 70<223.764 376.236>
VStem: 100 75<278.712 443.331> 425 75<278.712 443.331>
LayerCount: 4
Fore
SplineSet
383 225 m 1
 440 282 l 1
 562 160 l 1
 505 103 l 1
 383 225 l 1
160 282 m 1
 217 225 l 1
 95 103 l 1
 38 160 l 1
 160 282 l 1
217 500 m 1
 160 443 l 1
 38 565 l 1
 95 622 l 1
 217 500 l 1
440 443 m 1
 383 500 l 1
 505 622 l 1
 562 565 l 1
 440 443 l 1
300 160 m 3
 180 160 100 241 100 360 c 3
 100 479 180 560 300 560 c 3
 420 560 500 479 500 360 c 3
 500 241 420 160 300 160 c 3
300 490 m 3
 230 490 175 450 175 360 c 3
 175 269 230 230 300 230 c 3
 370 230 425 269 425 360 c 3
 425 450 370 490 300 490 c 3
EndSplineSet
Validated: 5
EndChar

StartChar: yen
Encoding: 165 165 203
Width: 520
Flags: W
HStem: 0 21G<215 305> 90 50<50 215 305 470> 220 50<50 215 305 470> 370 50<160 215 305 360> 700 20G<70 160 360 450>
VStem: 70 90<420 720> 215 90<0 90 140 220 270 370> 360 90<420 720>
CounterMasks: 1 07
LayerCount: 4
Fore
SplineSet
215 0 m 1
 215 90 l 1
 50 90 l 1
 50 140 l 1
 215 140 l 1
 215 220 l 1
 50 220 l 1
 50 270 l 1
 215 270 l 1
 215 370 l 1
 70 370 l 1
 70 720 l 1
 160 720 l 1
 160 420 l 1
 360 420 l 1
 360 720 l 1
 450 720 l 1
 450 370 l 1
 305 370 l 1
 305 270 l 1
 470 270 l 1
 470 220 l 1
 305 220 l 1
 305 140 l 1
 470 140 l 1
 470 90 l 1
 305 90 l 1
 305 0 l 1
 215 0 l 1
EndSplineSet
Validated: 1
EndChar

StartChar: brokenbar
Encoding: 166 166 204
Width: 340
Flags: W
HStem: 740 20G<130 210>
VStem: 130 80<-160 240 360 760>
LayerCount: 4
Fore
SplineSet
130 240 m 1
 210 240 l 1
 210 -160 l 1
 130 -160 l 1
 130 240 l 1
130 760 m 1
 210 760 l 1
 210 360 l 1
 130 360 l 1
 130 760 l 1
EndSplineSet
Validated: 1
EndChar

StartChar: section
Encoding: 167 167 205
Width: 540
Flags: W
HStem: -160 100<80 160> -160 50<160 372> 101 78<178 372> 401 78<178 372> 640 80<380 460> 670 50<178 380>
VStem: 80 80<-110 -60> 90 88<179 231 479 670> 372 88<-110 101 349 401> 380 80<640 670>
LayerCount: 4
Back
SplineSet
60 -160 m 1xb240
 60 -60 l 1
 140 -60 l 1xb240
 140 -110 l 1x7240
 432 -110 l 1
 432 91 l 1
 70 91 l 1
 70 301 l 1
 180 411 l 1
 70 411 l 1
 70 720 l 1x7580
 520 720 l 1
 520 640 l 1
 450 640 l 1x3940
 450 670 l 1
 158 670 l 1
 158 489 l 1
 520 489 l 1x3540
 520 279 l 1x3480
 410 169 l 1
 520 169 l 1
 520 -160 l 1x7440
 60 -160 l 1xb240
158 169 m 1x3180
 340 169 l 1
 432 261 l 1
 432 411 l 1
 250 411 l 1
 158 319 l 1
 158 169 l 1x3180
EndSplineSet
Fore
SplineSet
372 261 m 1x3480
 372 401 l 1
 90 401 l 1
 90 720 l 1x3580
 460 720 l 1
 460 640 l 1
 380 640 l 1x3940
 380 670 l 1
 178 670 l 1
 178 479 l 1
 460 479 l 1x3540
 460 349 l 1
 372 261 l 1x3480
80 -160 m 1xb240
 80 -60 l 1
 160 -60 l 1xb240
 160 -110 l 1
 372 -110 l 1
 372 101 l 1x7280
 90 101 l 1
 90 231 l 1
 178 319 l 1
 178 179 l 1
 460 179 l 1
 460 -160 l 1x7140
 80 -160 l 1xb240
EndSplineSet
Validated: 1
EndChar

StartChar: copyright
Encoding: 169 169 206
Width: 860
Flags: W
HStem: -10 50<315.803 544.197> 140 60<362.598 493.377> 520 60<364.669 493.377> 680 50<315.803 544.197>
VStem: 70 55<236.221 483.573> 240 75<253.946 465.839> 735 55<236.221 483.573>
LayerCount: 4
Fore
SplineSet
525 270 m 9
 590 240 l 17
 570 180 511 140 430 140 c 3
 340 140 240 201 240 360 c 3
 240 519 340 580 430 580 c 3
 511 580 570 540 590 480 c 9
 525 450 l 17
 515 490 480 520 430 520 c 3
 360 520 315 470 315 360 c 3
 315 249 360 200 430 200 c 3
 480 200 515 230 525 270 c 9
430 -10 m 3
 230 -10 70 141 70 360 c 3
 70 579 230 730 430 730 c 3
 630 730 790 579 790 360 c 3
 790 141 630 -10 430 -10 c 3
430 680 m 3
 260 680 125 550 125 360 c 3
 125 169 260 40 430 40 c 3
 600 40 735 169 735 360 c 3
 735 550 600 680 430 680 c 3
EndSplineSet
Validated: 1
EndChar

StartChar: guillemotleft
Encoding: 171 171 207
Width: 550
Flags: W
HStem: 0 21G<198 300 398 500> 480 20G<198 300 398 500>
LayerCount: 4
Fore
SplineSet
260 250 m 25
 410 500 l 25
 500 500 l 25
 350 250 l 25
 500 0 l 25
 410 0 l 25
 260 250 l 25
60 250 m 25
 210 500 l 25
 300 500 l 25
 150 250 l 25
 300 0 l 25
 210 0 l 25
 60 250 l 25
EndSplineSet
Validated: 1
EndChar

StartChar: logicalnot
Encoding: 172 172 208
Width: 500
Flags: W
HStem: 310 80<40 350>
VStem: 350 80<110 310>
LayerCount: 4
Fore
SplineSet
40 310 m 1
 40 390 l 1
 430 390 l 1
 430 110 l 1
 350 110 l 1
 350 310 l 1
 40 310 l 1
EndSplineSet
Validated: 1
EndChar

StartChar: registered
Encoding: 174 174 210
Width: 860
Flags: W
HStem: -10 50<315.803 544.197> 310 60<340 500> 310 30<440 510> 510 60<340 518.447> 680 50<315.803 544.197>
VStem: 70 55<236.221 483.573> 270 70<150 310 370 510> 535 75<388.137 491.863> 735 55<236.221 483.573>
LayerCount: 4
Fore
SplineSet
610 150 m 1xbf80
 530 150 l 1
 440 340 l 1
 510 340 l 1
 610 150 l 1xbf80
340 310 m 1xdf80
 340 150 l 1
 270 150 l 1
 270 570 l 1
 460 570 l 2
 560 570 610 520 610 440 c 0
 610 360 550 310 480 310 c 2
 340 310 l 1xdf80
340 370 m 1
 460 370 l 2
 500 370 535 390 535 440 c 0
 535 490 500 510 460 510 c 2
 340 510 l 1
 340 370 l 1
430 -10 m 3
 230 -10 70 141 70 360 c 3
 70 579 230 730 430 730 c 3
 630 730 790 579 790 360 c 3
 790 141 630 -10 430 -10 c 3
430 680 m 3
 260 680 125 550 125 360 c 3
 125 169 260 40 430 40 c 3
 600 40 735 169 735 360 c 3
 735 550 600 680 430 680 c 3
EndSplineSet
Validated: 5
EndChar

StartChar: macron
Encoding: 175 175 211
Width: 400
Flags: W
HStem: 560 70<50 350>
VStem: 50 300<560 630>
LayerCount: 4
Fore
SplineSet
50 560 m 1
 50 630 l 1
 350 630 l 1
 350 560 l 1
 50 560 l 1
EndSplineSet
Validated: 1
EndChar

StartChar: degree
Encoding: 176 176 212
Width: 440
Flags: W
HStem: 430 60<164.345 275.655> 670 60<164.345 275.655>
VStem: 70 65<518.981 641.019> 305 65<518.981 641.019>
LayerCount: 4
Fore
SplineSet
220 490 m 3
 270 490 305 530 305 580 c 3
 305 630 270 670 220 670 c 3
 170 670 135 630 135 580 c 3
 135 530 170 490 220 490 c 3
220 430 m 3
 130 430 70 490 70 580 c 3
 70 670 130 730 220 730 c 3
 310 730 370 670 370 580 c 3
 370 490 310 430 220 430 c 3
EndSplineSet
Validated: 1
EndChar

StartChar: plusminus
Encoding: 177 177 213
Width: 540
Flags: W
HStem: 80 80<60 480> 310 80<60 480> 480 20G<230 310>
VStem: 230 80<200 500>
LayerCount: 4
Fore
SplineSet
60 80 m 1
 60 160 l 1
 480 160 l 1
 480 80 l 1
 60 80 l 1
310 200 m 1
 230 200 l 1
 230 500 l 1
 310 500 l 1
 310 200 l 1
60 310 m 1
 60 390 l 1
 480 390 l 1
 480 310 l 1
 60 310 l 1
EndSplineSet
Validated: 5
EndChar

StartChar: acute
Encoding: 180 180 214
Width: 320
Flags: W
HStem: 560 160
VStem: 50 230
LayerCount: 4
Fore
SplineSet
120 560 m 1
 50 560 l 1
 170 720 l 1
 280 720 l 1
 120 560 l 1
EndSplineSet
Validated: 1
EndChar

StartChar: paragraph
Encoding: 182 182 215
Width: 550
Flags: W
HStem: -220 21G<240 275 390 425> 636 70<310 390>
VStem: 40 270<453.795 619.74> 240 70<-180 356> 390 70<-180 636>
LayerCount: 4
Fore
SplineSet
40 536 m 0xe8
 40 636 120 706 220 706 c 2
 460 706 l 1
 460 -180 l 1
 390 -220 l 1
 390 636 l 1
 310 636 l 1
 310 -180 l 1
 240 -220 l 1
 240 356 l 1xd8
 120 356 40 436 40 536 c 0xe8
EndSplineSet
Validated: 1
EndChar

StartChar: cedilla
Encoding: 184 184 217
Width: 250
Flags: W
HStem: -160 50<30 100>
VStem: 100 60<-110 10>
LayerCount: 4
Fore
SplineSet
30 -160 m 1
 30 -110 l 1
 100 -110 l 1
 100 10 l 1
 160 10 l 1
 160 -160 l 1
 30 -160 l 1
EndSplineSet
Validated: 1
EndChar

StartChar: guillemotright
Encoding: 187 187 218
Width: 550
Flags: W
HStem: 0 21G<50 152 250 352> 480 20G<50 152 250 352>
LayerCount: 4
Fore
SplineSet
290 250 m 25
 140 0 l 25
 50 0 l 25
 200 250 l 25
 50 500 l 25
 140 500 l 25
 290 250 l 25
490 250 m 25
 340 0 l 25
 250 0 l 25
 400 250 l 25
 250 500 l 25
 340 500 l 25
 490 250 l 25
EndSplineSet
Validated: 1
EndChar

StartChar: germandbls
Encoding: 223 223 330
Width: 550
Flags: W
HStem: 0 50<230 392> 400 50<240 268 338 392> 690 50<158 382>
VStem: 70 88<0 690> 382 88<582 690> 392 88<50 400>
AnchorPoint: "top" 270 790 basechar 0
AnchorPoint: "bottom" 270 -30 basechar 0
LayerCount: 4
Back
SplineSet
70 0 m 25x7e
 70 740 l 25
 470 740 l 25
 470 582 l 25x7e
 338 450 l 25
 480 450 l 25
 480 0 l 25x7d
 230 0 l 25
 230 100 l 25
 310 100 l 25xbd
 310 50 l 25
 392 50 l 25
 392 400 l 25x7d
 240 400 l 25
 240 450 l 25
 268 450 l 25
 382 564 l 25
 382 690 l 25
 158 690 l 25
 158 0 l 25
 70 0 l 25x7e
  Spiro
    70 0 v
    70 740 v
    470 740 v
    470 582 v
    338 450 v
    480 450 v
    480 0 v
    230 0 v
    230 100 v
    310 100 v
    310 50 v
    392 50 v
    392 400 v
    240 400 v
    240 450 v
    268 450 v
    382 564 v
    382 690 v
    158 690 v
    158 0 v
    0 0 z
  EndSpiro
EndSplineSet
Fore
SplineSet
70 0 m 25xf8
 70 740 l 25
 470 740 l 25
 470 582 l 25xf8
 338 450 l 25
 480 450 l 25
 480 0 l 25
 230 0 l 25
 230 50 l 25
 392 50 l 25
 392 400 l 25xf4
 240 400 l 25
 240 450 l 25
 268 450 l 25
 382 564 l 25
 382 690 l 25
 158 690 l 25
 158 0 l 25
 70 0 l 25xf8
  Spiro
    70 0 o
    70 740 o
    470 740 o
    470 582 o
    338 450 o
    480 450 o
    480 0 o
    230 0 o
    230 50 o
    392 50 o
    392 400 o
    240 400 o
    240 450 o
    268 450 o
    382 564 o
    382 690 o
    158 690 o
    158 0 o
    0 0 z
  EndSpiro
EndSplineSet
Validated: 1048577
EndChar

StartChar: longs
Encoding: 383 383 331
Width: 300
Flags: W
HStem: 0 21G<70 158> 690 50<158 300>
VStem: 70 88<0 690>
AnchorPoint: "top" 190 790 basechar 0
AnchorPoint: "bottom" 160 -30 basechar 0
LayerCount: 4
Fore
SplineSet
70 0 m 1
 70 740 l 17
 300 740 l 1
 300 690 l 1
 158 690 l 9
 158 0 l 1
 70 0 l 1
EndSplineSet
Validated: 1048577
EndChar

StartChar: Hbar
Encoding: 294 294 332
Width: 570
Flags: W
HStem: 0 21G<80 170 400 490> 360 50<170 400> 520 60<40 530> 700 20G<80 170 400 490>
VStem: 80 90<0 360 410 720> 400 90<0 360 410 720>
AnchorPoint: "ogonek" 445 0 basechar 0
AnchorPoint: "bottom" 290 -30 basechar 0
AnchorPoint: "top" 290 770 basechar 0
LayerCount: 4
Back
SplineSet
80 0 m 1
 80 520 l 1
 40 520 l 1
 40 580 l 1
 80 580 l 1
 80 720 l 1
 170 720 l 1
 170 580 l 1
 400 580 l 1
 400 720 l 1
 490 720 l 1
 490 580 l 1
 530 580 l 1
 530 520 l 1
 490 520 l 1
 490 0 l 1
 400 0 l 1
 400 340 l 1
 170 340 l 1
 170 0 l 1
 80 0 l 1
170 520 m 1
 170 390 l 1
 400 390 l 1
 400 520 l 1
 170 520 l 1
EndSplineSet
Fore
SplineSet
40 520 m 1
 40 580 l 1
 530 580 l 1
 530 520 l 1
 40 520 l 1
EndSplineSet
Refer: 20 72 N 1 0 0 1 0 0 2
Validated: 1048581
EndChar

StartChar: hbar
Encoding: 295 295 333
Width: 500
Flags: W
HStem: 0 21G<70 158 342 430> 450 50<158 342> 580 60<30 300> 740 20G<114 158>
VStem: 70 88<0 450 500 720> 342 88<0 450>
AnchorPoint: "top" 120 790 basechar 0
AnchorPoint: "bottom" 255 -30 basechar 0
LayerCount: 4
Fore
SplineSet
30 580 m 1
 30 640 l 1
 300 640 l 1
 300 580 l 1
 30 580 l 1
EndSplineSet
Refer: 76 104 N 1 0 0 1 0 0 2
Validated: 1048581
EndChar

StartChar: kgreenlandic
Encoding: 312 312 336
Width: 500
Flags: W
HStem: 0 21G<70 158 342 430> 250 50<158 240 330 342> 480 20G<70 158 339 450>
VStem: 70 88<0 250 300 500> 342 88<0 250>
AnchorPoint: "top" 250 550 basechar 0
AnchorPoint: "bottom" 250 -30 basechar 0
LayerCount: 4
Fore
SplineSet
70 0 m 17
 70 500 l 17
 158 500 l 9
 158 300 l 25
 240 300 l 17
 350 500 l 1
 450 500 l 1
 330 300 l 1
 430 300 l 1
 430 0 l 1
 342 0 l 1
 342 250 l 1
 158 250 l 1
 158 0 l 9
 70 0 l 17
EndSplineSet
Validated: 1048577
EndChar

StartChar: Lslash
Encoding: 321 321 337
Width: 450
Flags: W
HStem: 0 50<170 440> 700 20G<80 170>
VStem: 80 90<50 720>
LayerCount: 4
Fore
SplineSet
30 250 m 1
 30 320 l 1
 280 490 l 1
 280 420 l 1
 30 250 l 1
EndSplineSet
Refer: 24 76 N 1 0 0 1 0 0 2
Validated: 5
EndChar

StartChar: lslash
Encoding: 322 322 338
Width: 260
Flags: W
HStem: 0 21G<86 174> 740 20G<130 174>
VStem: 20 220 86 88<0 720>
LayerCount: 4
Fore
SplineSet
20 230 m 1xe0
 20 290 l 1
 240 420 l 1
 240 360 l 1
 20 230 l 1xe0
EndSplineSet
Refer: 80 108 N 1 0 0 1 0 0 2
Validated: 5
EndChar

StartChar: Eng
Encoding: 330 330 339
Width: 620
Flags: W
HStem: 0 50<310 420> 670 50<170 420>
VStem: 80 90<0 670> 450 90<80 640>
AnchorPoint: "top" 310 770 basechar 0
AnchorPoint: "bottom" 310 -30 basechar 0
LayerCount: 4
Fore
SplineSet
80 0 m 1
 80 720 l 1
 460 720 l 1
 540 640 l 1
 540 80 l 1
 460 0 l 1
 310 0 l 1
 310 50 l 1
 420 50 l 1
 450 80 l 1
 450 640 l 1
 420 670 l 1
 170 670 l 1
 170 0 l 1
 80 0 l 1
EndSplineSet
Validated: 1048577
EndChar

StartChar: eng
Encoding: 331 331 340
Width: 500
Flags: W
HStem: -200 50<190 342> 0 21G<70 158> 450 50<158 310>
VStem: 70 88<0 450> 342 88<-150 418>
AnchorPoint: "top" 250 550 basechar 0
AnchorPoint: "bottom" 250 -230 basechar 0
LayerCount: 4
Fore
SplineSet
70 0 m 1
 70 500 l 1
 350 500 l 1
 430 420 l 1
 430 -200 l 1
 190 -200 l 1
 190 -150 l 1
 342 -150 l 1
 342 418 l 1
 310 450 l 1
 158 450 l 1
 158 0 l 1
 70 0 l 1
EndSplineSet
Validated: 1048577
EndChar

StartChar: OE
Encoding: 338 338 341
Width: 820
Flags: W
HStem: 0 50<170 390 480 760> 350 50<480 730> 670 50<170 390 480 760>
VStem: 80 90<50 670> 390 90<50 350 400 670>
LayerCount: 4
Fore
SplineSet
80 0 m 1
 80 720 l 1
 760 720 l 1
 760 670 l 1
 480 670 l 1
 480 400 l 1
 730 400 l 1
 730 350 l 1
 480 350 l 1
 480 50 l 1
 760 50 l 1
 760 0 l 1
 80 0 l 1
170 50 m 1
 390 50 l 1
 390 670 l 1
 170 670 l 1
 170 50 l 1
EndSplineSet
Validated: 1
EndChar

StartChar: oe
Encoding: 339 339 342
Width: 770
Flags: W
HStem: 0 90<625 700> 0 50<158 341 429 625> 250 50<429 612> 450 50<158 341 429 612>
VStem: 70 88<50 450> 341 88<50 250 300 450> 612 88<300 450> 625 75<50 90>
LayerCount: 4
Fore
SplineSet
70 0 m 1x7d
 70 500 l 1
 700 500 l 1
 700 250 l 1
 429 250 l 1
 429 50 l 1
 625 50 l 1x7d
 625 90 l 1
 700 90 l 1
 700 0 l 1xbd
 70 0 l 1x7d
429 300 m 1
 612 300 l 1
 612 450 l 1x3e
 429 450 l 1
 429 300 l 1
158 50 m 1x7c
 341 50 l 1
 341 450 l 1
 158 450 l 1
 158 50 l 1x7c
EndSplineSet
Validated: 1
EndChar

StartChar: Tbar
Encoding: 358 358 343
Width: 490
Flags: W
HStem: 0 21G<190 280> 330 60<100 350> 670 50<30 190 280 440>
VStem: 190 90<0 670>
AnchorPoint: "top" 225 770 basechar 0
AnchorPoint: "bottom" 225 -30 basechar 0
LayerCount: 4
Fore
SplineSet
100 330 m 1
 100 390 l 1
 350 390 l 1
 350 330 l 1
 100 330 l 1
EndSplineSet
Refer: 32 84 N 1 0 0 1 0 0 2
Validated: 1048581
EndChar

StartChar: tbar
Encoding: 359 359 344
Width: 300
Flags: W
HStem: 0 21G<106 194> 250 60<40 260> 450 50<20 106 194 280>
VStem: 106 88<0 450 500 600>
AnchorPoint: "top" 150 670 basechar 0
AnchorPoint: "bottom" 150 -30 basechar 0
LayerCount: 4
Fore
SplineSet
40 250 m 1
 40 310 l 1
 260 310 l 1
 260 250 l 1
 40 250 l 1
EndSplineSet
Refer: 87 116 N 1 0 0 1 0 0 2
Validated: 1048581
EndChar

StartChar: uni0259
Encoding: 601 601 366
Width: 500
Flags: W
HStem: 0 50<158 342> 200 50<158 342> 410 90<70 145> 450 50<145 342>
VStem: 70 88<50 200> 70 75<410 450> 342 88<50 200 250 450>
AnchorPoint: "ogonek" 310 0 basechar 0
AnchorPoint: "top" 250 550 basechar 0
AnchorPoint: "bottom" 250 -30 basechar 0
LayerCount: 4
Fore
SplineSet
70 0 m 1xd6
 70 250 l 1
 342 250 l 1
 342 450 l 1
 145 450 l 1xd6
 145 410 l 1
 70 410 l 1
 70 500 l 1xe6
 430 500 l 1
 430 0 l 1
 70 0 l 1xd6
158 50 m 1xca
 342 50 l 1
 342 200 l 1
 158 200 l 1
 158 50 l 1xca
EndSplineSet
Validated: 1048577
EndChar

StartChar: uni018F
Encoding: 399 399 367
Width: 570
Flags: W
HStem: 0 50<170 400> 310 50<170 400> 670 50<157 400>
VStem: 80 90<50 310> 80 77<550 670> 400 90<50 310 360 670>
LayerCount: 4
Fore
SplineSet
80 0 m 1xec
 80 360 l 1
 400 360 l 1
 400 670 l 1
 157 670 l 1
 157 550 l 1
 80 550 l 1
 80 720 l 1
 490 720 l 1
 490 0 l 1
 80 0 l 1xec
170 50 m 1xf4
 400 50 l 1
 400 310 l 1
 170 310 l 1
 170 50 l 1xf4
EndSplineSet
Validated: 1
EndChar

StartChar: two.superior
Encoding: 178 178 368
Width: 400
VWidth: 1060
Flags: W
HStem: 360 70<120 350> 540 40<120 250> 670 110<70 130> 740 40<130 250>
VStem: 70 60<670 740> 70 50<430 540> 250 80<580 740>
LayerCount: 4
Fore
SplineSet
70 360 m 25xd6
 70 580 l 25xd6
 250 580 l 25
 250 740 l 25
 130 740 l 25xda
 130 670 l 25
 70 670 l 25xea
 70 780 l 25xe6
 330 780 l 25
 330 540 l 25
 120 540 l 25
 120 430 l 25
 350 430 l 25
 350 360 l 25
 70 360 l 25xd6
EndSplineSet
Validated: 1
EndChar

StartChar: three.superior
Encoding: 179 179 369
Width: 400
VWidth: 1060
Flags: W
HStem: 360 100<60 130> 360 40<130 250> 550 40<140 210> 680 100<70 130> 740 40<130 240>
VStem: 60 70<400 460> 70 60<680 740> 240 80<640 740> 250 80<400 550>
LayerCount: 4
Fore
SplineSet
60 360 m 1xa480
 60 460 l 1
 130 460 l 1xa480
 130 400 l 1
 250 400 l 1
 250 550 l 1x6480
 140 550 l 9
 140 590 l 25
 210 590 l 17
 240 620 l 1
 240 740 l 9
 130 740 l 25x6b
 130 680 l 25
 70 680 l 25
 70 780 l 25x33
 320 780 l 17
 320 640 l 1x2b
 270 590 l 1
 330 590 l 1
 330 360 l 1x6880
 60 360 l 1xa480
EndSplineSet
Validated: 1
EndChar

StartChar: one.superior
Encoding: 185 185 370
Width: 400
VWidth: 1060
Flags: W
HStem: 360 40<80 170 250 330> 740 40<80 170>
VStem: 170 80<400 740>
LayerCount: 4
Fore
SplineSet
80 360 m 1
 80 400 l 1
 170 400 l 1
 170 740 l 1
 80 740 l 1
 80 780 l 1
 250 780 l 1
 250 400 l 1
 330 400 l 1
 330 360 l 1
 80 360 l 1
EndSplineSet
Validated: 1
EndChar

StartChar: zero.superior
Encoding: 8304 8304 371
Width: 400
VWidth: 1060
Flags: W
HStem: 360 40<150 250> 740 40<150 250>
VStem: 70 80<400 740> 250 80<400 740>
LayerCount: 4
Fore
SplineSet
150 400 m 1
 250 400 l 1
 250 740 l 1
 150 740 l 1
 150 400 l 1
70 360 m 1
 70 780 l 1
 330 780 l 1
 330 360 l 1
 70 360 l 1
EndSplineSet
Validated: 1
EndChar

StartChar: four.superior
Encoding: 8308 8308 372
Width: 400
VWidth: 1060
Flags: W
HStem: 490 40<140 240 320 360>
VStem: 60 80<530 780> 240 80<360 490 530 780>
LayerCount: 4
Fore
SplineSet
240 360 m 1
 240 490 l 1
 60 490 l 1
 60 780 l 1
 140 780 l 1
 140 530 l 1
 240 530 l 1
 240 780 l 1
 320 780 l 1
 320 530 l 1
 360 530 l 1
 360 490 l 1
 320 490 l 1
 320 360 l 1
 240 360 l 1
EndSplineSet
Validated: 1
EndChar

StartChar: five.superior
Encoding: 8309 8309 373
Width: 400
VWidth: 1060
Flags: W
HStem: 360 100<60 130> 360 40<130 250> 550 70<120 250> 710 70<120 340>
VStem: 60 70<400 460> 70 50<620 710> 250 80<400 550>
LayerCount: 4
Fore
SplineSet
60 360 m 25xba
 60 460 l 25
 130 460 l 25xba
 130 400 l 25x7a
 250 400 l 25
 250 550 l 25
 70 550 l 25
 70 780 l 25
 340 780 l 25
 340 710 l 25
 120 710 l 25
 120 620 l 25
 330 620 l 25
 330 360 l 25x76
 60 360 l 25xba
EndSplineSet
Validated: 1
EndChar

StartChar: six.superior
Encoding: 8310 8310 374
Width: 400
VWidth: 1060
Flags: W
HStem: 360 40<150 250> 570 40<150 250> 740 40<150 330>
VStem: 70 80<400 570 610 740> 250 80<400 570>
LayerCount: 4
Fore
SplineSet
150 400 m 1
 250 400 l 1
 250 570 l 1
 150 570 l 1
 150 400 l 1
70 360 m 1
 70 780 l 1
 330 780 l 1
 330 740 l 1
 150 740 l 1
 150 610 l 1
 330 610 l 1
 330 360 l 1
 70 360 l 1
EndSplineSet
Validated: 1
EndChar

StartChar: seven.superior
Encoding: 8311 8311 375
Width: 400
VWidth: 1060
Flags: W
HStem: 710 70<110 310>
VStem: 60 50<620 710>
LayerCount: 4
Fore
SplineSet
150 360 m 1
 310 730 l 1
 320 710 l 1
 110 710 l 1
 110 620 l 1
 60 620 l 1
 60 780 l 1
 360 780 l 1
 360 740 l 1
 250 360 l 1
 150 360 l 1
EndSplineSet
Validated: 5
EndChar

StartChar: eight.superior
Encoding: 8312 8312 376
Width: 400
VWidth: 1060
Flags: W
HStem: 360 40<140 250> 545 70<170 210> 740 40<150 240>
VStem: 60 80<400 495> 70 80<615 740> 240 80<665 740> 250 80<400 545>
LayerCount: 4
Fore
SplineSet
60 360 m 1xf2
 60 495 l 9xf2
 110 545 l 25
 70 545 l 9
 70 780 l 25
 320 780 l 17
 320 665 l 1xec
 270 615 l 1
 330 615 l 1
 330 360 l 1
 60 360 l 1xf2
140 400 m 1
 250 400 l 1
 250 545 l 1
 170 545 l 1
 140 515 l 1
 140 400 l 1
150 615 m 25xec
 210 615 l 17
 240 645 l 1
 240 740 l 9
 150 740 l 25
 150 615 l 25xec
EndSplineSet
Validated: 1
EndChar

StartChar: nine.superior
Encoding: 8313 8313 377
Width: 400
VWidth: 1060
Flags: W
HStem: 540 40<150 240> 740 40<150 250>
VStem: 70 80<580 740> 250 80<580 740>
LayerCount: 4
Fore
SplineSet
250 740 m 1
 150 740 l 1
 150 580 l 1
 250 580 l 1
 250 740 l 1
120 360 m 1
 240 540 l 1
 70 540 l 1
 70 780 l 1
 330 780 l 1
 330 540 l 1
 220 360 l 1
 120 360 l 1
EndSplineSet
Validated: 1
EndChar

StartChar: uni2010
Encoding: 8208 8208 388
Width: 400
Flags: W
HStem: 250 80<60 340>
VStem: 60 280<250 330>
LayerCount: 4
Fore
SplineSet
60 250 m 1
 60 330 l 1
 340 330 l 1
 340 250 l 1
 60 250 l 1
EndSplineSet
Validated: 1
EndChar

StartChar: uni2011
Encoding: 8209 8209 389
Width: 400
Flags: W
HStem: 250 80<60 340>
VStem: 60 280<250 330>
LayerCount: 4
Fore
SplineSet
60 250 m 1
 60 330 l 1
 340 330 l 1
 340 250 l 1
 60 250 l 1
EndSplineSet
Validated: 1
EndChar

StartChar: figuredash
Encoding: 8210 8210 390
Width: 550
Flags: W
HStem: 250 80<60 490>
LayerCount: 4
Fore
SplineSet
60 250 m 1
 60 330 l 1
 490 330 l 1
 490 250 l 1
 60 250 l 1
EndSplineSet
Validated: 1
EndChar

StartChar: endash
Encoding: 8211 8211 391
Width: 500
Flags: W
HStem: 250 80<60 440>
LayerCount: 4
Fore
SplineSet
60 250 m 1
 60 330 l 1
 440 330 l 1
 440 250 l 1
 60 250 l 1
EndSplineSet
Validated: 1
EndChar

StartChar: emdash
Encoding: 8212 8212 392
Width: 1000
Flags: W
HStem: 250 80<60 940>
LayerCount: 4
Fore
SplineSet
60 250 m 1
 60 330 l 1
 940 330 l 1
 940 250 l 1
 60 250 l 1
EndSplineSet
Validated: 1
EndChar

StartChar: uni2015
Encoding: 8213 8213 393
Width: 2000
Flags: W
HStem: 250 80<60 1940>
LayerCount: 4
Fore
SplineSet
60 250 m 1
 60 330 l 1
 1940 330 l 1
 1940 250 l 1
 60 250 l 1
EndSplineSet
Validated: 1
EndChar

StartChar: quoteright
Encoding: 8217 8217 395
Width: 250
Flags: W
HStem: 590 130<70 140>
VStem: 70 120<590 720>
LayerCount: 4
Fore
SplineSet
70 590 m 5
 70 720 l 5
 190 720 l 5
 190 590 l 5
 115 450 l 5
 55 450 l 5
 140 590 l 5
 70 590 l 5
EndSplineSet
Validated: 1
EndChar

StartChar: quoteleft
Encoding: 8216 8216 396
Width: 250
Flags: W
HStem: 450 130<110 180> 700 20G<124.286 195>
VStem: 60 120<450 580>
LayerCount: 4
Fore
SplineSet
60 450 m 1
 60 580 l 1
 135 720 l 1
 195 720 l 1
 110 580 l 1
 180 580 l 1
 180 450 l 1
 60 450 l 1
EndSplineSet
Validated: 1
EndChar

StartChar: quotedblleft
Encoding: 8220 8220 398
Width: 450
Flags: W
HStem: 450 130<110 170 320 380> 700 20G<124.286 195 334.286 405>
VStem: 60 110<450 580> 270 110<450 580>
LayerCount: 4
Fore
SplineSet
60 450 m 1
 60 580 l 1
 135 720 l 1
 195 720 l 1
 110 580 l 1
 170 580 l 1
 170 450 l 1
 60 450 l 1
270 450 m 1
 270 580 l 1
 345 720 l 1
 405 720 l 1
 320 580 l 1
 380 580 l 1
 380 450 l 1
 270 450 l 1
EndSplineSet
Validated: 1
EndChar

StartChar: quotedblright
Encoding: 8221 8221 399
Width: 450
Flags: W
HStem: 590 130<70 130 280 340>
VStem: 70 110<590 720> 280 110<590 720>
LayerCount: 4
Fore
SplineSet
70 590 m 1
 70 720 l 1
 180 720 l 1
 180 590 l 1
 105 450 l 1
 45 450 l 1
 130 590 l 1
 70 590 l 1
280 590 m 1
 280 720 l 1
 390 720 l 1
 390 590 l 1
 315 450 l 1
 255 450 l 1
 340 590 l 1
 280 590 l 1
EndSplineSet
Validated: 1
EndChar

StartChar: quotereversed
Encoding: 8219 8219 401
Width: 250
Flags: W
HStem: 590 130<105 175>
VStem: 55 120<590 720>
LayerCount: 4
Fore
SplineSet
55 590 m 1
 55 720 l 1
 175 720 l 1
 175 590 l 1
 105 590 l 1
 190 450 l 1
 130 450 l 1
 55 590 l 1
EndSplineSet
Validated: 1
EndChar

StartChar: uni201F
Encoding: 8223 8223 402
Width: 450
Flags: W
HStem: 590 130<95 155 305 365>
VStem: 45 110<590 720> 255 110<590 720>
LayerCount: 4
Fore
SplineSet
255 590 m 1
 255 720 l 1
 365 720 l 1
 365 590 l 1
 305 590 l 1
 390 450 l 1
 330 450 l 1
 255 590 l 1
45 590 m 1
 45 720 l 1
 155 720 l 1
 155 590 l 1
 95 590 l 1
 180 450 l 1
 120 450 l 1
 45 590 l 1
EndSplineSet
Validated: 1
EndChar

StartChar: dagger
Encoding: 8224 8224 403
Width: 500
Flags: W
HStem: 0 21G<215 285> 490 70<60 215 285 440> 700 20G<215 285>
VStem: 215 70<0 490 560 720>
LayerCount: 4
Fore
SplineSet
215 720 m 1
 285 720 l 1
 285 560 l 1
 440 560 l 1
 440 490 l 1
 285 490 l 1
 285 0 l 1
 215 0 l 1
 215 490 l 1
 60 490 l 1
 60 560 l 1
 215 560 l 1
 215 720 l 1
EndSplineSet
Validated: 1
EndChar

StartChar: daggerdbl
Encoding: 8225 8225 404
Width: 500
Flags: W
HStem: 0 21G<215 285> 160 70<60 215 285 440> 490 70<60 215 285 440> 700 20G<215 285>
VStem: 215 70<0 160 230 490 560 720>
LayerCount: 4
Fore
SplineSet
215 720 m 1
 285 720 l 1
 285 560 l 1
 440 560 l 1
 440 490 l 1
 285 490 l 1
 285 230 l 1
 440 230 l 1
 440 160 l 1
 285 160 l 1
 285 0 l 1
 215 0 l 1
 215 160 l 1
 60 160 l 1
 60 230 l 1
 215 230 l 1
 215 490 l 1
 60 490 l 1
 60 560 l 1
 215 560 l 1
 215 720 l 1
EndSplineSet
Validated: 1
EndChar

StartChar: bullet
Encoding: 8226 8226 405
Width: 300
Flags: W
HStem: 240 160<94.489 205.511>
VStem: 70 160<264.489 375.511>
LayerCount: 4
Fore
SplineSet
150 400 m 3
 195 400 230 365 230 320 c 3
 230 275 195 240 150 240 c 3
 105 240 70 275 70 320 c 3
 70 365 105 400 150 400 c 3
EndSplineSet
Validated: 1
EndChar

StartChar: ellipsis
Encoding: 8230 8230 406
Width: 1000
Flags: W
HStem: 0 130<90 210 440 560 790 910>
VStem: 90 120<0 130> 440 120<0 130> 790 120<0 130>
CounterMasks: 1 70
LayerCount: 4
Fore
SplineSet
90 0 m 1
 90 130 l 1
 210 130 l 1
 210 0 l 1
 90 0 l 1
440 0 m 1
 440 130 l 1
 560 130 l 1
 560 0 l 1
 440 0 l 1
790 0 m 1
 790 130 l 1
 910 130 l 1
 910 0 l 1
 790 0 l 1
EndSplineSet
Validated: 1
EndChar

StartChar: minute
Encoding: 8242 8242 408
Width: 300
Flags: W
HStem: 440 280
VStem: 70 170
LayerCount: 4
Fore
SplineSet
140 720 m 1
 240 720 l 1
 130 440 l 1
 70 440 l 1
 140 720 l 1
EndSplineSet
Validated: 1
EndChar

StartChar: guilsinglleft
Encoding: 8249 8249 411
Width: 350
Flags: W
HStem: 0 21G<198 300> 480 20G<198 300>
VStem: 60 240
LayerCount: 4
Fore
SplineSet
60 250 m 25
 210 500 l 25
 300 500 l 25
 150 250 l 25
 300 0 l 25
 210 0 l 25
 60 250 l 25
EndSplineSet
Validated: 1
EndChar

StartChar: guilsinglright
Encoding: 8250 8250 412
Width: 350
Flags: W
HStem: 0 21G<50 152> 480 20G<50 152>
VStem: 50 240
LayerCount: 4
Fore
SplineSet
290 250 m 25
 140 0 l 25
 50 0 l 25
 200 250 l 25
 50 500 l 25
 140 500 l 25
 290 250 l 25
EndSplineSet
Validated: 1
EndChar

StartChar: uni204A
Encoding: 8266 8266 413
Width: 500
Flags: W
HStem: 420 80<50 300>
VStem: 260 90<-200 -88>
LayerCount: 4
Fore
SplineSet
320 420 m 1
 50 420 l 1
 50 500 l 1
 390 500 l 1
 350 -200 l 1
 260 -200 l 1
 300 440 l 1
 320 420 l 1
EndSplineSet
Validated: 5
EndChar

StartChar: fraction
Encoding: 8260 8260 414
Width: 140
Flags: W
HStem: 0 21G<-160 -74.3056> 700 20G<214.306 300>
LayerCount: 4
Fore
SplineSet
225 720 m 1
 300 720 l 1
 -85 0 l 1
 -160 0 l 1
 225 720 l 1
EndSplineSet
Validated: 1
EndChar

StartChar: perthousand
Encoding: 8240 8240 415
Width: 1200
Flags: W
HStem: 0 50<610 710 950 1050> 290 50<610 710 950 1050> 380 50<150 250> 670 50<150 250>
VStem: 70 80<430 670> 250 80<430 670> 530 80<50 290> 710 80<50 290> 870 80<50 290> 1050 80<50 290>
LayerCount: 4
Fore
SplineSet
950 50 m 1
 1050 50 l 1
 1050 290 l 1
 950 290 l 1
 950 50 l 1
870 0 m 1
 870 340 l 1
 1130 340 l 1
 1130 0 l 1
 870 0 l 1
610 50 m 1
 710 50 l 1
 710 290 l 1
 610 290 l 1
 610 50 l 1
530 0 m 1
 530 340 l 1
 790 340 l 1
 790 0 l 1
 530 0 l 1
200 -40 m 1
 580 760 l 1
 660 760 l 1
 280 -40 l 1
 200 -40 l 1
150 430 m 1
 250 430 l 1
 250 670 l 1
 150 670 l 1
 150 430 l 1
70 380 m 1
 70 720 l 1
 330 720 l 1
 330 380 l 1
 70 380 l 1
EndSplineSet
Validated: 1
EndChar

StartChar: t.hrzntl_to_right
Encoding: 65566 -1 449
Width: 270
Flags: W
HStem: 0 21G<76 164> 450 50<164 250>
VStem: 76 88<0 450 500 600>
AnchorPoint: "comma" 260 720 basechar 0
AnchorPoint: "top" 120 670 basechar 0
AnchorPoint: "bottom" 120 -30 basechar 0
LayerCount: 4
Fore
SplineSet
76 0 m 1
 76 600 l 1
 164 640 l 1
 164 500 l 1
 250 500 l 1
 250 450 l 1
 164 450 l 1
 164 0 l 1
 76 0 l 1
EndSplineSet
Validated: 1048577
EndChar

StartChar: ordfeminine
Encoding: 170 170 450
Width: 500
Flags: W
HStem: 360 50<158 342> 670 50<158 342>
VStem: 70 88<410 670> 342 88<410 670>
LayerCount: 4
Fore
SplineSet
158 410 m 1
 342 410 l 1
 342 670 l 1
 158 670 l 1
 158 410 l 1
70 360 m 1
 70 720 l 1
 430 720 l 1
 430 360 l 1
 70 360 l 1
EndSplineSet
Validated: 1
EndChar

StartChar: ordmasculine
Encoding: 186 186 451
Width: 450
Flags: W
HStem: 360 40<148 302> 680 40<148 302>
VStem: 70 78<400 680> 302 78<400 680>
LayerCount: 4
Fore
SplineSet
148 400 m 1
 302 400 l 1
 302 680 l 1
 148 680 l 1
 148 400 l 1
70 360 m 1
 70 720 l 1
 380 720 l 1
 380 360 l 1
 70 360 l 1
EndSplineSet
Validated: 1
EndChar

StartChar: uni1E9E
Encoding: 7838 7838 452
Width: 630
Flags: W
HStem: 0 50<260 460> 380 50<300 340 410 460> 670 50<170 450>
VStem: 80 90<0 670> 450 90<560 670> 460 90<50 380>
AnchorPoint: "top" 310 770 basechar 0
AnchorPoint: "bottom" 310 -30 basechar 0
LayerCount: 4
Fore
SplineSet
80 0 m 25xf8
 80 720 l 25
 540 720 l 25
 540 560 l 25xf8
 410 430 l 25
 550 430 l 25
 550 0 l 25
 260 0 l 25
 260 50 l 25
 460 50 l 25
 460 380 l 25xf4
 300 380 l 25
 300 430 l 25
 340 430 l 25
 450 540 l 25
 450 670 l 25
 170 670 l 25
 170 0 l 25
 80 0 l 25xf8
EndSplineSet
Validated: 1048577
EndChar

StartChar: Mu
Encoding: 924 924 550
Width: 680
Flags: W
HStem: 0 21G<80 150 510 600> 700 20G<80 187.308 502.692 600>
VStem: 120 30<610.8 630> 510 30<610.8 630>
AnchorPoint: "top" 340 770 basechar 0
AnchorPoint: "bottom" 340 -30 basechar 0
LayerCount: 4
Fore
SplineSet
80 0 m 1
 80 720 l 9
 180 720 l 25
 370 200 l 25
 320 200 l 25
 510 720 l 25
 600 720 l 17
 600 0 l 1
 510 0 l 1
 510 630 l 1
 540 630 l 1
 365 150 l 1
 295 150 l 1
 120 630 l 1
 150 630 l 1
 150 0 l 1
 80 0 l 1
EndSplineSet
Validated: 1048581
Layer: 2
SplineSet
80 0 m 1
 80 720 l 9
 180 720 l 25
 440 200 l 25
 390 200 l 25
 650 720 l 25
 740 720 l 17
 740 0 l 1
 650 0 l 1
 650 630 l 1
 680 630 l 1
 435 150 l 1
 365 150 l 1
 120 630 l 1
 150 630 l 1
 150 0 l 1
 80 0 l 1
EndSplineSet
EndChar

StartChar: Nu
Encoding: 925 925 551
Width: 600
Flags: W
HStem: 0 21G<80 150 410.476 520> 700 20G<80 189.524 450 520>
VStem: 120 30<615.3 630> 450 70<90 720> 450 30<90 104.7>
AnchorPoint: "bottom" 300 -30 basechar 0
AnchorPoint: "top" 300 770 basechar 0
LayerCount: 4
Fore
SplineSet
80 0 m 1xf0
 80 720 l 9
 180 720 l 25
 480 90 l 25xe8
 450 90 l 25
 450 720 l 25
 520 720 l 17
 520 0 l 1
 420 0 l 1
 120 630 l 1
 150 630 l 1
 150 0 l 1
 80 0 l 1xf0
EndSplineSet
Validated: 1048581
EndChar

StartChar: chi
Encoding: 967 967 560
Width: 500
HStem: 480 20G<40 147.647 362.222 460>
AnchorPoint: "bottom" 250 -230 basechar 0
AnchorPoint: "top" 250 550 basechar 0
LayerCount: 4
Fore
SplineSet
360 -200 m 25
 230 140 l 25
 370 500 l 1
 460 500 l 1
 310 150 l 1
 460 -200 l 9
 360 -200 l 25
40 -200 m 1
 190 150 l 1
 40 500 l 9
 140 500 l 17
 270 160 l 1
 130 -200 l 25
 40 -200 l 1
EndSplineSet
Validated: 1048581
EndChar

StartChar: Gamma
Encoding: 915 915 561
Width: 440
Flags: W
HStem: 0 21G<80 170> 670 50<170 410>
VStem: 80 90<0 670>
AnchorPoint: "top" 255 770 basechar 0
AnchorPoint: "bottom" 215 -30 basechar 0
LayerCount: 4
Fore
SplineSet
80 0 m 1
 80 720 l 1
 410 720 l 1
 410 670 l 1
 170 670 l 1
 170 0 l 1
 80 0 l 1
EndSplineSet
Validated: 1048577
EndChar

StartChar: uni0394
Encoding: 916 916 562
Width: 530
Flags: W
HStem: 0 50<105 400> 670 50<120 280>
AnchorPoint: "bottom" 265 -30 basechar 0
AnchorPoint: "top" 265 770 basechar 0
LayerCount: 4
Fore
SplineSet
20 0 m 1
 128 520 l 1
 200 520 l 1
 105 50 l 1
 400 50 l 1
 280 670 l 1
 120 670 l 1
 120 720 l 1
 360 720 l 1
 510 0 l 1
 20 0 l 1
EndSplineSet
Validated: 1048577
Layer: 2
SplineSet
105 50 m 1
 400 50 l 1
 280 670 l 1
 230 670 l 1
 105 50 l 1
20 0 m 1
 170 720 l 1
 360 720 l 1
 510 0 l 1
 20 0 l 1
EndSplineSet
EndChar

StartChar: Theta
Encoding: 920 920 563
Width: 650
Flags: W
HStem: 0 50<170 480> 330 80<230 420> 670 50<170 480>
VStem: 80 90<50 670> 480 90<50 670>
AnchorPoint: "bottom" 325 -30 basechar 0
AnchorPoint: "top" 325 770 basechar 0
LayerCount: 4
Fore
SplineSet
230 330 m 1
 230 410 l 1
 420 410 l 1
 420 330 l 1
 230 330 l 1
170 50 m 1
 480 50 l 1
 480 670 l 1
 170 670 l 1
 170 50 l 1
80 0 m 1
 80 720 l 1
 570 720 l 1
 570 0 l 1
 80 0 l 1
EndSplineSet
Validated: 1048577
EndChar

StartChar: Lambda
Encoding: 923 923 564
Width: 530
Flags: W
HStem: 0 21G<20 103.881 406.119 510> 670 50<230 280>
AnchorPoint: "top" 265 770 basechar 0
AnchorPoint: "bottom" 265 -30 basechar 0
LayerCount: 4
Fore
SplineSet
20 0 m 1
 170 720 l 1
 360 720 l 1
 510 0 l 1
 410 0 l 1
 280 670 l 1
 230 670 l 1
 100 0 l 1
 20 0 l 1
EndSplineSet
Validated: 1048577
EndChar

StartChar: Xi
Encoding: 926 926 565
Width: 450
Flags: W
HStem: 0 80<30 420> 330 80<50 400> 640 80<30 420>
AnchorPoint: "bottom" 225 -30 basechar 0
AnchorPoint: "top" 225 770 basechar 0
LayerCount: 4
Fore
SplineSet
30 640 m 1
 30 720 l 1
 420 720 l 1
 420 640 l 1
 30 640 l 1
30 0 m 1
 30 80 l 1
 420 80 l 1
 420 0 l 1
 30 0 l 1
50 330 m 1
 50 410 l 1
 400 410 l 1
 400 330 l 1
 50 330 l 1
EndSplineSet
Validated: 1048577
EndChar

StartChar: Pi
Encoding: 928 928 566
Width: 570
Flags: W
HStem: 0 21G<80 170 400 490> 670 50<170 400>
VStem: 80 90<0 670> 400 90<0 670>
AnchorPoint: "top" 285 770 basechar 0
AnchorPoint: "bottom" 285 -30 basechar 0
LayerCount: 4
Fore
SplineSet
80 0 m 1
 80 720 l 1
 490 720 l 1
 490 0 l 9
 400 0 l 25
 400 670 l 1
 170 670 l 1
 170 0 l 25
 80 0 l 1
EndSplineSet
Validated: 1048577
EndChar

StartChar: Sigma
Encoding: 931 931 567
Width: 480
Flags: W
HStem: 0 80<110 420> 670 50<140 420>
AnchorPoint: "top" 240 770 basechar 0
AnchorPoint: "bottom" 240 -30 basechar 0
LayerCount: 4
Fore
SplineSet
40 0 m 1
 40 40 l 1
 270 380 l 1
 270 340 l 1
 40 680 l 1
 40 720 l 1
 420 720 l 1
 420 670 l 1
 140 670 l 1
 140 690 l 17
 340 390 l 1
 340 370 l 1
 110 30 l 1
 110 80 l 1
 420 80 l 1
 420 0 l 1
 40 0 l 1
EndSplineSet
Validated: 1048581
EndChar

StartChar: Phi
Encoding: 934 934 568
Width: 650
Flags: W
HStem: 0 21G<280 370> 100 50<150 280 370 500> 570 50<150 280 370 500> 700 20G<280 370>
VStem: 60 90<150 570> 280 90<0 100 150 570 620 720> 500 90<150 570>
CounterMasks: 1 0e
AnchorPoint: "top" 325 770 basechar 0
AnchorPoint: "bottom" 325 -30 basechar 0
LayerCount: 4
Fore
SplineSet
280 0 m 1
 280 100 l 1
 60 100 l 1
 60 620 l 1
 280 620 l 1
 280 720 l 1
 370 720 l 1
 370 620 l 1
 590 620 l 1
 590 100 l 1
 370 100 l 1
 370 0 l 1
 280 0 l 1
365 150 m 1
 500 150 l 1
 500 570 l 1
 365 570 l 1
 365 150 l 1
150 150 m 1
 285 150 l 1
 285 570 l 1
 150 570 l 1
 150 150 l 1
EndSplineSet
Validated: 1048577
EndChar

StartChar: Psi
Encoding: 936 936 569
Width: 650
Flags: W
HStem: 0 21G<280 370> 250 50<150 280 370 500> 700 20G<60 150 285 365 500 590>
VStem: 60 90<300 720> 285 80<0 250 300 720> 500 90<300 720>
CounterMasks: 1 1c
AnchorPoint: "bottom" 325 -30 basechar 0
AnchorPoint: "top" 325 770 basechar 0
LayerCount: 4
Fore
SplineSet
590 720 m 1
 590 250 l 1
 370 250 l 1
 370 0 l 1
 280 0 l 1
 280 250 l 1
 60 250 l 1
 60 720 l 1
 150 720 l 1
 150 300 l 1
 285 300 l 1
 285 720 l 1
 365 720 l 1
 365 300 l 1
 500 300 l 1
 500 720 l 1
 590 720 l 1
EndSplineSet
Validated: 1048577
EndChar

StartChar: uni03A9
Encoding: 937 937 570
Width: 600
Flags: W
AnchorPoint: "bottom" 300 -30 basechar 0
AnchorPoint: "top" 300 770 basechar 0
LayerCount: 4
Fore
SplineSet
430 200 m 1
 520 200 l 1
 520 720 l 1
 80 720 l 1
 80 200 l 1
 170 200 l 1
 170 80 l 25
 50 80 l 25
 50 0 l 25
 240 0 l 25
 240 250 l 17
 170 250 l 1
 170 670 l 1
 430 670 l 1
 430 250 l 1
 360 250 l 9
 360 0 l 25
 550 0 l 25
 550 80 l 25
 430 80 l 25
 430 200 l 1
EndSplineSet
Validated: 1048585
Layer: 2
SplineSet
410 180 m 1
 520 290 l 1
 520 720 l 1
 80 720 l 1
 80 290 l 1
 190 180 l 1
 190 80 l 25
 50 80 l 25
 50 0 l 25
 260 0 l 25
 260 180 l 17
 170 270 l 1
 170 670 l 1
 430 670 l 1
 430 270 l 1
 340 180 l 9
 340 0 l 25
 550 0 l 25
 550 80 l 25
 410 80 l 25
 410 180 l 1
EndSplineSet
EndChar

StartChar: dieresistonos
Encoding: 901 901 572
Width: 460
Flags: W
HStem: 610 130<70 140 320 390>
VStem: 70 70<610 740> 320 70<610 740>
AnchorPoint: "top" 230 570 mark 0
AnchorPoint: "Altnidrig-mktop" 230 600 mark 0
AnchorPoint: "Altnidrig-mktop" 230 800 basemark 0
LayerCount: 4
Fore
SplineSet
320 610 m 1
 320 740 l 1
 390 740 l 1
 390 610 l 1
 320 610 l 1
70 610 m 1
 70 740 l 1
 140 740 l 1
 140 610 l 1
 70 610 l 1
220 610 m 1
 160 610 l 1
 210 770 l 1
 310 770 l 1
 220 610 l 1
EndSplineSet
Validated: 1
EndChar

StartChar: alpha
Encoding: 945 945 573
Width: 540
Flags: W
HStem: 0 50<158 260> 450 50<158 260>
VStem: 70 88<50 450> 320 88<132 338>
AnchorPoint: "top" 290 550 basechar 0
AnchorPoint: "bottom" 290 -30 basechar 0
LayerCount: 4
Fore
SplineSet
158 450 m 1
 158 50 l 1
 260 50 l 1
 320 110 l 1
 320 390 l 1
 260 450 l 1
 158 450 l 1
70 500 m 1
 300 500 l 1
 380 420 l 1
 480 520 l 1
 500 520 l 1
 500 430 l 1
 408 338 l 1
 408 132 l 1
 520 20 l 1
 520 0 l 1
 440 0 l 1
 370 70 l 1
 300 0 l 1
 70 0 l 1
 70 500 l 1
EndSplineSet
Validated: 1048577
Layer: 2
SplineSet
158 50 m 1
 340 50 l 1
 340 450 l 1
 158 450 l 1
 158 50 l 1
70 0 m 1
 70 500 l 1
 410 500 l 1
 410 410 l 1
 520 520 l 1
 520 390 l 1
 428 298 l 1
 428 202 l 1
 520 110 l 1
 520 -20 l 1
 410 90 l 1
 410 0 l 1
 70 0 l 1
EndSplineSet
EndChar

StartChar: beta
Encoding: 946 946 583
Width: 540
Flags: W
HStem: -220 21G<70 114> 0 50<158 382> 360 50<232 282 350 382> 690 50<158 362>
VStem: 70 88<-180 0 50 690> 362 88<510 690> 382 88<50 360>
AnchorPoint: "top" 270 770 basechar 0
AnchorPoint: "bottom" 270 -30 basechar 0
LayerCount: 4
Fore
SplineSet
70 -220 m 1xfa
 70 740 l 25
 450 740 l 17
 450 510 l 1xfc
 350 410 l 1
 470 410 l 1
 470 0 l 1
 158 0 l 1
 158 -180 l 1
 70 -220 l 1xfa
158 50 m 1
 382 50 l 1
 382 360 l 1xfa
 232 360 l 1
 232 410 l 1
 282 410 l 1
 362 490 l 1
 362 690 l 9
 158 690 l 25
 158 50 l 1
EndSplineSet
Validated: 1048577
Layer: 2
SplineSet
70 0 m 1xf4
 70 720 l 25
 410 720 l 17
 410 510 l 1xf8
 310 410 l 1
 430 410 l 1
 430 0 l 1
 70 0 l 1xf4
158 50 m 1
 342 50 l 1
 342 360 l 1xf4
 158 360 l 1
 158 50 l 1
158 410 m 25
 242 410 l 17
 322 490 l 1
 322 670 l 9xf8
 158 670 l 25
 158 410 l 25
EndSplineSet
EndChar

StartChar: gamma
Encoding: 947 947 584
Width: 460
Flags: W
HStem: -220 21G<186 230> 480 20G<30 129.25 330.75 430>
VStem: 186 88<-180 50>
AnchorPoint: "top" 230 550 basechar 0
AnchorPoint: "bottom" 230 -230 basechar 0
LayerCount: 4
Fore
SplineSet
186 -220 m 1
 186 50 l 1
 130 50 l 1
 30 500 l 1
 125 500 l 1
 210 100 l 1
 250 100 l 1
 335 500 l 1
 430 500 l 1
 330 50 l 1
 274 50 l 1
 274 -180 l 1
 186 -220 l 1
EndSplineSet
Validated: 1048577
EndChar

StartChar: delta
Encoding: 948 948 585
Width: 500
Flags: W
HStem: 0 50<158 342> 450 50<158 322> 662 78<220 430>
VStem: 70 88<50 450> 342 88<50 450>
AnchorPoint: "top" 276 790 basechar 0
AnchorPoint: "bottom" 250 -30 basechar 0
LayerCount: 4
Fore
SplineSet
158 50 m 1
 342 50 l 1
 342 450 l 1
 158 450 l 1
 158 50 l 1
70 0 m 1
 70 500 l 1
 322 500 l 1
 112 710 l 1
 112 740 l 1
 430 740 l 1
 430 662 l 1
 220 662 l 1
 220 690 l 1
 430 480 l 1
 430 0 l 1
 70 0 l 1
EndSplineSet
Validated: 1048581
EndChar

StartChar: epsilon
Encoding: 949 949 586
Width: 440
Flags: W
HStem: 0 50<158 390> 250 50<158 350> 450 50<158 390>
VStem: 70 88<50 250 300 450>
AnchorPoint: "top" 240 550 basechar 0
AnchorPoint: "bottom" 240 -30 basechar 0
LayerCount: 4
Fore
SplineSet
70 0 m 1
 70 500 l 1
 390 500 l 1
 390 450 l 1
 158 450 l 1
 158 300 l 1
 350 300 l 1
 350 250 l 1
 158 250 l 1
 158 50 l 1
 390 50 l 1
 390 0 l 1
 70 0 l 1
EndSplineSet
Validated: 1048577
EndChar

StartChar: zeta
Encoding: 950 950 587
Width: 360
Flags: W
HStem: 0 78<105 260> 662 78<40 255>
VStem: 260 70<-145 0>
AnchorPoint: "top" 190 770 basechar 0
AnchorPoint: "bottom" 290 -190 basechar 0
LayerCount: 4
Fore
SplineSet
260 -175 m 1
 260 0 l 1
 40 0 l 9
 40 50 l 25
 255 682 l 17
 265 662 l 1
 40 662 l 1
 40 740 l 25
 320 740 l 25
 320 690 l 25
 105 48 l 17
 95 78 l 1
 330 78 l 9
 330 -145 l 17
 260 -175 l 1
EndSplineSet
Validated: 1048581
Layer: 2
SplineSet
60 0 m 9
 60 50 l 25
 265 642 l 17
 60 642 l 1
 60 720 l 25
 340 720 l 25
 340 670 l 25
 135 78 l 25
 350 78 l 25
 350 -160 l 17
 280 -160 l 1
 280 0 l 1
 60 0 l 9
EndSplineSet
EndChar

StartChar: eta
Encoding: 951 951 588
Width: 500
Flags: W
HStem: -220 21G<342 386> 0 21G<70 158> 450 50<158 310>
VStem: 70 88<0 450> 342 88<-180 418>
AnchorPoint: "top" 250 550 basechar 0
AnchorPoint: "bottom" 386 -230 basechar 0
LayerCount: 4
Fore
SplineSet
70 0 m 1
 70 500 l 1
 350 500 l 1
 430 420 l 1
 430 -180 l 1
 342 -220 l 1
 342 418 l 1
 310 450 l 1
 158 450 l 1
 158 0 l 1
 70 0 l 1
EndSplineSet
Validated: 1048577
EndChar

StartChar: theta
Encoding: 952 952 589
Width: 500
Flags: W
HStem: 0 50<158 342> 400 50<158 342 430 490> 690 50<158 342>
VStem: 70 88<50 300 450 690> 342 88<50 400 450 690>
AnchorPoint: "bottom" 250 -30 basechar 0
AnchorPoint: "top" 250 790 basechar 0
LayerCount: 4
Fore
SplineSet
158 450 m 1
 342 450 l 1
 342 690 l 1
 158 690 l 1
 158 450 l 1
70 0 m 1
 70 300 l 1
 158 300 l 1
 158 50 l 1
 342 50 l 1
 342 400 l 1
 70 400 l 1
 70 740 l 1
 430 740 l 1
 430 450 l 1
 490 450 l 1
 490 400 l 1
 430 400 l 1
 430 0 l 1
 70 0 l 1
EndSplineSet
Validated: 1048577
EndChar

StartChar: lambda
Encoding: 955 955 591
Width: 500
Flags: W
HStem: 0 21G<70 158 342 430> 450 50<158 342> 690 50<100 342>
VStem: 70 88<0 450> 342 88<0 450 500 690>
AnchorPoint: "top" 250 790 basechar 0
AnchorPoint: "bottom" 250 -30 basechar 0
LayerCount: 4
Fore
SplineSet
70 0 m 1
 70 500 l 1
 342 500 l 1
 342 690 l 1
 100 690 l 1
 100 740 l 1
 430 740 l 1
 430 0 l 1
 342 0 l 1
 342 450 l 1
 158 450 l 1
 158 0 l 1
 70 0 l 1
EndSplineSet
Validated: 1048577
EndChar

StartChar: uni03BC
Encoding: 956 956 592
Width: 500
Flags: W
HStem: -220 21G<70 114> 0 50<158 342> 480 20G<70 158 342 430>
VStem: 70 88<-180 0 50 500> 342 88<50 500>
AnchorPoint: "top" 250 550 basechar 0
AnchorPoint: "bottom" 114 -230 basechar 0
LayerCount: 4
Fore
SplineSet
70 -220 m 1
 70 500 l 1
 158 500 l 1
 158 50 l 1
 342 50 l 1
 342 500 l 1
 430 500 l 1
 430 0 l 1
 158 0 l 1
 158 -180 l 1
 70 -220 l 1
EndSplineSet
Validated: 1048577
EndChar

StartChar: nu
Encoding: 957 957 593
Width: 460
Flags: W
HStem: 0 50<210 250> 480 20G<30 128.778 331.222 430>
AnchorPoint: "bottom" 230 -30 basechar 0
AnchorPoint: "top" 230 550 basechar 0
LayerCount: 4
Fore
SplineSet
130 0 m 1
 30 500 l 1
 125 500 l 1
 210 50 l 1
 250 50 l 1
 335 500 l 1
 430 500 l 1
 330 0 l 1
 130 0 l 1
EndSplineSet
Validated: 1048577
EndChar

StartChar: xi
Encoding: 958 958 594
Width: 400
Flags: W
HStem: 0 78<105 300> 662 78<40 295>
VStem: 300 70<-145 0>
AnchorPoint: "bottom" 330 -190 basechar 0
AnchorPoint: "top" 210 770 basechar 0
LayerCount: 4
Fore
SplineSet
40 0 m 9
 40 50 l 25
 295 402 l 17
 305 372 l 1
 60 372 l 9
 60 422 l 25
 295 692 l 17
 305 662 l 1
 40 662 l 1
 40 740 l 17
 360 740 l 25
 360 690 l 25
 125 420 l 17
 115 450 l 1
 360 450 l 9
 360 400 l 25
 105 48 l 17
 95 78 l 1
 370 78 l 9
 370 -145 l 17
 300 -175 l 1
 300 0 l 1
 40 0 l 9
EndSplineSet
Validated: 1048581
EndChar

StartChar: pi
Encoding: 960 960 595
Width: 540
Flags: W
HStem: 0 21G<90 178 362 450> 422 78<30 90 178 362 450 510>
VStem: 90 88<0 422> 362 88<0 422>
AnchorPoint: "top" 270 550 basechar 0
AnchorPoint: "bottom" 270 -30 basechar 0
LayerCount: 4
Fore
SplineSet
90 0 m 1
 90 422 l 1
 30 422 l 1
 30 500 l 1
 510 500 l 1
 510 422 l 1
 450 422 l 1
 450 0 l 1
 362 0 l 1
 362 422 l 1
 178 422 l 1
 178 0 l 1
 90 0 l 1
EndSplineSet
Validated: 1048577
Layer: 2
SplineSet
70 0 m 1
 70 500 l 1
 430 500 l 1
 430 0 l 1
 342 0 l 1
 342 450 l 1
 158 450 l 1
 158 0 l 1
 70 0 l 1
EndSplineSet
EndChar

StartChar: sigma1
Encoding: 962 962 596
Width: 480
Flags: W
HStem: 1 78<158 340> 450 50<158 360>
VStem: 70 88<79 450> 340 70<-145 1> 360 70<350 450>
AnchorPoint: "bottom" 370 -190 basechar 0
AnchorPoint: "top" 260 550 basechar 0
LayerCount: 4
Fore
SplineSet
340 -175 m 25xf0
 340 1 l 25xf0
 70 1 l 25
 70 500 l 25
 430 500 l 25
 430 350 l 17
 360 350 l 1
 360 450 l 1xe8
 158 450 l 9
 158 79 l 25
 410 79 l 25
 410 -145 l 25
 340 -175 l 25xf0
EndSplineSet
Validated: 1048577
EndChar

StartChar: sigma
Encoding: 963 963 597
Width: 520
Flags: W
HStem: 0 50<158 342> 422 78<158 282 350 510>
VStem: 70 88<50 422> 342 88<50 342>
AnchorPoint: "top" 250 550 basechar 0
AnchorPoint: "bottom" 250 -30 basechar 0
LayerCount: 4
Fore
SplineSet
158 50 m 1
 342 50 l 1
 342 362 l 1
 282 422 l 1
 158 422 l 1
 158 50 l 1
70 0 m 1
 70 500 l 1
 510 500 l 1
 510 422 l 1
 350 422 l 1
 430 342 l 1
 430 0 l 1
 70 0 l 1
EndSplineSet
Validated: 1048577
EndChar

StartChar: tau
Encoding: 964 964 598
Width: 400
Flags: W
HStem: 0 21G<156 244> 422 78<20 156 244 380>
VStem: 156 88<0 422>
AnchorPoint: "top" 200 550 basechar 0
AnchorPoint: "bottom" 200 -30 basechar 0
LayerCount: 4
Fore
SplineSet
156 0 m 1
 156 422 l 1
 20 422 l 1
 20 500 l 1
 380 500 l 1
 380 422 l 1
 244 422 l 1
 244 0 l 1
 156 0 l 1
EndSplineSet
Validated: 1048577
EndChar

StartChar: upsilon
Encoding: 965 965 599
Width: 500
Flags: W
HStem: 0 50<160 310> 480 20G<70 160 342 430>
VStem: 70 90<50 500> 342 88<82 500>
AnchorPoint: "top" 250 550 basechar 0
AnchorPoint: "bottom" 250 -30 basechar 0
LayerCount: 4
Fore
SplineSet
70 0 m 1
 70 500 l 1
 160 500 l 1
 160 50 l 1
 310 50 l 1
 342 82 l 1
 342 500 l 1
 430 500 l 1
 430 80 l 1
 350 0 l 1
 70 0 l 1
EndSplineSet
Validated: 1048577
EndChar

StartChar: phi
Encoding: 966 966 600
Width: 660
Flags: W
HStem: -220 21G<286 330> 0 50<158 286 374 502> 450 50<158 286 374 502> 740 20G<330 374>
VStem: 70 88<50 450> 286 88<-180 0 50 450 500 720> 502 88<50 450>
CounterMasks: 1 0e
AnchorPoint: "top" 330 790 basechar 0
AnchorPoint: "bottom" 330 -230 basechar 0
LayerCount: 4
Fore
SplineSet
70 0 m 1
 70 500 l 1
 286 500 l 1
 286 720 l 1
 374 760 l 1
 374 500 l 1
 590 500 l 1
 590 0 l 1
 374 0 l 1
 374 -180 l 1
 286 -220 l 1
 286 0 l 1
 70 0 l 1
369 50 m 1
 502 50 l 1
 502 450 l 1
 369 450 l 1
 369 50 l 1
291 50 m 1
 291 450 l 1
 158 450 l 1
 158 50 l 1
 291 50 l 1
EndSplineSet
Validated: 1048577
EndChar

StartChar: psi
Encoding: 968 968 601
Width: 660
Flags: W
HStem: 0 50<158 286 374 502> 480 20G<70 158 291 369 502 590>
VStem: 70 88<50 500> 291 78<-140 0 50 500> 502 88<50 500>
CounterMasks: 1 38
AnchorPoint: "bottom" 330 -190 basechar 0
AnchorPoint: "top" 330 550 basechar 0
LayerCount: 4
Fore
SplineSet
286 -180 m 1
 286 0 l 1
 70 0 l 1
 70 500 l 1
 158 500 l 1
 158 50 l 1
 291 50 l 1
 291 500 l 1
 369 500 l 1
 369 50 l 1
 502 50 l 1
 502 500 l 1
 590 500 l 1
 590 0 l 1
 374 0 l 1
 374 -140 l 1
 286 -180 l 1
EndSplineSet
Validated: 1048577
EndChar

StartChar: omega
Encoding: 969 969 602
Width: 700
Flags: W
HStem: 0 50<158 306 394 542> 450 50<158 258 442 542>
VStem: 70 88<50 450> 306 88<50 350> 542 88<50 450>
CounterMasks: 1 38
AnchorPoint: "bottom" 350 -30 basechar 0
AnchorPoint: "top" 350 550 basechar 0
LayerCount: 4
Fore
SplineSet
350 44 m 1
 306 0 l 1
 70 0 l 1
 70 500 l 1
 258 500 l 1
 258 450 l 1
 158 450 l 1
 158 50 l 1
 306 50 l 1
 306 350 l 1
 394 350 l 1
 394 50 l 1
 542 50 l 1
 542 450 l 1
 442 450 l 1
 442 500 l 1
 630 500 l 1
 630 0 l 1
 394 0 l 1
 350 44 l 1
EndSplineSet
Validated: 1048577
EndChar

StartChar: anoteleia
Encoding: 903 903 603
Width: 250
Flags: W
HStem: 440 130<65 185>
VStem: 65 120<440 570>
LayerCount: 4
Fore
SplineSet
65 440 m 1
 65 570 l 1
 185 570 l 1
 185 440 l 1
 65 440 l 1
EndSplineSet
Validated: 1
EndChar

StartChar: uni03D7
Encoding: 983 983 615
Width: 520
Flags: W
HStem: 0 21G<70 158> 250 50<158 240 330 342> 480 20G<70 158 339 450>
VStem: 70 88<0 250 300 500> 342 88<78 250> 420 80<-140 0>
AnchorPoint: "bottom" 250 -30 basechar 0
AnchorPoint: "top" 250 550 basechar 0
LayerCount: 4
Fore
SplineSet
70 0 m 17xf8
 70 500 l 17
 158 500 l 9
 158 300 l 25
 240 300 l 17
 350 500 l 1
 450 500 l 1
 330 300 l 1
 430 300 l 1
 430 78 l 1xf8
 500 78 l 1
 500 -140 l 1
 420 -180 l 1
 420 0 l 1xf4
 342 0 l 1
 342 250 l 1
 158 250 l 1
 158 0 l 9
 70 0 l 17xf8
EndSplineSet
Validated: 1048577
EndChar

StartChar: zero.cv01
Encoding: 65567 -1 616
Width: 550
Flags: W
HStem: 0 80<140 410> 640 80<140 410>
VStem: 80 60<80 640> 410 60<80 640>
LayerCount: 4
Fore
SplineSet
140 80 m 1
 410 80 l 1
 410 640 l 1
 140 640 l 1
 140 80 l 1
80 0 m 1
 80 720 l 1
 470 720 l 1
 470 0 l 1
 80 0 l 1
EndSplineSet
Validated: 1
EndChar

StartChar: uni0424
Encoding: 1060 1060 629
Width: 650
Flags: W
HStem: 60 50<150 280 370 500> 610 50<150 280 370 500>
VStem: 60 90<110 610> 280 90<-40 60 110 610 660 740> 500 90<110 610>
CounterMasks: 1 38
AnchorPoint: "bottom" 325 -70 basechar 0
AnchorPoint: "top" 325 790 basechar 0
LayerCount: 4
Fore
SplineSet
280 -40 m 1
 280 60 l 1
 60 60 l 1
 60 660 l 1
 280 660 l 1
 280 740 l 1
 370 740 l 1
 370 660 l 1
 590 660 l 1
 590 60 l 1
 370 60 l 1
 370 -40 l 1
 280 -40 l 1
365 110 m 1
 500 110 l 1
 500 610 l 1
 365 610 l 1
 365 110 l 1
150 110 m 1
 285 110 l 1
 285 610 l 1
 150 610 l 1
 150 110 l 1
EndSplineSet
Validated: 1048577
EndChar

StartChar: uni043F
Encoding: 1087 1087 635
Width: 500
Flags: W
HStem: 0 21G<70 158 342 430> 450 50<158 342>
VStem: 70 88<0 450> 342 88<0 450>
AnchorPoint: "top" 250 550 basechar 0
AnchorPoint: "bottom" 250 -30 basechar 0
LayerCount: 4
Fore
SplineSet
70 0 m 1
 70 500 l 1
 430 500 l 1
 430 0 l 1
 342 0 l 1
 342 450 l 1
 158 450 l 1
 158 0 l 1
 70 0 l 1
EndSplineSet
Validated: 1048577
EndChar

StartChar: uni0411
Encoding: 1041 1041 640
Width: 570
Flags: W
HStem: 0 50<170 400> 360 50<170 400> 670 50<170 490>
VStem: 80 90<50 360 410 670> 400 90<50 360>
AnchorPoint: "top" 285 770 basechar 0
AnchorPoint: "bottom" 285 -30 basechar 0
LayerCount: 4
Fore
SplineSet
170 50 m 1
 400 50 l 1
 400 360 l 1
 170 360 l 1
 170 50 l 1
80 0 m 1
 80 720 l 25
 490 720 l 17
 490 670 l 9
 170 670 l 25
 170 410 l 25
 490 410 l 1
 490 0 l 1
 80 0 l 1
EndSplineSet
Validated: 1048577
EndChar

StartChar: uni0416
Encoding: 1046 1046 642
Width: 750
Flags: W
HStem: 0 21G<80 170 335 415 580 670> 350 50<250 335 415 500> 700 20G<60 165.625 335 415 584.375 690>
VStem: 80 90<0 350> 335 80<0 350 400 720> 580 90<0 350>
CounterMasks: 1 1c
AnchorPoint: "top" 375 770 basechar 0
AnchorPoint: "bottom" 375 -30 basechar 0
LayerCount: 4
Fore
SplineSet
80 0 m 1
 80 400 l 1
 170 400 l 1
 60 720 l 1
 160 720 l 1
 250 400 l 1
 335 400 l 1
 335 720 l 1
 415 720 l 1
 415 400 l 1
 500 400 l 1
 590 720 l 1
 690 720 l 1
 580 400 l 1
 670 400 l 1
 670 0 l 1
 580 0 l 1
 580 350 l 1
 415 350 l 1
 415 0 l 1
 335 0 l 1
 335 350 l 1
 170 350 l 1
 170 0 l 1
 80 0 l 1
EndSplineSet
Validated: 1048577
EndChar

StartChar: uni0417
Encoding: 1047 1047 643
Width: 550
Flags: W
HStem: 0 90<70 150> 0 50<150 380> 360 50<110 280 350 380> 580 140<80 160> 670 50<160 360>
VStem: 70 80<50 90> 80 80<580 670> 360 90<510 670> 380 90<50 360>
AnchorPoint: "top" 270 770 basechar 0
AnchorPoint: "bottom" 270 -30 basechar 0
LayerCount: 4
Fore
SplineSet
70 0 m 1xa480
 70 90 l 1
 150 90 l 1xa480
 150 50 l 1
 380 50 l 1
 380 360 l 1x6480
 110 360 l 1
 110 410 l 1
 280 410 l 1
 360 490 l 1
 360 670 l 1
 160 670 l 1x6b
 160 580 l 1
 80 580 l 1
 80 720 l 1x33
 450 720 l 1
 450 510 l 1x2b
 350 410 l 1
 470 410 l 1
 470 0 l 1x6880
 70 0 l 1xa480
EndSplineSet
Validated: 1048577
EndChar

StartChar: uni0418
Encoding: 1048 1048 644
Width: 570
Flags: W
HStem: 0 21G<80 170 400 490> 700 20G<80 170 400 490>
VStem: 80 90<0 50 130 720> 400 90<0 280 360 720>
AnchorPoint: "bottom" 285 -30 basechar 0
AnchorPoint: "top" 285 770 basechar 0
LayerCount: 4
Fore
SplineSet
80 0 m 1
 80 720 l 9
 170 720 l 17
 170 130 l 1
 400 360 l 1
 400 720 l 1
 490 720 l 1
 490 0 l 9
 400 0 l 25
 400 280 l 25
 170 50 l 25
 170 0 l 25
 80 0 l 1
EndSplineSet
Validated: 1048577
EndChar

StartChar: uni0423
Encoding: 1059 1059 647
Width: 520
Flags: W
HStem: 0 50<70 360> 310 50<160 360> 700 20G<70 160 360 450>
VStem: 70 90<360 720> 360 90<50 310 360 720>
AnchorPoint: "top" 260 770 basechar 0
AnchorPoint: "bottom" 260 -30 basechar 0
LayerCount: 4
Fore
SplineSet
70 0 m 1
 70 50 l 1
 360 50 l 1
 360 310 l 1
 70 310 l 1
 70 720 l 1
 160 720 l 1
 160 360 l 1
 360 360 l 1
 360 720 l 1
 450 720 l 1
 450 0 l 1
 70 0 l 1
EndSplineSet
Validated: 1048577
EndChar

StartChar: uni0426
Encoding: 1062 1062 648
Width: 580
Flags: W
HStem: 0 50<170 400> 700 20G<80 170 400 490>
VStem: 80 90<50 720> 400 90<50 720> 470 90<-140 0>
AnchorPoint: "bottom" 515 -190 basechar 0
AnchorPoint: "top" 285 770 basechar 0
LayerCount: 4
Fore
SplineSet
80 0 m 1xe8
 80 720 l 1
 170 720 l 1
 170 50 l 1
 400 50 l 1
 400 720 l 1
 490 720 l 1
 490 50 l 1xf0
 560 50 l 1
 560 -140 l 1
 470 -180 l 1
 470 0 l 1
 80 0 l 1xe8
EndSplineSet
Validated: 1048577
EndChar

StartChar: uni0427
Encoding: 1063 1063 649
Width: 510
Flags: W
HStem: 0 21G<340 430> 310 50<140 340> 700 20G<50 140 340 430>
VStem: 50 90<360 720> 340 90<0 310 360 720>
AnchorPoint: "top" 250 770 basechar 0
AnchorPoint: "bottom" 250 -30 basechar 0
LayerCount: 4
Fore
SplineSet
340 0 m 1
 340 310 l 1
 50 310 l 1
 50 720 l 1
 140 720 l 1
 140 360 l 1
 340 360 l 1
 340 720 l 1
 430 720 l 1
 430 0 l 1
 340 0 l 1
EndSplineSet
Validated: 1048577
EndChar

StartChar: uni0428
Encoding: 1064 1064 650
Width: 650
Flags: W
HStem: 0 50<150 285 365 500> 700 20G<60 150 285 365 500 590>
VStem: 60 90<50 720> 285 80<50 720> 500 90<50 720>
CounterMasks: 1 38
AnchorPoint: "bottom" 325 -30 basechar 0
AnchorPoint: "top" 325 770 basechar 0
LayerCount: 4
Fore
SplineSet
590 720 m 1
 590 0 l 1
 60 0 l 1
 60 720 l 1
 150 720 l 1
 150 50 l 1
 285 50 l 1
 285 720 l 1
 365 720 l 1
 365 50 l 1
 500 50 l 1
 500 720 l 1
 590 720 l 1
EndSplineSet
Validated: 1048577
EndChar

StartChar: uni0429
Encoding: 1065 1065 651
Width: 680
Flags: W
HStem: 0 50<150 285 365 500> 700 20G<60 150 285 365 500 590>
VStem: 60 90<50 720> 285 80<50 720> 500 90<50 720> 570 90<-140 0>
AnchorPoint: "bottom" 615 -190 basechar 0
AnchorPoint: "top" 325 770 basechar 0
LayerCount: 4
Fore
SplineSet
590 50 m 1xf8
 660 50 l 1
 660 -140 l 1
 570 -180 l 1
 570 0 l 1xf4
 60 0 l 1
 60 720 l 1
 150 720 l 1
 150 50 l 1
 285 50 l 1
 285 720 l 1
 365 720 l 1
 365 50 l 1
 500 50 l 1
 500 720 l 1
 590 720 l 1
 590 50 l 1xf8
EndSplineSet
Validated: 1048577
EndChar

StartChar: uni042A
Encoding: 1066 1066 652
Width: 620
Flags: W
HStem: 0 50<250 480> 360 50<250 480> 670 50<30 160>
VStem: 160 90<50 360 410 670> 480 90<50 360>
AnchorPoint: "top" 330 770 basechar 0
AnchorPoint: "bottom" 330 -30 basechar 0
LayerCount: 4
Fore
SplineSet
160 0 m 1
 160 670 l 1
 30 670 l 1
 30 720 l 1
 250 720 l 1
 250 410 l 1
 570 410 l 1
 570 0 l 1
 160 0 l 1
250 50 m 1
 480 50 l 1
 480 360 l 1
 250 360 l 1
 250 50 l 1
EndSplineSet
Validated: 1048577
EndChar

StartChar: uni042B
Encoding: 1067 1067 653
Width: 700
Flags: W
HStem: 0 50<170 340> 360 50<170 340> 700 20G<80 170 530 620>
VStem: 80 90<50 360 410 720> 340 90<50 360> 530 90<0 720>
AnchorPoint: "top" 350 770 basechar 0
AnchorPoint: "bottom" 350 -30 basechar 0
LayerCount: 4
Fore
SplineSet
530 0 m 1
 530 720 l 9
 620 720 l 17
 620 0 l 25
 530 0 l 1
170 50 m 1
 340 50 l 1
 340 360 l 1
 170 360 l 1
 170 50 l 1
80 0 m 1
 80 720 l 25
 170 720 l 25
 170 410 l 25
 430 410 l 1
 430 0 l 1
 80 0 l 1
EndSplineSet
Validated: 1048577
EndChar

StartChar: uni042C
Encoding: 1068 1068 654
Width: 540
Flags: W
HStem: 0 50<170 400> 360 50<170 400> 700 20G<80 170>
VStem: 80 90<50 360 410 720> 400 90<50 360>
AnchorPoint: "top" 280 770 basechar 0
AnchorPoint: "bottom" 280 -30 basechar 0
LayerCount: 4
Fore
SplineSet
170 50 m 1
 400 50 l 1
 400 360 l 1
 170 360 l 1
 170 50 l 1
80 0 m 1
 80 720 l 25
 170 720 l 25
 170 410 l 25
 490 410 l 1
 490 0 l 1
 80 0 l 1
EndSplineSet
Validated: 1048577
EndChar

StartChar: uni042D
Encoding: 1069 1069 655
Width: 570
Flags: W
HStem: 0 50<160 400> 360 50<110 400> 580 140<80 160> 670 50<160 400>
VStem: 80 80<50 170 580 670> 400 90<50 360 410 670>
AnchorPoint: "bottom" 280 -30 basechar 0
AnchorPoint: "top" 280 770 basechar 0
LayerCount: 4
Fore
SplineSet
80 0 m 1xdc
 80 170 l 1
 160 170 l 1
 160 50 l 1
 400 50 l 1
 400 360 l 1
 110 360 l 1
 110 410 l 9
 400 410 l 17
 400 670 l 9
 160 670 l 17xdc
 160 580 l 1
 80 580 l 1
 80 720 l 9xec
 490 720 l 17
 490 0 l 1
 80 0 l 1xdc
EndSplineSet
Validated: 1048577
EndChar

StartChar: uni042E
Encoding: 1070 1070 656
Width: 800
Flags: W
HStem: 0 50<430 630> 360 50<170 340> 670 50<430 630>
VStem: 80 90<0 360 410 720> 340 90<50 360 410 670> 630 90<50 670>
AnchorPoint: "bottom" 400 -30 basechar 0
AnchorPoint: "top" 400 770 basechar 0
LayerCount: 4
Fore
SplineSet
80 0 m 1
 80 720 l 1
 170 720 l 1
 170 410 l 1
 340 410 l 1
 340 720 l 1
 720 720 l 1
 720 0 l 1
 340 0 l 1
 340 360 l 1
 170 360 l 1
 170 0 l 1
 80 0 l 1
430 670 m 1
 430 50 l 1
 630 50 l 1
 630 670 l 1
 430 670 l 1
EndSplineSet
Validated: 1048577
EndChar

StartChar: uni042F
Encoding: 1071 1071 657
Width: 570
Flags: W
HStem: 0 21G<50 157.742 400 490> 310 50<170 180 270 400> 670 50<170 400>
VStem: 80 90<360 670> 400 90<0 310 360 670>
AnchorPoint: "top" 290 770 basechar 0
AnchorPoint: "bottom" 300 -30 basechar 0
LayerCount: 4
Fore
SplineSet
170 360 m 1
 400 360 l 1
 400 670 l 1
 170 670 l 1
 170 360 l 1
50 0 m 1
 180 310 l 1
 80 310 l 1
 80 720 l 1
 490 720 l 1
 490 0 l 1
 400 0 l 25
 400 310 l 17
 270 310 l 1
 150 0 l 1
 50 0 l 1
EndSplineSet
Validated: 1048577
EndChar

StartChar: uni0431
Encoding: 1073 1073 658
Width: 500
Flags: W
HStem: 0 50<158 342> 450 50<158 342> 662 78<140 430>
VStem: 70 88<50 450> 70 70<500 662> 342 88<50 450>
AnchorPoint: "top" 250 790 basechar 0
AnchorPoint: "bottom" 250 -30 basechar 0
LayerCount: 4
Fore
SplineSet
158 50 m 1xf4
 342 50 l 1
 342 450 l 1
 158 450 l 1
 158 50 l 1xf4
70 0 m 1xec
 70 740 l 1
 430 740 l 1
 430 662 l 1
 140 662 l 1
 140 500 l 1
 430 500 l 1
 430 0 l 1
 70 0 l 1xec
EndSplineSet
Validated: 1048577
EndChar

StartChar: uni0432
Encoding: 1074 1074 659
Width: 500
Flags: W
HStem: 0 50<158 342> 230 50<158 242 310 342> 450 50<158 322>
VStem: 70 88<50 230 280 450> 322 88<380 450> 342 88<50 230>
AnchorPoint: "bottom" 250 -30 basechar 0
AnchorPoint: "top" 250 530 basechar 0
LayerCount: 4
Fore
SplineSet
70 0 m 1xf4
 70 500 l 1
 410 500 l 1
 410 380 l 1xf8
 310 280 l 1
 430 280 l 1
 430 0 l 1
 70 0 l 1xf4
158 50 m 1
 342 50 l 1
 342 230 l 1xf4
 158 230 l 1
 158 50 l 1
158 280 m 1
 242 280 l 1
 322 360 l 1
 322 450 l 1xf8
 158 450 l 1
 158 280 l 1
EndSplineSet
Validated: 1048577
EndChar

StartChar: uni0433
Encoding: 1075 1075 660
Width: 360
Flags: W
HStem: 0 21G<70 158> 450 50<158 320>
VStem: 70 88<0 450>
AnchorPoint: "top" 200 550 basechar 0
AnchorPoint: "bottom" 130 -30 basechar 0
LayerCount: 4
Fore
SplineSet
70 0 m 1
 70 500 l 1
 320 500 l 1
 320 450 l 1
 158 450 l 1
 158 0 l 1
 70 0 l 1
EndSplineSet
Validated: 1048577
EndChar

StartChar: uni0434
Encoding: 1076 1076 661
Width: 480
Flags: W
HStem: 0 50<100 355> 450 50<130 245>
AnchorPoint: "top" 240 550 basechar 0
AnchorPoint: "bottom" 240 -30 basechar 0
LayerCount: 4
Fore
SplineSet
10 0 m 1
 118 350 l 1
 190 350 l 1
 100 50 l 1
 355 50 l 1
 245 450 l 1
 130 450 l 1
 130 500 l 1
 320 500 l 1
 470 0 l 1
 10 0 l 1
EndSplineSet
Validated: 1048577
EndChar

StartChar: uni0436
Encoding: 1078 1078 662
Width: 650
Flags: W
HStem: 0 21G<70 158 291 359 492 580> 250 50<210 291 359 440> 480 20G<50 156 291 359 494 600>
VStem: 70 88<0 250> 291 68<0 250 300 500> 492 88<0 250>
CounterMasks: 1 1c
AnchorPoint: "top" 325 550 basechar 0
AnchorPoint: "bottom" 325 -30 basechar 0
LayerCount: 4
Fore
SplineSet
70 0 m 1
 70 300 l 1
 130 300 l 1
 50 500 l 1
 150 500 l 1
 210 300 l 1
 291 300 l 1
 291 500 l 1
 359 500 l 1
 359 300 l 1
 440 300 l 1
 500 500 l 1
 600 500 l 1
 520 300 l 1
 580 300 l 1
 580 0 l 1
 492 0 l 1
 492 250 l 1
 359 250 l 1
 359 0 l 1
 291 0 l 1
 291 250 l 1
 158 250 l 1
 158 0 l 1
 70 0 l 1
EndSplineSet
Validated: 1048577
EndChar

StartChar: uni0437
Encoding: 1079 1079 663
Width: 500
Flags: W
HStem: 0 80<60 148> 0 50<148 342> 230 50<158 242 310 342> 370 130<70 158> 450 50<158 322>
VStem: 70 88<370 450> 322 88<380 450> 342 88<50 230>
AnchorPoint: "bottom" 250 -30 basechar 0
AnchorPoint: "top" 250 530 basechar 0
LayerCount: 4
Fore
SplineSet
60 0 m 1xa5
 60 80 l 1
 148 80 l 1xa5
 148 50 l 1
 342 50 l 1
 342 230 l 1x65
 158 230 l 1
 158 280 l 1
 242 280 l 1
 322 360 l 1
 322 450 l 1
 158 450 l 1x6e
 158 370 l 1
 70 370 l 1
 70 500 l 1x36
 410 500 l 1
 410 380 l 1x2e
 310 280 l 1
 430 280 l 1
 430 0 l 1x6d
 60 0 l 1xa5
EndSplineSet
Validated: 1048577
EndChar

StartChar: uni0438
Encoding: 1080 1080 664
Width: 500
Flags: W
HStem: 0 21G<70 158 342 430> 480 20G<70 158 342 430>
VStem: 70 88<0 48 128 500> 342 88<0 232 312 500>
AnchorPoint: "top" 250 550 basechar 0
AnchorPoint: "bottom" 250 -30 basechar 0
LayerCount: 4
Fore
SplineSet
70 0 m 1
 70 500 l 9
 158 500 l 17
 158 128 l 1
 342 312 l 1
 342 500 l 1
 430 500 l 1
 430 0 l 9
 342 0 l 25
 342 232 l 25
 158 48 l 25
 158 0 l 25
 70 0 l 1
EndSplineSet
Validated: 1048577
EndChar

StartChar: uni043B
Encoding: 1083 1083 666
Width: 500
Flags: W
HStem: 0 21G<10 95.5556 364.444 470> 450 50<215 245>
AnchorPoint: "top" 250 550 basechar 0
AnchorPoint: "bottom" 250 -30 basechar 0
LayerCount: 4
Fore
SplineSet
10 0 m 1
 160 500 l 1
 320 500 l 1
 470 0 l 1
 370 0 l 1
 245 450 l 1
 215 450 l 1
 90 0 l 1
 10 0 l 1
EndSplineSet
Validated: 1048577
EndChar

StartChar: uni043C
Encoding: 1084 1084 667
Width: 600
Flags: W
HStem: 0 21G<80 148 432 520> 480 20G<80 178.571 421.429 520>
VStem: 120 28<393.926 410> 432 28<393.926 410>
AnchorPoint: "top" 300 550 basechar 0
AnchorPoint: "bottom" 300 -30 basechar 0
LayerCount: 4
Fore
SplineSet
80 0 m 1
 80 500 l 9
 170 500 l 25
 320 150 l 25
 280 150 l 25
 430 500 l 25
 520 500 l 17
 520 0 l 1
 432 0 l 1
 432 410 l 1
 460 410 l 1
 325 100 l 1
 255 100 l 1
 120 410 l 1
 148 410 l 1
 148 0 l 1
 80 0 l 1
EndSplineSet
Validated: 1048581
EndChar

StartChar: uni043D
Encoding: 1085 1085 668
Width: 500
Flags: W
HStem: 0 21G<70 158 342 430> 250 50<158 342> 480 20G<70 158 342 430>
VStem: 70 88<0 250 300 500> 342 88<0 250 300 500>
AnchorPoint: "top" 250 550 basechar 0
AnchorPoint: "bottom" 250 -30 basechar 0
LayerCount: 4
Fore
SplineSet
70 0 m 1
 70 500 l 9
 158 500 l 17
 158 300 l 1
 342 300 l 1
 342 500 l 1
 430 500 l 1
 430 0 l 9
 342 0 l 25
 342 250 l 25
 158 250 l 25
 158 0 l 25
 70 0 l 1
EndSplineSet
Validated: 1048577
EndChar

StartChar: uni0442
Encoding: 1090 1090 669
Width: 400
Flags: W
HStem: 0 21G<156 244> 450 50<20 156 244 380>
VStem: 156 88<0 450>
AnchorPoint: "top" 200 550 basechar 0
AnchorPoint: "bottom" 200 -30 basechar 0
LayerCount: 4
Fore
SplineSet
156 0 m 1
 156 450 l 1
 20 450 l 1
 20 500 l 1
 380 500 l 1
 380 450 l 1
 244 450 l 1
 244 0 l 1
 156 0 l 1
EndSplineSet
Validated: 1048577
EndChar

StartChar: uni0446
Encoding: 1094 1094 671
Width: 510
Flags: W
HStem: 0 50<158 342> 480 20G<70 158 342 430>
VStem: 70 88<50 500> 342 88<50 500> 410 80<-140 0>
AnchorPoint: "top" 250 550 basechar 0
AnchorPoint: "bottom" 450 -190 basechar 0
LayerCount: 4
Fore
SplineSet
70 0 m 1xe8
 70 500 l 1
 158 500 l 1
 158 50 l 1
 342 50 l 1
 342 500 l 1
 430 500 l 1
 430 50 l 1xf0
 490 50 l 1
 490 -140 l 1
 410 -180 l 1
 410 0 l 1
 70 0 l 1xe8
EndSplineSet
Validated: 1048577
EndChar

StartChar: uni0447
Encoding: 1095 1095 672
Width: 480
Flags: W
HStem: 0 21G<322 410> 200 50<138 322> 480 20G<50 138 322 410>
VStem: 50 88<250 500> 322 88<0 200 250 500>
AnchorPoint: "top" 240 550 basechar 0
AnchorPoint: "bottom" 240 -30 basechar 0
LayerCount: 4
Fore
SplineSet
322 0 m 1
 322 200 l 1
 50 200 l 1
 50 500 l 1
 138 500 l 1
 138 250 l 1
 322 250 l 1
 322 500 l 1
 410 500 l 1
 410 0 l 1
 322 0 l 1
EndSplineSet
Validated: 1048577
EndChar

StartChar: uni0448
Encoding: 1096 1096 673
Width: 660
Flags: W
HStem: 0 50<158 291 369 502> 480 20G<70 158 291 369 502 590>
VStem: 70 88<50 500> 291 78<50 500> 502 88<50 500>
CounterMasks: 1 38
AnchorPoint: "bottom" 330 -30 basechar 0
AnchorPoint: "top" 330 550 basechar 0
LayerCount: 4
Fore
SplineSet
70 0 m 1
 70 500 l 1
 158 500 l 1
 158 50 l 1
 291 50 l 1
 291 500 l 1
 369 500 l 1
 369 50 l 1
 502 50 l 1
 502 500 l 1
 590 500 l 1
 590 0 l 1
 70 0 l 1
EndSplineSet
Validated: 1048577
EndChar

StartChar: uni0449
Encoding: 1097 1097 674
Width: 670
Flags: W
HStem: 0 50<158 291 369 502> 480 20G<70 158 291 369 502 590>
VStem: 70 88<50 500> 291 78<50 500> 502 88<50 500> 570 80<-140 0>
AnchorPoint: "bottom" 610 -190 basechar 0
AnchorPoint: "top" 330 550 basechar 0
LayerCount: 4
Fore
SplineSet
70 0 m 1xf4
 70 500 l 1
 158 500 l 1
 158 50 l 1
 291 50 l 1
 291 500 l 1
 369 500 l 1
 369 50 l 1
 502 50 l 1
 502 500 l 1
 590 500 l 1
 590 50 l 1xf8
 650 50 l 1
 650 -140 l 1
 570 -180 l 1
 570 0 l 1
 70 0 l 1xf4
EndSplineSet
Validated: 1048577
EndChar

StartChar: uni044A
Encoding: 1098 1098 675
Width: 550
Flags: W
HStem: 0 50<228 412> 250 50<228 412> 450 50<20 140>
VStem: 140 88<50 250 300 450> 412 88<50 250>
AnchorPoint: "bottom" 320 -30 basechar 0
AnchorPoint: "top" 320 530 basechar 0
LayerCount: 4
Fore
SplineSet
228 50 m 1
 412 50 l 1
 412 250 l 1
 228 250 l 1
 228 50 l 1
140 0 m 1
 140 450 l 9
 20 450 l 25
 20 500 l 25
 228 500 l 17
 228 300 l 1
 500 300 l 1
 500 0 l 1
 140 0 l 1
EndSplineSet
Validated: 1048577
EndChar

StartChar: uni044B
Encoding: 1099 1099 676
Width: 680
Flags: W
HStem: 0 50<158 322> 250 50<158 322> 480 20G<70 158 522 610>
VStem: 70 88<50 250 300 500> 322 88<50 250> 522 88<0 500>
AnchorPoint: "top" 345 530 basechar 0
AnchorPoint: "bottom" 345 -30 basechar 0
LayerCount: 4
Fore
SplineSet
522 0 m 1
 522 500 l 1
 610 500 l 1
 610 0 l 1
 522 0 l 1
158 50 m 1
 322 50 l 1
 322 250 l 1
 158 250 l 1
 158 50 l 1
70 0 m 1
 70 500 l 1
 158 500 l 1
 158 300 l 1
 410 300 l 1
 410 0 l 1
 70 0 l 1
EndSplineSet
Validated: 1048577
EndChar

StartChar: uni044C
Encoding: 1100 1100 677
Width: 480
Flags: W
HStem: 0 50<158 342> 250 50<158 342> 480 20G<70 158>
VStem: 70 88<50 250 300 500> 342 88<50 250>
AnchorPoint: "top" 250 530 basechar 0
AnchorPoint: "bottom" 250 -30 basechar 0
LayerCount: 4
Fore
SplineSet
158 50 m 1
 342 50 l 1
 342 250 l 1
 158 250 l 1
 158 50 l 1
70 0 m 1
 70 500 l 1
 158 500 l 1
 158 300 l 1
 430 300 l 1
 430 0 l 1
 70 0 l 1
EndSplineSet
Validated: 1048577
EndChar

StartChar: uni044D
Encoding: 1101 1101 678
Width: 480
Flags: W
HStem: 0 140<50 125> 0 50<125 322> 250 50<122 322> 380 120<50 125> 450 50<125 322>
VStem: 50 75<50 140 380 450> 322 88<50 250 300 450>
AnchorPoint: "top" 230 550 basechar 0
AnchorPoint: "bottom" 230 -30 basechar 0
LayerCount: 4
Fore
SplineSet
50 0 m 1xa6
 50 140 l 1
 125 140 l 1xa6
 125 50 l 1
 322 50 l 1
 322 250 l 1
 122 250 l 1
 122 300 l 1
 322 300 l 1
 322 450 l 1
 125 450 l 1x6e
 125 380 l 1
 50 380 l 1
 50 500 l 1x36
 410 500 l 1
 410 0 l 1x6e
 50 0 l 1xa6
EndSplineSet
Validated: 1048577
EndChar

StartChar: uni044E
Encoding: 1102 1102 679
Width: 700
Flags: W
HStem: 0 50<389 542> 250 50<158 301> 450 50<389 542>
VStem: 70 88<0 250 300 500> 301 88<50 250 300 450> 542 88<50 450>
AnchorPoint: "bottom" 350 -30 basechar 0
AnchorPoint: "top" 350 550 basechar 0
LayerCount: 4
Fore
SplineSet
70 0 m 1
 70 500 l 1
 158 500 l 1
 158 300 l 1
 301 300 l 1
 301 500 l 1
 630 500 l 1
 630 0 l 1
 301 0 l 1
 301 250 l 1
 158 250 l 1
 158 0 l 1
 70 0 l 1
389 450 m 1
 389 50 l 1
 542 50 l 1
 542 450 l 1
 389 450 l 1
EndSplineSet
Validated: 1048577
EndChar

StartChar: uni044F
Encoding: 1103 1103 680
Width: 500
Flags: W
HStem: 0 21G<50 160 342 430> 200 50<158 160 250 342> 450 50<158 342>
VStem: 70 88<250 450> 342 88<0 200 250 450>
AnchorPoint: "bottom" 250 -30 basechar 0
AnchorPoint: "top" 250 550 basechar 0
LayerCount: 4
Fore
SplineSet
158 250 m 1
 342 250 l 1
 342 450 l 1
 158 450 l 1
 158 250 l 1
70 200 m 1
 70 500 l 1
 430 500 l 1
 430 0 l 1
 342 0 l 1
 342 200 l 1
 250 200 l 1
 150 0 l 1
 50 0 l 1
 160 200 l 1
 70 200 l 1
EndSplineSet
Validated: 1048577
EndChar

StartChar: uni0402
Encoding: 1026 1026 681
Width: 680
Flags: W
HStem: 0 80<380 520> 360 50<280 520> 670 50<30 190 280 500>
VStem: 190 90<0 360 410 670> 520 90<80 360>
AnchorPoint: "top" 325 770 basechar 0
AnchorPoint: "bottom" 325 -30 basechar 0
LayerCount: 4
Fore
SplineSet
190 0 m 1
 190 670 l 1
 30 670 l 1
 30 720 l 1
 500 720 l 1
 500 670 l 1
 280 670 l 1
 280 410 l 1
 610 410 l 1
 610 0 l 1
 380 0 l 1
 380 80 l 1
 520 80 l 1
 520 360 l 1
 280 360 l 1
 280 0 l 1
 190 0 l 1
EndSplineSet
Validated: 1048577
EndChar

StartChar: uni040B
Encoding: 1035 1035 682
Width: 680
Flags: W
HStem: 0 21G<190 280 520 610> 360 50<280 520> 670 50<30 190 280 500>
VStem: 190 90<0 360 410 670> 520 90<0 360>
AnchorPoint: "bottom" 325 -30 basechar 0
AnchorPoint: "top" 325 770 basechar 0
LayerCount: 4
Fore
SplineSet
520 0 m 1
 520 360 l 1
 280 360 l 1
 280 0 l 1
 190 0 l 1
 190 670 l 1
 30 670 l 1
 30 720 l 1
 500 720 l 1
 500 670 l 1
 280 670 l 1
 280 410 l 1
 610 410 l 1
 610 0 l 1
 520 0 l 1
EndSplineSet
Validated: 1048577
EndChar

StartChar: uni0404
Encoding: 1028 1028 683
Width: 570
Flags: W
HStem: 0 50<170 410> 360 50<170 460> 580 140<410 490> 670 50<170 410>
VStem: 80 90<50 360 410 670> 410 80<50 170 580 670>
AnchorPoint: "bottom" 290 -30 basechar 0
AnchorPoint: "top" 290 770 basechar 0
LayerCount: 4
Fore
SplineSet
80 0 m 1xdc
 80 720 l 9xdc
 490 720 l 17
 490 580 l 1
 410 580 l 1xec
 410 670 l 9
 170 670 l 17
 170 410 l 9
 460 410 l 17
 460 360 l 1
 170 360 l 1
 170 50 l 1
 410 50 l 1
 410 170 l 1
 490 170 l 1
 490 0 l 1
 80 0 l 1xdc
EndSplineSet
Validated: 1048577
EndChar

StartChar: uni0454
Encoding: 1108 1108 684
Width: 480
Flags: W
HStem: 0 140<355 430> 0 50<158 355> 250 50<158 358> 380 120<355 430> 450 50<158 355>
VStem: 70 88<50 250 300 450> 355 75<50 140 380 450>
AnchorPoint: "top" 250 550 basechar 0
AnchorPoint: "bottom" 250 -30 basechar 0
LayerCount: 4
Fore
SplineSet
70 0 m 1x66
 70 500 l 1x6e
 430 500 l 1
 430 380 l 1
 355 380 l 1x36
 355 450 l 1
 158 450 l 1
 158 300 l 1
 358 300 l 1
 358 250 l 1
 158 250 l 1
 158 50 l 1
 355 50 l 1x6e
 355 140 l 1
 430 140 l 1
 430 0 l 1xa6
 70 0 l 1x66
EndSplineSet
Validated: 1048577
EndChar

StartChar: uni0409
Encoding: 1033 1033 686
Width: 750
Flags: W
HStem: 0 50<461 610> 360 50<405 610> 670 50<210 260>
VStem: 610 90<50 360>
AnchorPoint: "top" 250 770 basechar 0
AnchorPoint: "bottom" 360 -30 basechar 0
LayerCount: 4
Back
SplineSet
420 0 m 1
 420 50 l 1
 610 50 l 1
 610 360 l 1
 360 360 l 1
 360 410 l 1
 700 410 l 1
 700 0 l 1
 420 0 l 1
20 0 m 1
 150 720 l 1
 340 720 l 1
 470 0 l 1
 370 0 l 1
 260 670 l 1
 210 670 l 1
 100 0 l 1
 20 0 l 1
EndSplineSet
Refer: 646 1051 N 1 0 0 1 0 0 2
Fore
SplineSet
20 0 m 1
 150 720 l 1
 340 720 l 1
 396 410 l 1
 700 410 l 1
 700 0 l 1
 370 0 l 1
 260 670 l 1
 210 670 l 1
 100 0 l 1
 20 0 l 1
461 50 m 1
 610 50 l 1
 610 360 l 1
 405 360 l 1
 461 50 l 1
EndSplineSet
Validated: 1048577
EndChar

StartChar: uni040A
Encoding: 1034 1034 687
Width: 770
Flags: W
HStem: 0 50<460 630> 360 50<170 370 460 630> 700 20G<80 170 370 460>
VStem: 80 90<0 360 410 720> 370 90<50 360 410 720> 630 90<50 360>
AnchorPoint: "top" 270 770 basechar 0
AnchorPoint: "bottom" 270 -30 basechar 0
LayerCount: 4
Fore
SplineSet
80 0 m 1
 80 720 l 1
 170 720 l 1
 170 410 l 1
 370 410 l 1
 370 720 l 1
 460 720 l 1
 460 410 l 1
 720 410 l 1
 720 0 l 1
 370 0 l 1
 370 360 l 1
 170 360 l 1
 170 0 l 1
 80 0 l 1
460 360 m 1
 460 50 l 1
 630 50 l 1
 630 360 l 1
 460 360 l 1
EndSplineSet
Validated: 1048577
EndChar

StartChar: uni0459
Encoding: 1113 1113 688
Width: 700
Flags: W
HStem: 0 50<380 560> 250 50<320 560> 450 50<195 225>
VStem: 560 90<50 250>
AnchorPoint: "bottom" 350 -30 basechar 0
AnchorPoint: "top" 230 550 basechar 0
LayerCount: 4
Fore
SplineSet
10 0 m 1
 140 500 l 1
 300 500 l 1
 430 0 l 1
 330 0 l 1
 225 450 l 1
 195 450 l 1
 90 0 l 1
 10 0 l 1
380 0 m 1
 380 50 l 1
 560 50 l 1
 560 250 l 1
 320 250 l 1
 320 300 l 1
 650 300 l 1
 650 0 l 1
 380 0 l 1
EndSplineSet
Validated: 1048581
EndChar

StartChar: uni045A
Encoding: 1114 1114 689
Width: 730
Flags: W
HStem: 0 50<430 592> 250 50<158 342 430 592> 480 20G<70 158 342 430>
VStem: 70 88<0 250 300 500> 342 88<50 250 300 500> 592 88<50 250>
AnchorPoint: "bottom" 370 -30 basechar 0
AnchorPoint: "top" 250 550 basechar 0
LayerCount: 4
Fore
SplineSet
70 0 m 1
 70 500 l 1
 158 500 l 1
 158 300 l 1
 342 300 l 1
 342 500 l 1
 430 500 l 1
 430 300 l 1
 680 300 l 1
 680 0 l 1
 342 0 l 1
 342 250 l 1
 158 250 l 1
 158 0 l 1
 70 0 l 1
430 250 m 1
 430 50 l 1
 592 50 l 1
 592 250 l 1
 430 250 l 1
EndSplineSet
Validated: 1048577
EndChar

StartChar: uni0452
Encoding: 1106 1106 695
Width: 500
Flags: W
HStem: -200 78<140 342> 0 21G<70 158> 450 50<158 342> 580 60<30 70 158 300> 740 20G<114 158>
VStem: 70 88<0 450 500 580 640 720> 342 88<-122 450>
AnchorPoint: "bottom" 255 -230 basechar 0
AnchorPoint: "top" 120 790 basechar 0
LayerCount: 4
Back
SplineSet
30 580 m 1
 30 640 l 1
 300 640 l 1
 300 580 l 1
 30 580 l 1
70 0 m 1
 70 720 l 1
 158 760 l 1
 158 500 l 1
 430 500 l 1
 430 -200 l 1
 140 -200 l 1
 140 -122 l 1
 342 -122 l 1
 342 450 l 1
 158 450 l 1
 158 0 l 1
 70 0 l 1
EndSplineSet
Fore
SplineSet
30 580 m 1
 30 640 l 1
 70 640 l 1
 70 720 l 1
 158 760 l 1
 158 640 l 1
 300 640 l 1
 300 580 l 1
 158 580 l 1
 158 500 l 1
 430 500 l 1
 430 -200 l 1
 140 -200 l 1
 140 -122 l 1
 342 -122 l 1
 342 450 l 1
 158 450 l 1
 158 0 l 1
 70 0 l 1
 70 580 l 1
 30 580 l 1
EndSplineSet
Validated: 1048577
EndChar

StartChar: uni040F
Encoding: 1039 1039 696
Width: 570
Flags: W
HStem: 0 50<170 240 330 400> 700 20G<80 170 400 490>
VStem: 80 90<50 720> 240 90<-140 0> 400 90<50 720>
CounterMasks: 1 38
AnchorPoint: "bottom" 285 -190 basechar 0
AnchorPoint: "top" 285 770 basechar 0
LayerCount: 4
Back
SplineSet
240 -180 m 1
 240 30 l 1
 330 30 l 1
 330 -140 l 1
 240 -180 l 1
EndSplineSet
Refer: 566 928 N -1 0 0 -1 570 720 3
Fore
SplineSet
80 0 m 1
 80 720 l 1
 170 720 l 1
 170 50 l 1
 400 50 l 1
 400 720 l 1
 490 720 l 1
 490 0 l 1
 330 0 l 1
 330 -140 l 1
 240 -180 l 1
 240 0 l 1
 80 0 l 1
EndSplineSet
Validated: 1048577
EndChar

StartChar: uni045F
Encoding: 1119 1119 697
Width: 500
Flags: W
HStem: 0 50<158 210 290 342> 480 20G<70 158 342 430>
VStem: 70 88<50 500> 210 80<-140 0> 342 88<50 500>
CounterMasks: 1 38
AnchorPoint: "top" 250 550 basechar 0
AnchorPoint: "bottom" 250 -190 basechar 0
LayerCount: 4
Back
SplineSet
210 -180 m 1
 210 30 l 1
 290 30 l 1
 290 -140 l 1
 210 -180 l 1
EndSplineSet
Fore
SplineSet
70 0 m 1
 70 500 l 1
 158 500 l 1
 158 50 l 1
 342 50 l 1
 342 500 l 1
 430 500 l 1
 430 0 l 1
 290 0 l 1
 290 -140 l 1
 210 -180 l 1
 210 0 l 1
 70 0 l 1
EndSplineSet
Validated: 1048577
EndChar

StartChar: uni0490
Encoding: 1168 1168 713
Width: 440
Flags: W
HStem: 0 21G<80 170> 670 130<320 410> 670 50<170 320>
VStem: 80 90<0 670> 320 90<720 800>
AnchorPoint: "bottom" 215 -30 basechar 0
AnchorPoint: "top" 195 770 basechar 0
LayerCount: 4
Fore
SplineSet
80 0 m 1xb8
 80 720 l 1
 320 720 l 1xb8
 320 800 l 1
 410 800 l 1
 410 670 l 1xd8
 170 670 l 1
 170 0 l 1
 80 0 l 1xb8
EndSplineSet
Validated: 1048577
EndChar

StartChar: uni0491
Encoding: 1169 1169 714
Width: 360
Flags: W
HStem: 0 21G<70 158> 450 50<158 240>
VStem: 70 88<0 450> 240 80<500 650>
AnchorPoint: "top" 280 680 basechar 0
AnchorPoint: "bottom" 130 -30 basechar 0
LayerCount: 4
Fore
SplineSet
70 0 m 1
 70 500 l 1
 240 500 l 1
 240 650 l 1
 320 650 l 1
 320 450 l 1
 158 450 l 1
 158 0 l 1
 70 0 l 1
EndSplineSet
Validated: 1048577
EndChar

StartChar: uni0492
Encoding: 1170 1170 715
Width: 440
Flags: W
HStem: 0 21G<80 170> 300 50<30 80 170 330> 670 50<170 410>
VStem: 80 90<0 300 350 670>
LayerCount: 4
Back
SplineSet
30 300 m 1
 30 350 l 9
 330 350 l 17
 330 300 l 1
 30 300 l 1
EndSplineSet
Refer: 619 1043 N 1 0 0 1 0 0 2
Fore
SplineSet
30 300 m 1
 30 350 l 1
 80 350 l 1
 80 720 l 1
 410 720 l 1
 410 670 l 1
 170 670 l 1
 170 350 l 1
 330 350 l 1
 330 300 l 1
 170 300 l 1
 170 0 l 1
 80 0 l 1
 80 300 l 1
 30 300 l 1
EndSplineSet
Validated: 1
EndChar

StartChar: uni0493
Encoding: 1171 1171 716
Width: 360
Flags: W
HStem: 0 21G<70 158> 220 50<30 70 158 280> 450 50<158 320>
VStem: 70 88<0 220 270 450>
LayerCount: 4
Back
SplineSet
30 220 m 1
 30 270 l 9
 280 270 l 17
 280 220 l 1
 30 220 l 1
EndSplineSet
Refer: 660 1075 N 1 0 0 1 0 0 2
Fore
SplineSet
30 220 m 1
 30 270 l 1
 70 270 l 1
 70 500 l 1
 320 500 l 1
 320 450 l 1
 158 450 l 1
 158 270 l 1
 280 270 l 1
 280 220 l 1
 158 220 l 1
 158 0 l 1
 70 0 l 1
 70 220 l 1
 30 220 l 1
EndSplineSet
Validated: 1
EndChar

StartChar: uni0494
Encoding: 1172 1172 717
Width: 550
Flags: W
HStem: -200 80<210 410> 0 21G<80 170> 360 50<170 410> 670 50<170 450>
VStem: 80 90<0 360 410 670> 410 90<-120 360>
LayerCount: 4
Back
SplineSet
210 -200 m 1
 210 -120 l 1
 410 -120 l 1
 410 360 l 1
 130 360 l 1
 130 410 l 1
 500 410 l 1
 500 -200 l 1
 210 -200 l 1
EndSplineSet
Refer: 619 1043 N 1 0 0 1 0 0 2
Fore
SplineSet
80 0 m 1
 80 720 l 1
 450 720 l 1
 450 670 l 1
 170 670 l 1
 170 410 l 1
 500 410 l 1
 500 -200 l 1
 210 -200 l 1
 210 -120 l 1
 410 -120 l 1
 410 360 l 1
 170 360 l 1
 170 0 l 1
 80 0 l 1
EndSplineSet
Validated: 1
EndChar

StartChar: uni0496
Encoding: 1174 1174 718
Width: 760
Flags: W
HStem: 0 21G<80 170 335 415> 350 50<250 335 415 500> 700 20G<60 165.625 335 415 584.375 690>
VStem: 80 90<0 350> 335 80<0 350 400 720> 580 90<50 350> 650 90<-140 0>
LayerCount: 4
Back
SplineSet
650 -180 m 1
 650 50 l 1
 740 50 l 1
 740 -140 l 1
 650 -180 l 1
EndSplineSet
Fore
SplineSet
80 0 m 1xfc
 80 400 l 1
 170 400 l 1
 60 720 l 1
 160 720 l 1
 250 400 l 1
 335 400 l 1
 335 720 l 1
 415 720 l 1
 415 400 l 1
 500 400 l 1
 590 720 l 1
 690 720 l 1
 580 400 l 1
 670 400 l 1
 670 50 l 1xfc
 740 50 l 1
 740 -140 l 1
 650 -180 l 1
 650 0 l 1xfa
 580 0 l 1
 580 350 l 1
 415 350 l 1
 415 0 l 1
 335 0 l 1
 335 350 l 1
 170 350 l 1
 170 0 l 1
 80 0 l 1xfc
EndSplineSet
Validated: 1
EndChar

StartChar: uni0497
Encoding: 1175 1175 719
Width: 660
Flags: W
HStem: 0 21G<70 158 286 364> 250 50<210 286 364 440> 480 20G<50 156 286 364 494 600>
VStem: 70 88<0 250> 286 78<0 250 300 500> 492 88<50 250> 560 80<-140 0>
AnchorPoint: "bottom" 325 -190 basechar 0
AnchorPoint: "top" 325 550 basechar 0
LayerCount: 4
Back
SplineSet
560 -180 m 1
 560 50 l 1
 640 50 l 1
 640 -140 l 1
 560 -180 l 1
EndSplineSet
Fore
SplineSet
70 0 m 1xfc
 70 300 l 1
 130 300 l 1
 50 500 l 1
 150 500 l 1
 210 300 l 1
 286 300 l 1
 286 500 l 1
 364 500 l 1
 364 300 l 1
 440 300 l 1
 500 500 l 1
 600 500 l 1
 520 300 l 1
 580 300 l 1
 580 50 l 1xfc
 640 50 l 1
 640 -140 l 1
 560 -180 l 1
 560 0 l 1xfa
 492 0 l 1
 492 250 l 1
 364 250 l 1
 364 0 l 1
 286 0 l 1
 286 250 l 1
 158 250 l 1
 158 0 l 1
 70 0 l 1xfc
EndSplineSet
Validated: 1048577
EndChar

StartChar: uni0498
Encoding: 1176 1176 720
Width: 550
Flags: W
HStem: 0 90<70 150> 0 50<150 230 320 380> 360 50<110 280 350 380> 580 140<80 160> 670 50<160 360>
VStem: 70 80<50 90> 80 80<580 670> 230 90<-140 0> 360 90<510 670> 380 90<50 360>
LayerCount: 4
Back
SplineSet
230 -180 m 1
 230 30 l 1
 320 30 l 1
 320 -140 l 1
 230 -180 l 1
EndSplineSet
Refer: 643 1047 N 1 0 0 1 0 0 2
Fore
SplineSet
70 0 m 1xa540
 70 90 l 1
 150 90 l 1xa540
 150 50 l 1
 380 50 l 1
 380 360 l 1x6540
 110 360 l 1
 110 410 l 1
 280 410 l 1
 360 490 l 1
 360 670 l 1
 160 670 l 1x6b80
 160 580 l 1
 80 580 l 1
 80 720 l 1x3380
 450 720 l 1
 450 510 l 1x2b80
 350 410 l 1
 470 410 l 1
 470 0 l 1
 320 -0 l 1
 320 -140 l 1
 230 -180 l 1
 230 0 l 1x6940
 70 0 l 1xa540
EndSplineSet
Validated: 1
EndChar

StartChar: uni0499
Encoding: 1177 1177 721
Width: 500
Flags: W
HStem: 0 80<60 148> 0 50<148 210 290 342> 230 50<158 242 310 342> 370 130<70 158> 450 50<158 322>
VStem: 70 88<370 450> 210 80<-140 0> 322 88<380 450> 342 88<50 230>
LayerCount: 4
Back
SplineSet
210 -180 m 1
 210 30 l 1
 290 30 l 1
 290 -140 l 1
 210 -180 l 1
EndSplineSet
Refer: 663 1079 N 1 0 0 1 0 0 2
Fore
SplineSet
60 0 m 1xa680
 60 80 l 1
 148 80 l 1xa680
 148 50 l 1
 342 50 l 1
 342 230 l 1x6680
 158 230 l 1
 158 280 l 1
 242 280 l 1
 322 360 l 1
 322 450 l 1
 158 450 l 1x6f
 158 370 l 1
 70 370 l 1
 70 500 l 1x37
 410 500 l 1
 410 380 l 1x2f
 310 280 l 1
 430 280 l 1
 430 0 l 1
 290 -0 l 1
 290 -140 l 1
 210 -180 l 1
 210 0 l 1x6e80
 60 0 l 1xa680
EndSplineSet
Validated: 1
EndChar

StartChar: uni049A
Encoding: 1178 1178 722
Width: 550
Flags: W
HStem: 0 21G<80 170> 350 50<170 270 360 370> 700 20G<80 170 373.125 480>
VStem: 80 90<0 350 400 720> 370 90<50 350> 440 90<-140 0>
LayerCount: 4
Back
SplineSet
440 -180 m 1
 440 50 l 1
 530 50 l 1
 530 -140 l 1
 440 -180 l 1
EndSplineSet
Refer: 621 1050 N 1 0 0 1 0 0 2
Fore
SplineSet
80 0 m 1xf8
 80 720 l 1
 170 720 l 1
 170 400 l 1
 270 400 l 1
 380 720 l 1
 480 720 l 1
 360 400 l 1
 460 400 l 1
 460 50 l 1xf8
 530 50 l 1
 530 -140 l 1
 440 -180 l 1
 440 0 l 1xf4
 370 0 l 1
 370 350 l 1
 170 350 l 1
 170 0 l 1
 80 0 l 1xf8
EndSplineSet
Validated: 1
EndChar

StartChar: uni049B
Encoding: 1179 1179 723
Width: 520
Flags: W
HStem: 0 21G<70 158> 250 50<158 240 330 342> 480 20G<70 158 339 450>
VStem: 70 88<0 250 300 500> 342 88<78 250> 420 80<-140 0>
LayerCount: 4
Fore
SplineSet
70 0 m 17xf8
 70 500 l 17
 158 500 l 9
 158 300 l 25
 240 300 l 17
 350 500 l 1
 450 500 l 1
 330 300 l 1
 430 300 l 1
 430 78 l 1xf8
 500 78 l 1
 500 -140 l 1
 420 -180 l 1
 420 0 l 1xf4
 342 0 l 1
 342 250 l 1
 158 250 l 1
 158 0 l 9
 70 0 l 17xf8
EndSplineSet
Validated: 1
EndChar

StartChar: uni04A2
Encoding: 1186 1186 724
Width: 580
Flags: W
HStem: 0 21G<80 170> 360 50<170 400> 700 20G<80 170 400 490>
VStem: 80 90<0 360 410 720> 400 90<50 360 410 720> 470 90<-140 0>
LayerCount: 4
Back
SplineSet
470 -180 m 1
 470 50 l 1
 560 50 l 1
 560 -140 l 1
 470 -180 l 1
EndSplineSet
Refer: 623 1053 N 1 0 0 1 0 0 2
Fore
SplineSet
80 0 m 1xf8
 80 720 l 1
 170 720 l 1
 170 410 l 1
 400 410 l 1
 400 720 l 1
 490 720 l 1
 490 50 l 1xf8
 560 50 l 1
 560 -140 l 1
 470 -180 l 1
 470 0 l 1xf4
 400 0 l 1
 400 360 l 1
 170 360 l 1
 170 0 l 1
 80 0 l 1xf8
EndSplineSet
Validated: 1
EndChar

StartChar: uni04A3
Encoding: 1187 1187 725
Width: 510
Flags: W
HStem: 0 21G<70 158> 250 50<158 342> 480 20G<70 158 342 430>
VStem: 70 88<0 250 300 500> 342 88<50 250 300 500> 410 80<-140 0>
LayerCount: 4
Back
SplineSet
410 -180 m 1
 410 50 l 1
 490 50 l 1
 490 -140 l 1
 410 -180 l 1
EndSplineSet
Refer: 668 1085 N 1 0 0 1 0 0 2
Fore
SplineSet
70 0 m 1xf8
 70 500 l 1
 158 500 l 1
 158 300 l 1
 342 300 l 1
 342 500 l 1
 430 500 l 1
 430 50 l 1xf8
 490 50 l 1
 490 -140 l 1
 410 -180 l 1
 410 0 l 1xf4
 342 0 l 1
 342 250 l 1
 158 250 l 1
 158 0 l 1
 70 0 l 1xf8
EndSplineSet
Validated: 1
EndChar

StartChar: uni04A4
Encoding: 1188 1188 726
Width: 700
Flags: W
HStem: 0 21G<80 170 380 470> 360 50<170 380> 670 50<470 670>
VStem: 80 90<0 360 410 720> 380 90<0 360 410 670>
LayerCount: 4
Fore
SplineSet
80 0 m 1
 80 720 l 1
 170 720 l 1
 170 410 l 1
 380 410 l 1
 380 720 l 1
 670 720 l 1
 670 670 l 1
 470 670 l 1
 470 0 l 1
 380 0 l 1
 380 360 l 1
 170 360 l 1
 170 0 l 1
 80 0 l 1
EndSplineSet
Validated: 1
EndChar

StartChar: uni04A5
Encoding: 1189 1189 727
Width: 610
Flags: W
HStem: 0 21G<70 158 342 430> 250 50<158 342> 450 50<430 590>
VStem: 70 88<0 250 300 500> 342 88<0 250 300 450>
LayerCount: 4
Fore
SplineSet
70 0 m 1
 70 500 l 1
 158 500 l 1
 158 300 l 1
 342 300 l 1
 342 500 l 1
 590 500 l 1
 590 450 l 1
 430 450 l 1
 430 0 l 1
 342 0 l 1
 342 250 l 1
 158 250 l 1
 158 0 l 1
 70 0 l 1
EndSplineSet
Validated: 1
EndChar

StartChar: uni04AA
Encoding: 1194 1194 728
Width: 550
Flags: W
HStem: 0 120<410 490> -0 50<170 230 320 410> 670 50<170 410>
VStem: 80 90<50 670> 230 90<-140 0> 410 80<50 120 520 670>
LayerCount: 4
Fore
SplineSet
80 0 m 1x7c
 80 720 l 1
 490 720 l 1
 490 520 l 1
 410 520 l 1
 410 670 l 1
 170 670 l 1
 170 50 l 1
 410 50 l 1x7c
 410 120 l 1
 490 120 l 1
 490 0 l 1xbc
 320 -0 l 1
 320 -140 l 1
 230 -180 l 1
 230 0 l 1
 80 0 l 1x7c
EndSplineSet
Validated: 1
EndChar

StartChar: uni04AB
Encoding: 1195 1195 729
Width: 480
Flags: W
HStem: -0 100<355 430> 0 50<158 210 290 355> 350 150<355 430> 450 50<158 355>
VStem: 70 88<50 450> 210 80<-140 0> 355 75<50 100 350 450>
LayerCount: 4
Back
SplineSet
210 -180 m 1
 210 30 l 1
 290 30 l 1
 290 -140 l 1
 210 -180 l 1
EndSplineSet
Fore
SplineSet
70 0 m 1x4e
 70 500 l 1x5e
 430 500 l 1
 430 350 l 1
 355 350 l 1x2e
 355 450 l 1
 158 450 l 1
 158 50 l 1
 355 50 l 1x5e
 355 100 l 1
 430 100 l 1
 430 0 l 1x8e
 290 -0 l 1
 290 -140 l 1
 210 -180 l 1
 210 0 l 1
 70 0 l 1x4e
EndSplineSet
Validated: 1
EndChar

StartChar: uni04AC
Encoding: 1196 1196 730
Width: 470
Flags: W
HStem: 670 50<30 190 280 440>
VStem: 190 90<50 670> 260 90<-140 0>
LayerCount: 4
Back
SplineSet
260 -180 m 1
 260 50 l 1
 350 50 l 1
 350 -140 l 1
 260 -180 l 1
EndSplineSet
Refer: 628 1058 N 1 0 0 1 0 0 2
Fore
SplineSet
190 0 m 1xc0
 190 670 l 1
 30 670 l 1
 30 720 l 1
 440 720 l 1
 440 670 l 1
 280 670 l 1
 280 50 l 1xc0
 350 50 l 1
 350 -140 l 1
 260 -180 l 1
 260 0 l 1xa0
 190 0 l 1xc0
EndSplineSet
Validated: 1
EndChar

StartChar: uni04AD
Encoding: 1197 1197 731
Width: 400
Flags: W
HStem: 450 50<20 156 244 380>
VStem: 156 88<50 450> 220 80<-140 0>
LayerCount: 4
Back
SplineSet
220 -180 m 1
 220 50 l 1
 300 50 l 1
 300 -140 l 1
 220 -180 l 1
EndSplineSet
Refer: 669 1090 N 1 0 0 1 0 0 2
Fore
SplineSet
156 0 m 1xc0
 156 450 l 1
 20 450 l 1
 20 500 l 1
 380 500 l 1
 380 450 l 1
 244 450 l 1
 244 50 l 1xc0
 300 50 l 1
 300 -140 l 1
 220 -180 l 1
 220 0 l 1xa0
 156 0 l 1xc0
EndSplineSet
Validated: 1
EndChar

StartChar: uni04B0
Encoding: 1200 1200 734
Width: 520
Flags: W
HStem: 0 21G<215 305> 160 50<50 215 305 470> 310 50<160 215 305 360> 700 20G<70 160 360 450>
VStem: 70 90<360 720> 215 90<0 160 210 310> 360 90<360 720>
CounterMasks: 1 0e
LayerCount: 4
Back
SplineSet
50 160 m 1
 50 210 l 1
 470 210 l 1
 470 160 l 1
 50 160 l 1
EndSplineSet
Refer: 732 1198 N 1 0 0 1 0 0 2
Fore
SplineSet
215 0 m 1
 215 160 l 1
 50 160 l 1
 50 210 l 1
 215 210 l 1
 215 310 l 1
 70 310 l 1
 70 720 l 1
 160 720 l 1
 160 360 l 1
 360 360 l 1
 360 720 l 1
 450 720 l 1
 450 310 l 1
 305 310 l 1
 305 210 l 1
 470 210 l 1
 470 160 l 1
 305 160 l 1
 305 0 l 1
 215 0 l 1
EndSplineSet
Validated: 1
EndChar

StartChar: uni04B1
Encoding: 1201 1201 735
Width: 460
Flags: W
HStem: -220 21G<186 230> 50 50<30 119 341 430> 480 20G<30 129.25 330.75 430>
VStem: 186 88<-180 50>
LayerCount: 4
Back
SplineSet
50 50 m 1
 50 100 l 1
 410 100 l 1
 410 50 l 1
 50 50 l 1
EndSplineSet
Refer: 733 1199 N 1 0 0 1 0 0 2
Fore
SplineSet
186 -220 m 1
 186 50 l 1
 30 50 l 1
 30 100 l 1
 119 100 l 1
 30 500 l 1
 125 500 l 1
 210 100 l 1
 250 100 l 1
 335 500 l 1
 430 500 l 1
 341 100 l 1
 430 100 l 1
 430 50 l 1
 274 50 l 1
 274 -180 l 1
 186 -220 l 1
EndSplineSet
Validated: 1
EndChar

StartChar: uni04B2
Encoding: 1202 1202 736
Width: 580
Flags: W
HStem: 0 21G<60 157.674> 700 20G<60 168.498 411.885 510>
VStem: 470 90<-140 0>
LayerCount: 4
Back
SplineSet
470 -180 m 1
 470 0 l 1
 440 0 l 1
 440 50 l 1
 560 50 l 1
 560 -140 l 1
 470 -180 l 1
EndSplineSet
Refer: 36 88 N 1 0 0 1 0 0 2
Fore
SplineSet
60 0 m 1
 220 380 l 1
 60 720 l 1
 160 720 l 1
 293 407 l 1
 420 720 l 1
 510 720 l 1
 350 360 l 1
 488 50 l 1
 560 50 l 1
 560 -140 l 1
 470 -180 l 1
 470 0 l 1
 410 0 l 1
 277 331 l 1
 150 0 l 1
 60 0 l 1
EndSplineSet
Validated: 1
EndChar

StartChar: uni04B3
Encoding: 1203 1203 737
Width: 500
Flags: W
HStem: 0 21G<40 140.798> 480 20G<40 150.798 359.202 460>
VStem: 400 80<-140 0>
LayerCount: 4
Back
SplineSet
400 -180 m 1
 400 50 l 1
 480 50 l 1
 480 -140 l 1
 400 -180 l 1
EndSplineSet
Refer: 90 120 N 1 0 0 1 0 0 2
Fore
SplineSet
40 0 m 1
 190 250 l 1
 40 500 l 1
 140 500 l 1
 255 287 l 1
 370 500 l 1
 460 500 l 1
 310 250 l 1
 430 50 l 1
 480 50 l 1
 480 -140 l 1
 400 -180 l 1
 400 0 l 1
 360 0 l 1
 245 213 l 1
 130 0 l 1
 40 0 l 1
EndSplineSet
Validated: 1
EndChar

StartChar: uni04BA
Encoding: 1210 1210 738
Width: 520
Flags: W
HStem: 0 21G<80 170 370 460> 360 50<170 370> 700 20G<80 170>
VStem: 80 90<0 360 410 720> 370 90<0 360>
LayerCount: 4
Fore
SplineSet
80 0 m 1
 80 720 l 1
 170 720 l 1
 170 410 l 1
 460 410 l 1
 460 0 l 1
 370 0 l 1
 370 360 l 1
 170 360 l 1
 170 0 l 1
 80 0 l 1
EndSplineSet
Validated: 1
EndChar

StartChar: uni04B6
Encoding: 1206 1206 740
Width: 520
Flags: W
HStem: 310 50<140 340> 700 20G<50 140 340 430>
VStem: 50 90<360 720> 340 90<50 310 360 720> 410 90<-140 0>
LayerCount: 4
Back
SplineSet
410 -180 m 1
 410 50 l 1
 500 50 l 1
 500 -140 l 1
 410 -180 l 1
EndSplineSet
Refer: 649 1063 N 1 0 0 1 0 0 2
Fore
SplineSet
340 0 m 1xf0
 340 310 l 1
 50 310 l 1
 50 720 l 1
 140 720 l 1
 140 360 l 1
 340 360 l 1
 340 720 l 1
 430 720 l 1
 430 50 l 1xf0
 500 50 l 1
 500 -140 l 1
 410 -180 l 1
 410 0 l 1xe8
 340 0 l 1xf0
EndSplineSet
Validated: 1
EndChar

StartChar: uni04B7
Encoding: 1207 1207 741
Width: 490
Flags: W
HStem: 0 21G<322 410> 200 50<138 322> 480 20G<50 138 322 410>
VStem: 50 88<250 500> 322 88<0 200 250 500> 390 80<-140 50>
LayerCount: 4
Back
SplineSet
390 -180 m 1
 390 50 l 1
 470 50 l 1
 470 -140 l 1
 390 -180 l 1
EndSplineSet
Refer: 672 1095 N 1 0 0 1 0 0 2
Fore
SplineSet
390 -180 m 1xf4
 390 50 l 1
 470 50 l 1
 470 -140 l 1
 390 -180 l 1xf4
EndSplineSet
Refer: 672 1095 N 1 0 0 1 0 0 2
Validated: 5
EndChar

StartChar: uni0473
Encoding: 1139 1139 779
Width: 580
Flags: W
HStem: 0 50<158 422> 232 78<220 360> 450 50<158 422>
VStem: 70 88<50 450> 220 140<232 310> 422 88<50 450>
CounterMasks: 1 1c
LayerCount: 4
Fore
SplineSet
220 310 m 1
 360 310 l 1
 360 232 l 1
 220 232 l 1
 220 310 l 1
158 50 m 1
 422 50 l 1
 422 450 l 1
 158 450 l 1
 158 50 l 1
  Spiro
    158 50 v
    422 50 v
    422 450 v
    158 450 v
    0 0 z
  EndSpiro
70 0 m 1
 70 500 l 1
 510 500 l 1
 510 0 l 1
 70 0 l 1
  Spiro
    70 0 v
    70 500 v
    510 500 v
    510 0 v
    0 0 z
  EndSpiro
EndSplineSet
Validated: 1
EndChar

StartChar: uni0462
Encoding: 1122 1122 780
Width: 580
Flags: W
HStem: 0 50<210 440> 360 50<210 440> 550 60<10 120 210 400> 700 20G<120 210>
VStem: 120 90<50 360 410 550 610 720> 440 90<50 360>
LayerCount: 4
Back
SplineSet
10 550 m 1
 10 610 l 1
 400 610 l 1
 400 550 l 1
 10 550 l 1
EndSplineSet
Refer: 654 1068 N 1 0 0 1 40 0 2
Fore
SplineSet
120 0 m 1
 120 550 l 1
 10 550 l 1
 10 610 l 1
 120 610 l 1
 120 720 l 1
 210 720 l 1
 210 610 l 1
 400 610 l 1
 400 550 l 1
 210 550 l 1
 210 410 l 1
 530 410 l 1
 530 0 l 1
 120 0 l 1
210 50 m 1
 440 50 l 1
 440 360 l 1
 210 360 l 1
 210 50 l 1
EndSplineSet
Validated: 1
EndChar

StartChar: uni0463
Encoding: 1123 1123 781
Width: 530
Flags: W
HStem: 0 50<208 392> 250 50<208 392> 440 60<10 120 208 400> 740 20G<164 208>
VStem: 120 88<50 250 300 440 500 720> 392 88<50 250>
LayerCount: 4
Back
SplineSet
208 50 m 1
 392 50 l 1
 392 250 l 1
 208 250 l 1
 208 50 l 1
120 0 m 1
 120 720 l 1
 208 760 l 1
 208 300 l 1
 480 300 l 1
 480 0 l 1
 120 0 l 1
10 440 m 1
 10 500 l 1
 400 500 l 1
 400 440 l 1
 10 440 l 1
EndSplineSet
Fore
SplineSet
120 0 m 1
 120 440 l 1
 10 440 l 1
 10 500 l 1
 120 500 l 1
 120 720 l 1
 208 760 l 1
 208 500 l 1
 400 500 l 1
 400 440 l 1
 208 440 l 1
 208 300 l 1
 480 300 l 1
 480 0 l 1
 120 0 l 1
208 50 m 1
 392 50 l 1
 392 250 l 1
 208 250 l 1
 208 50 l 1
EndSplineSet
Validated: 1
EndChar

StartChar: uni0495
Encoding: 1173 1173 782
Width: 500
Flags: W
HStem: -200 80<150 362> 0 21G<70 158> 250 50<158 362> 450 50<158 370>
VStem: 70 88<0 250 300 450> 362 88<-120 250>
LayerCount: 4
Back
SplineSet
150 -200 m 1
 150 -120 l 1
 362 -120 l 1
 362 250 l 1
 130 250 l 1
 130 300 l 1
 450 300 l 1
 450 -200 l 1
 150 -200 l 1
EndSplineSet
Refer: 660 1075 N 1 0 0 1 0 0 2
Fore
SplineSet
70 0 m 1
 70 500 l 1
 370 500 l 1
 370 450 l 1
 158 450 l 1
 158 300 l 1
 450 300 l 1
 450 -200 l 1
 150 -200 l 1
 150 -120 l 1
 362 -120 l 1
 362 250 l 1
 158 250 l 1
 158 0 l 1
 70 0 l 1
EndSplineSet
Validated: 1
EndChar

StartChar: uni01F6
Encoding: 502 502 795
Width: 850
Flags: W
HStem: 0 50<490 680> 360 50<170 400> 480 20G<680 770> 700 20G<80 170 400 490>
VStem: 80 90<0 360 410 720> 400 90<50 360 410 720> 680 90<50 500>
LayerCount: 4
Fore
SplineSet
80 0 m 1
 80 720 l 1
 170 720 l 1
 170 410 l 1
 400 410 l 1
 400 720 l 1
 490 720 l 1
 490 50 l 1
 680 50 l 1
 680 500 l 1
 770 500 l 1
 770 0 l 1
 400 0 l 1
 400 360 l 1
 170 360 l 1
 170 0 l 1
 80 0 l 1
EndSplineSet
Validated: 1
EndChar

StartChar: uni0195
Encoding: 405 405 800
Width: 770
Flags: W
HStem: 0 50<430 610> 450 50<158 342> 740 20G<114 158>
VStem: 70 88<0 450 500 720> 342 88<50 450> 610 90<50 500>
LayerCount: 4
Fore
SplineSet
70 0 m 1
 70 720 l 1
 158 760 l 1
 158 500 l 1
 430 500 l 1
 430 50 l 1
 610 50 l 1
 610 500 l 1
 700 500 l 1
 700 0 l 1
 342 0 l 1
 342 450 l 1
 158 450 l 1
 158 0 l 1
 70 0 l 1
EndSplineSet
Validated: 1
EndChar

StartChar: questiondown
Encoding: 191 191 801
Width: 400
Flags: W
HStem: -200 80<110 340> 120 80<110 250> 410 110<215 315>
VStem: 50 60<-120 120> 215 100<410 520> 250 60<200 330>
LayerCount: 4
Fore
SplineSet
50 -200 m 25xf4
 50 200 l 25
 250 200 l 25
 250 330 l 25
 310 330 l 25
 310 120 l 25
 110 120 l 25
 110 -120 l 25
 340 -120 l 25
 340 -200 l 25
 50 -200 l 25xf4
215 410 m 1xf8
 215 520 l 1
 315 520 l 1
 315 410 l 1
 215 410 l 1xf8
EndSplineSet
Validated: 1
EndChar

StartChar: three.cv02
Encoding: 65568 -1 802
Width: 550
Flags: W
HStem: 0 150<60 140> 0 50<140 390> 340 80<250 390> 640 80<70 360>
VStem: 60 80<50 150> 390 90<50 340>
LayerCount: 4
Fore
SplineSet
60 0 m 1xbc
 60 150 l 1
 140 150 l 1xbc
 140 50 l 1
 390 50 l 1
 390 340 l 1
 160 340 l 9
 160 380 l 25
 360 640 l 9
 70 640 l 25
 70 720 l 25
 450 720 l 17
 450 680 l 1
 250 420 l 1
 480 420 l 1
 480 0 l 1x7c
 60 0 l 1xbc
EndSplineSet
Validated: 1
EndChar

StartChar: five.cv03
Encoding: 65569 -1 803
Width: 550
Flags: W
HStem: 0 160<60 140> 0 50<140 390> 350 80<130 390> 640 80<130 430>
VStem: 60 80<50 160> 70 60<430 640> 390 90<50 350> 430 60<720 800>
LayerCount: 4
Fore
SplineSet
60 0 m 25xba
 60 160 l 25
 140 160 l 25xba
 140 50 l 25
 390 50 l 25
 390 350 l 25x7a
 70 350 l 25
 70 720 l 17
 430 720 l 1
 430 800 l 1
 490 800 l 9
 490 640 l 25x75
 130 640 l 25
 130 430 l 25
 480 430 l 25
 480 0 l 25x76
 60 0 l 25xba
EndSplineSet
Validated: 1
EndChar

StartChar: one.ss01
Encoding: 65570 -1 804
Width: 550
Flags: W
HStem: 0 21G<240 330>
VStem: 240 90<0 700>
LayerCount: 4
Fore
SplineSet
240 0 m 1
 240 700 l 1
 330 740 l 1
 330 0 l 1
 240 0 l 1
EndSplineSet
Validated: 1
EndChar

StartChar: three.ss01
Encoding: 65571 -1 805
Width: 550
Flags: W
HStem: 0 150<60 140> 0 50<140 390> 350 50<250 390> 640 80<70 360>
VStem: 60 80<50 150> 390 90<50 350>
LayerCount: 4
Fore
SplineSet
60 0 m 1xbc
 60 150 l 1
 140 150 l 1xbc
 140 50 l 1
 390 50 l 1
 390 350 l 1
 180 350 l 9
 180 390 l 25
 360 640 l 9
 70 640 l 25
 70 720 l 25
 450 720 l 17
 450 680 l 1
 250 400 l 1
 480 400 l 1
 480 0 l 1x7c
 60 0 l 1xbc
EndSplineSet
Validated: 1
EndChar

StartChar: four.ss01
Encoding: 65572 -1 806
Width: 550
Flags: W
HStem: 0 21G<360 450> 210 50<140 360 450 510> 700 20G<60 140 360 450>
VStem: 60 80<260 720> 360 90<0 210 260 720>
LayerCount: 4
Fore
SplineSet
360 0 m 1
 360 210 l 1
 60 210 l 1
 60 720 l 1
 140 720 l 5
 140 260 l 5
 360 260 l 1
 360 720 l 1
 450 720 l 1
 450 260 l 1
 510 260 l 1
 510 210 l 1
 450 210 l 1
 450 0 l 1
 360 0 l 1
EndSplineSet
Validated: 1
EndChar

StartChar: five.ss01
Encoding: 65573 -1 807
Width: 550
Flags: W
HStem: 0 160<60 140> 0 50<140 390> 370 50<130 390> 640 80<130 490>
VStem: 60 80<50 160> 70 60<420 640> 390 90<50 370>
LayerCount: 4
Fore
SplineSet
60 0 m 29xba
 60 160 l 29
 140 160 l 29xba
 140 50 l 29x7a
 390 50 l 29
 390 370 l 29
 70 370 l 29
 70 720 l 29
 490 720 l 29
 490 640 l 29
 130 640 l 29
 130 420 l 29
 480 420 l 29
 480 0 l 29x76
 60 0 l 29xba
EndSplineSet
Validated: 1
EndChar

StartChar: seven.ss01
Encoding: 65574 -1 808
Width: 550
Flags: W
HStem: 0 21G<360 450> 640 80<120 360>
VStem: 60 60<400 640> 360 90<0 640>
LayerCount: 4
Fore
SplineSet
360 0 m 1
 360 640 l 1
 120 640 l 1
 120 400 l 1
 60 400 l 1
 60 720 l 1
 450 720 l 1
 450 0 l 1
 360 0 l 1
EndSplineSet
Validated: 1
EndChar

StartChar: eight.ss01
Encoding: 65575 -1 809
Width: 550
Flags: W
HStem: 0 50<170 380> 360 50<170 380> 670 50<170 380>
VStem: 80 90<50 360 410 670> 380 90<50 360 410 670>
LayerCount: 4
Fore
SplineSet
80 0 m 1
 80 720 l 25
 470 720 l 17
 470 0 l 1
 80 0 l 1
170 50 m 1
 380 50 l 1
 380 360 l 1
 170 360 l 1
 170 50 l 1
170 410 m 25
 380 410 l 17
 380 670 l 9
 170 670 l 25
 170 410 l 25
EndSplineSet
Validated: 1
EndChar

StartChar: nine.ss01
Encoding: 65576 -1 810
Width: 550
Flags: W
HStem: 0 21G<390 480> 250 50<160 390> 670 50<160 390>
VStem: 70 90<300 670> 390 90<0 250 300 670>
LayerCount: 4
Fore
SplineSet
390 670 m 1
 160 670 l 1
 160 300 l 5
 390 300 l 5
 390 670 l 1
390 0 m 1
 390 250 l 5
 70 250 l 5
 70 720 l 1
 480 720 l 1
 480 0 l 1
 390 0 l 1
EndSplineSet
Validated: 1
EndChar

StartChar: zero.zero
Encoding: 65577 -1 811
Width: 550
Flags: W
HStem: 0 50<160 390> 670 50<160 390>
VStem: 70 90<50 120 190 210 280 670> 390 90<50 440 510 530 600 670>
LayerCount: 4
Back
SplineSet
30 150 m 1
 520 640 l 1
 520 570 l 1
 30 80 l 1
 30 150 l 1
160 50 m 1
 390 50 l 1
 390 670 l 1
 160 670 l 1
 160 50 l 1
70 0 m 1
 70 720 l 1
 480 720 l 1
 480 0 l 1
 70 0 l 1
EndSplineSet
Fore
SplineSet
160 50 m 1
 390 50 l 1
 390 440 l 1
 160 210 l 1
 160 50 l 1
70 0 m 1
 70 120 l 1
 30 80 l 1
 30 150 l 1
 70 190 l 1
 70 720 l 1
 480 720 l 1
 480 600 l 1
 520 640 l 1
 520 570 l 1
 480 530 l 1
 480 0 l 1
 70 0 l 1
390 510 m 1
 390 670 l 1
 160 670 l 1
 160 280 l 1
 390 510 l 1
EndSplineSet
Validated: 1
EndChar

StartChar: zero.cv04
Encoding: 65578 -1 812
Width: 550
Flags: W
HStem: 0 50<160 390> 320 80<250 300> 670 50<160 390>
VStem: 70 90<50 670> 250 50<320 400> 390 90<50 670>
CounterMasks: 1 fc
LayerCount: 4
Fore
SplineSet
250 400 m 1
 300 400 l 1
 300 320 l 1
 250 320 l 1
 250 400 l 1
160 50 m 1
 390 50 l 1
 390 670 l 1
 160 670 l 1
 160 50 l 1
70 0 m 1
 70 720 l 1
 480 720 l 1
 480 0 l 1
 70 0 l 1
EndSplineSet
Validated: 1
EndChar
